<svg width="100" height="100" viewBox="0 0 100 100" fill="none" xmlns="http://www.w3.org/2000/svg">
<path d="M29.166 62.5H37.4993C37.4993 67 43.2077 70.8333 49.9994 70.8333C56.791 70.8333 62.4994 67 62.4994 62.5C62.4994 57.9167 58.166 56.25 48.9994 54.0417C40.166 51.8333 29.166 49.0833 29.166 37.5C29.166 30.0417 35.291 23.7083 43.7494 21.5833V12.5H56.2494V21.5833C64.7077 23.7083 70.8327 30.0417 70.8327 37.5H62.4994C62.4994 33 56.791 29.1667 49.9994 29.1667C43.2077 29.1667 37.4993 33 37.4993 37.5C37.4993 42.0833 41.8327 43.75 50.9993 45.9583C59.8327 48.1667 70.8327 50.9167 70.8327 62.5C70.8327 69.9583 64.7077 76.2917 56.2494 78.4167V87.5H43.7494V78.4167C35.291 76.2917 29.166 69.9583 29.166 62.5Z" fill="#DD9C3A"/>
<rect x="2" y="2" width="96" height="96" rx="48" stroke="#DD9C3A" stroke-width="4"/>
</svg>
