<svg width="100" height="100" viewBox="0 0 100 100" fill="none" xmlns="http://www.w3.org/2000/svg">
<path d="M90 50C90 39.3913 85.7857 29.2172 78.2843 21.7157C70.7828 14.2143 60.6087 10 50 10C39.3913 10 29.2172 14.2143 21.7157 21.7157C14.2143 29.2172 10 39.3913 10 50C10 60.6087 14.2143 70.7828 21.7157 78.2843C29.2172 85.7857 39.3913 90 50 90C60.6087 90 70.7828 85.7857 78.2843 78.2843C85.7857 70.7828 90 60.6087 90 50ZM100 50C100 63.2608 94.7322 75.9785 85.3553 85.3553C75.9785 94.7322 63.2608 100 50 100C43.4339 100 36.9321 98.7067 30.8658 96.194C24.7995 93.6812 19.2876 89.9983 14.6447 85.3553C5.26784 75.9785 0 63.2608 0 50C0 36.7392 5.26784 24.0215 14.6447 14.6447C24.0215 5.26784 36.7392 0 50 0C56.5661 0 63.0679 1.29329 69.1342 3.80602C75.2005 6.31876 80.7124 10.0017 85.3553 14.6447C89.9983 19.2876 93.6812 24.7995 96.194 30.8658C98.7067 36.9321 100 43.4339 100 50V50ZM67.5 30C71.5 30 75 33.5 75 37.5C75 41.5 71.5 45 67.5 45C63.5 45 60 41.5 60 37.5C60 33.5 63.5 30 67.5 30ZM40 37.5C40 41.5 36.5 45 32.5 45C28.5 45 25 41.5 25 37.5C25 33.5 28.5 30 32.5 30C36.5 30 40 33.5 40 37.5ZM50 60C58.75 60 66.45 63.6 70.95 69.05L63.85 76.15C61.6 72.5 56.25 70 50 70C43.75 70 38.4 72.5 36.15 76.15L29.05 69.05C33.55 63.6 41.25 60 50 60Z" fill="#DA4444"/>
<path d="M90 50C90 39.3913 85.7857 29.2172 78.2843 21.7157C70.7828 14.2143 60.6087 10 50 10C39.3913 10 29.2172 14.2143 21.7157 21.7157C14.2143 29.2172 10 39.3913 10 50C10 60.6087 14.2143 70.7828 21.7157 78.2843C29.2172 85.7857 39.3913 90 50 90C60.6087 90 70.7828 85.7857 78.2843 78.2843C85.7857 70.7828 90 60.6087 90 50ZM100 50C100 63.2608 94.7322 75.9785 85.3553 85.3553C75.9785 94.7322 63.2608 100 50 100C43.4339 100 36.9321 98.7067 30.8658 96.194C24.7995 93.6812 19.2876 89.9983 14.6447 85.3553C5.26784 75.9785 0 63.2608 0 50C0 36.7392 5.26784 24.0215 14.6447 14.6447C24.0215 5.26784 36.7392 0 50 0C56.5661 0 63.0679 1.29329 69.1342 3.80602C75.2005 6.31876 80.7124 10.0017 85.3553 14.6447C89.9983 19.2876 93.6812 24.7995 96.194 30.8658C98.7067 36.9321 100 43.4339 100 50V50ZM67.5 30C71.5 30 75 33.5 75 37.5C75 41.5 71.5 45 67.5 45C63.5 45 60 41.5 60 37.5C60 33.5 63.5 30 67.5 30ZM40 37.5C40 41.5 36.5 45 32.5 45C28.5 45 25 41.5 25 37.5C25 33.5 28.5 30 32.5 30C36.5 30 40 33.5 40 37.5ZM50 60C58.75 60 66.45 63.6 70.95 69.05L63.85 76.15C61.6 72.5 56.25 70 50 70C43.75 70 38.4 72.5 36.15 76.15L29.05 69.05C33.55 63.6 41.25 60 50 60Z" fill="white" fill-opacity="0.2"/>
</svg>
