<svg width="56" height="28" viewBox="0 0 56 28" fill="none" xmlns="http://www.w3.org/2000/svg">
<rect width="56" height="28" rx="2" fill="white"/>
<rect width="56" height="28" rx="2" fill="black" fill-opacity="0.04"/>
<path fill-rule="evenodd" clip-rule="evenodd" d="M24.9348 13.3857H27.771L23.5305 4H20.2543L16 13.3857H18.78L19.6027 11.4686H24.1122L24.9348 13.3857ZM35.3433 13.3857H33.1458L30.5368 6.43999V13.3857H28.0397V4H32.0532L34.2798 9.97986L36.4925 4H40.4638V13.3857H37.9678V6.43999L35.3433 13.3857ZM29.3669 15.6143V17.7194H23.8079V19.2482H29.2394V21.2988H23.8079V22.895H29.3669V25H21.2828V15.6143H29.3669ZM40.5008 25H37.3381L34.984 22.0897L32.6439 25H29.5665L33.5226 20.3199L29.5524 15.6143H32.7141L35.0542 18.497L37.3943 15.6143H40.4728L36.5015 20.2668L40.5008 25ZM21.843 6.2123L20.467 9.43023H23.233L21.843 6.2123Z" fill="#006FAC"/>
</svg>
