<svg width="60" height="60" viewBox="0 0 60 60" fill="none" xmlns="http://www.w3.org/2000/svg">
<path d="M30 5C16.25 5 5 16.25 5 30C5 43.75 16.25 55 30 55C43.75 55 55 43.75 55 30C55 16.25 43.75 5 30 5ZM30 50C18.975 50 10 41.025 10 30C10 18.975 18.975 10 30 10C41.025 10 50 18.975 50 30C50 41.025 41.025 50 30 50ZM41.475 18.95L25 35.425L18.525 28.975L15 32.5L25 42.5L45 22.5L41.475 18.95Z" fill="#808080"/>
<path d="M30 5C16.25 5 5 16.25 5 30C5 43.75 16.25 55 30 55C43.75 55 55 43.75 55 30C55 16.25 43.75 5 30 5ZM30 50C18.975 50 10 41.025 10 30C10 18.975 18.975 10 30 10C41.025 10 50 18.975 50 30C50 41.025 41.025 50 30 50ZM41.475 18.95L25 35.425L18.525 28.975L15 32.5L25 42.5L45 22.5L41.475 18.95Z" fill="black" fill-opacity="0.5"/>
</svg>
