<svg width="151" height="32" viewBox="0 0 151 32" fill="none" xmlns="http://www.w3.org/2000/svg">
<path d="M52 29H42.069L26 12.931L9.93104 29H0L26 3L52 29Z" fill="#0045AC"/>
<path d="M32.1372 29H19.8613L25.9992 22.8621L32.1372 29Z" fill="#DD9C3A"/>
<path d="M74.2188 26L71.9082 20.0967H64.4688L62.1836 26H60L67.3379 7.36328H69.1533L76.4531 26H74.2188ZM71.2354 18.1543L69.0771 12.4033C68.7979 11.6755 68.5101 10.7826 68.2139 9.72461C68.0277 10.5371 67.7611 11.43 67.4141 12.4033L65.2305 18.1543H71.2354ZM85.0352 11.832C85.653 11.832 86.2074 11.8828 86.6982 11.9844L86.4062 13.9395C85.8307 13.8125 85.3229 13.749 84.8828 13.749C83.7572 13.749 82.7923 14.2061 81.9883 15.1201C81.1927 16.0342 80.7949 17.1725 80.7949 18.5352V26H78.6875V12.0859H80.4268L80.668 14.6631H80.7695C81.2858 13.7575 81.9079 13.0592 82.6357 12.5684C83.3636 12.0775 84.1634 11.832 85.0352 11.832ZM94.8613 26.2539C92.847 26.2539 91.2855 25.6361 90.1768 24.4004C89.0765 23.1562 88.5264 21.4001 88.5264 19.1318C88.5264 16.8044 89.085 15.0059 90.2021 13.7363C91.3278 12.4668 92.9274 11.832 95.001 11.832C95.6696 11.832 96.3382 11.904 97.0068 12.0479C97.6755 12.1917 98.2002 12.361 98.5811 12.5557L97.9336 14.3457C97.4681 14.1595 96.9603 14.0072 96.4102 13.8887C95.86 13.7617 95.3734 13.6982 94.9502 13.6982C92.1234 13.6982 90.71 15.501 90.71 19.1064C90.71 20.8161 91.0527 22.1279 91.7383 23.042C92.4323 23.9561 93.4564 24.4131 94.8105 24.4131C95.9701 24.4131 97.1592 24.1634 98.3779 23.6641V25.5303C97.4469 26.0127 96.2747 26.2539 94.8613 26.2539ZM113.701 19.0303C113.701 21.2985 113.13 23.0716 111.987 24.3496C110.845 25.6191 109.266 26.2539 107.252 26.2539C106.008 26.2539 104.903 25.9619 103.938 25.3779C102.974 24.7939 102.229 23.9561 101.704 22.8643C101.179 21.7725 100.917 20.4945 100.917 19.0303C100.917 16.762 101.484 14.9974 102.618 13.7363C103.752 12.4668 105.326 11.832 107.341 11.832C109.287 11.832 110.832 12.4795 111.975 13.7744C113.126 15.0693 113.701 16.8213 113.701 19.0303ZM103.101 19.0303C103.101 20.8076 103.456 22.1618 104.167 23.0928C104.878 24.0238 105.923 24.4893 107.303 24.4893C108.682 24.4893 109.728 24.028 110.438 23.1055C111.158 22.1745 111.518 20.8161 111.518 19.0303C111.518 17.2614 111.158 15.9199 110.438 15.0059C109.728 14.0833 108.674 13.6221 107.277 13.6221C105.898 13.6221 104.857 14.0749 104.154 14.9805C103.452 15.8861 103.101 17.236 103.101 19.0303ZM119.516 26H117.408V12.0859H119.516V26ZM117.23 8.31543C117.23 7.83301 117.349 7.48177 117.586 7.26172C117.823 7.0332 118.119 6.91895 118.475 6.91895C118.813 6.91895 119.105 7.0332 119.351 7.26172C119.596 7.49023 119.719 7.84147 119.719 8.31543C119.719 8.78939 119.596 9.14486 119.351 9.38184C119.105 9.61035 118.813 9.72461 118.475 9.72461C118.119 9.72461 117.823 9.61035 117.586 9.38184C117.349 9.14486 117.23 8.78939 117.23 8.31543ZM133.506 26V16.999C133.506 15.8649 133.248 15.0186 132.731 14.46C132.215 13.9014 131.407 13.6221 130.307 13.6221C128.851 13.6221 127.785 14.0156 127.107 14.8027C126.43 15.5898 126.092 16.889 126.092 18.7002V26H123.984V12.0859H125.698L126.041 13.9902H126.143C126.574 13.3047 127.179 12.7757 127.958 12.4033C128.737 12.0225 129.604 11.832 130.561 11.832C132.236 11.832 133.497 12.2383 134.344 13.0508C135.19 13.8548 135.613 15.1455 135.613 16.9229V26H133.506ZM148.931 22.2041C148.931 23.499 148.448 24.4977 147.483 25.2002C146.519 25.9027 145.164 26.2539 143.421 26.2539C141.576 26.2539 140.137 25.9619 139.104 25.3779V23.4229C139.773 23.7614 140.488 24.028 141.25 24.2227C142.02 24.4173 142.761 24.5146 143.472 24.5146C144.572 24.5146 145.418 24.3411 146.011 23.9941C146.603 23.6387 146.899 23.1012 146.899 22.3818C146.899 21.8402 146.662 21.3789 146.188 20.998C145.723 20.6087 144.809 20.1517 143.446 19.627C142.151 19.1445 141.229 18.7256 140.679 18.3701C140.137 18.0062 139.731 17.5957 139.46 17.1387C139.198 16.6816 139.066 16.1357 139.066 15.501C139.066 14.3669 139.528 13.474 140.45 12.8223C141.373 12.1621 142.638 11.832 144.246 11.832C145.744 11.832 147.208 12.1367 148.639 12.7461L147.89 14.46C146.493 13.8844 145.228 13.5967 144.094 13.5967C143.095 13.5967 142.342 13.7533 141.834 14.0664C141.326 14.3796 141.072 14.8112 141.072 15.3613C141.072 15.7337 141.165 16.0511 141.352 16.3135C141.546 16.5758 141.855 16.8255 142.278 17.0625C142.701 17.2995 143.514 17.6423 144.716 18.0908C146.366 18.6917 147.479 19.2969 148.055 19.9062C148.639 20.5156 148.931 21.2816 148.931 22.2041Z" fill="#808080"/>
<path d="M74.2188 26L71.9082 20.0967H64.4688L62.1836 26H60L67.3379 7.36328H69.1533L76.4531 26H74.2188ZM71.2354 18.1543L69.0771 12.4033C68.7979 11.6755 68.5101 10.7826 68.2139 9.72461C68.0277 10.5371 67.7611 11.43 67.4141 12.4033L65.2305 18.1543H71.2354ZM85.0352 11.832C85.653 11.832 86.2074 11.8828 86.6982 11.9844L86.4062 13.9395C85.8307 13.8125 85.3229 13.749 84.8828 13.749C83.7572 13.749 82.7923 14.2061 81.9883 15.1201C81.1927 16.0342 80.7949 17.1725 80.7949 18.5352V26H78.6875V12.0859H80.4268L80.668 14.6631H80.7695C81.2858 13.7575 81.9079 13.0592 82.6357 12.5684C83.3636 12.0775 84.1634 11.832 85.0352 11.832ZM94.8613 26.2539C92.847 26.2539 91.2855 25.6361 90.1768 24.4004C89.0765 23.1562 88.5264 21.4001 88.5264 19.1318C88.5264 16.8044 89.085 15.0059 90.2021 13.7363C91.3278 12.4668 92.9274 11.832 95.001 11.832C95.6696 11.832 96.3382 11.904 97.0068 12.0479C97.6755 12.1917 98.2002 12.361 98.5811 12.5557L97.9336 14.3457C97.4681 14.1595 96.9603 14.0072 96.4102 13.8887C95.86 13.7617 95.3734 13.6982 94.9502 13.6982C92.1234 13.6982 90.71 15.501 90.71 19.1064C90.71 20.8161 91.0527 22.1279 91.7383 23.042C92.4323 23.9561 93.4564 24.4131 94.8105 24.4131C95.9701 24.4131 97.1592 24.1634 98.3779 23.6641V25.5303C97.4469 26.0127 96.2747 26.2539 94.8613 26.2539ZM113.701 19.0303C113.701 21.2985 113.13 23.0716 111.987 24.3496C110.845 25.6191 109.266 26.2539 107.252 26.2539C106.008 26.2539 104.903 25.9619 103.938 25.3779C102.974 24.7939 102.229 23.9561 101.704 22.8643C101.179 21.7725 100.917 20.4945 100.917 19.0303C100.917 16.762 101.484 14.9974 102.618 13.7363C103.752 12.4668 105.326 11.832 107.341 11.832C109.287 11.832 110.832 12.4795 111.975 13.7744C113.126 15.0693 113.701 16.8213 113.701 19.0303ZM103.101 19.0303C103.101 20.8076 103.456 22.1618 104.167 23.0928C104.878 24.0238 105.923 24.4893 107.303 24.4893C108.682 24.4893 109.728 24.028 110.438 23.1055C111.158 22.1745 111.518 20.8161 111.518 19.0303C111.518 17.2614 111.158 15.9199 110.438 15.0059C109.728 14.0833 108.674 13.6221 107.277 13.6221C105.898 13.6221 104.857 14.0749 104.154 14.9805C103.452 15.8861 103.101 17.236 103.101 19.0303ZM119.516 26H117.408V12.0859H119.516V26ZM117.23 8.31543C117.23 7.83301 117.349 7.48177 117.586 7.26172C117.823 7.0332 118.119 6.91895 118.475 6.91895C118.813 6.91895 119.105 7.0332 119.351 7.26172C119.596 7.49023 119.719 7.84147 119.719 8.31543C119.719 8.78939 119.596 9.14486 119.351 9.38184C119.105 9.61035 118.813 9.72461 118.475 9.72461C118.119 9.72461 117.823 9.61035 117.586 9.38184C117.349 9.14486 117.23 8.78939 117.23 8.31543ZM133.506 26V16.999C133.506 15.8649 133.248 15.0186 132.731 14.46C132.215 13.9014 131.407 13.6221 130.307 13.6221C128.851 13.6221 127.785 14.0156 127.107 14.8027C126.43 15.5898 126.092 16.889 126.092 18.7002V26H123.984V12.0859H125.698L126.041 13.9902H126.143C126.574 13.3047 127.179 12.7757 127.958 12.4033C128.737 12.0225 129.604 11.832 130.561 11.832C132.236 11.832 133.497 12.2383 134.344 13.0508C135.19 13.8548 135.613 15.1455 135.613 16.9229V26H133.506ZM148.931 22.2041C148.931 23.499 148.448 24.4977 147.483 25.2002C146.519 25.9027 145.164 26.2539 143.421 26.2539C141.576 26.2539 140.137 25.9619 139.104 25.3779V23.4229C139.773 23.7614 140.488 24.028 141.25 24.2227C142.02 24.4173 142.761 24.5146 143.472 24.5146C144.572 24.5146 145.418 24.3411 146.011 23.9941C146.603 23.6387 146.899 23.1012 146.899 22.3818C146.899 21.8402 146.662 21.3789 146.188 20.998C145.723 20.6087 144.809 20.1517 143.446 19.627C142.151 19.1445 141.229 18.7256 140.679 18.3701C140.137 18.0062 139.731 17.5957 139.46 17.1387C139.198 16.6816 139.066 16.1357 139.066 15.501C139.066 14.3669 139.528 13.474 140.45 12.8223C141.373 12.1621 142.638 11.832 144.246 11.832C145.744 11.832 147.208 12.1367 148.639 12.7461L147.89 14.46C146.493 13.8844 145.228 13.5967 144.094 13.5967C143.095 13.5967 142.342 13.7533 141.834 14.0664C141.326 14.3796 141.072 14.8112 141.072 15.3613C141.072 15.7337 141.165 16.0511 141.352 16.3135C141.546 16.5758 141.855 16.8255 142.278 17.0625C142.701 17.2995 143.514 17.6423 144.716 18.0908C146.366 18.6917 147.479 19.2969 148.055 19.9062C148.639 20.5156 148.931 21.2816 148.931 22.2041Z" fill="black" fill-opacity="0.5"/>
</svg>
