<svg width="24" height="24" viewBox="0 0 24 24" fill="none" xmlns="http://www.w3.org/2000/svg">
    <path d="M22.5005 12.2331C22.5005 11.3698 22.4291 10.7398 22.2744 10.0864H12.2148V13.983H18.1196C18.0006 14.9514 17.3577 16.4097 15.9291 17.3897L15.9091 17.5202L19.0897 19.9349L19.3101 19.9564C21.3338 18.1247 22.5005 15.4297 22.5005 12.2331Z" fill="#4285F4"/>
    <path d="M12.214 22.5001C15.1068 22.5001 17.5353 21.5667 19.3092 19.9567L15.9282 17.39C15.0235 18.0083 13.8092 18.44 12.214 18.44C9.38069 18.44 6.97596 16.6083 6.11874 14.0767L5.99309 14.0871L2.68583 16.5955L2.64258 16.7133C4.40446 20.1433 8.0235 22.5001 12.214 22.5001Z" fill="#34A853"/>
    <path d="M6.12095 14.0767C5.89476 13.4234 5.76386 12.7233 5.76386 12C5.76386 11.2767 5.89476 10.5767 6.10905 9.92337L6.10306 9.78423L2.75435 7.2356L2.64478 7.28667C1.91862 8.71002 1.50195 10.3084 1.50195 12C1.50195 13.6917 1.91862 15.29 2.64478 16.7133L6.12095 14.0767Z" fill="#FBBC05"/>
    <path d="M12.2141 5.55997C14.2259 5.55997 15.583 6.41163 16.3569 7.12335L19.3807 4.23C17.5236 2.53834 15.1069 1.5 12.2141 1.5C8.02353 1.5 4.40447 3.85665 2.64258 7.28662L6.10686 9.92332C6.97598 7.39166 9.38073 5.55997 12.2141 5.55997Z" fill="#EB4335"/>
</svg>
