<svg width="56" height="28" viewBox="0 0 56 28" fill="none" xmlns="http://www.w3.org/2000/svg">
<rect width="56" height="28" rx="2" fill="white"/>
<rect width="56" height="28" rx="2" fill="black" fill-opacity="0.04"/>
<g clip-path="url(#clip0_163_2334)">
<path d="M22.3579 13.104C22.3585 12.7638 22.328 12.4241 22.2668 12.0889H17.2832V14.0105H20.1369C20.0785 14.3172 19.955 14.6095 19.7736 14.8699C19.5923 15.1303 19.3571 15.3533 19.082 15.5255V16.7761H20.7855C21.783 15.9077 22.3579 14.623 22.3579 13.104Z" fill="#4285F4"/>
<path d="M17.2835 17.9812C18.7083 17.9812 19.9108 17.5386 20.7859 16.7761L19.0823 15.5279C18.6078 15.8329 17.998 16.0053 17.2835 16.0053C15.9056 16.0053 14.7353 15.128 14.3171 13.9458H12.5625V15.2318C13.0021 16.0583 13.6765 16.7531 14.5102 17.2386C15.3438 17.7242 16.304 17.9812 17.2835 17.9812Z" fill="#34A853"/>
<path d="M14.318 13.9458C14.0968 13.3262 14.0968 12.6553 14.318 12.0358V10.7495H12.5634C12.1929 11.4451 12 12.2128 12 12.9914C12 13.77 12.1929 14.5377 12.5634 15.2333L14.318 13.9458Z" fill="#FBBC04"/>
<path d="M27.1353 13.8634V17.3796H25.9531V8.693H29.0863C29.4604 8.68541 29.8324 8.74795 30.1807 8.87701C30.5291 9.00606 30.8469 9.19907 31.1157 9.44487C31.383 9.67998 31.5962 9.96455 31.7419 10.2808C31.8877 10.5971 31.9629 10.9384 31.9629 11.2834C31.9629 11.6283 31.8877 11.9696 31.7419 12.2859C31.5962 12.6022 31.383 12.8867 31.1157 13.1219C30.5675 13.6156 29.891 13.862 29.0863 13.8612H27.1347L27.1353 13.8634ZM27.1353 9.76361V12.7964H29.1166C29.431 12.8019 29.7401 12.7198 30.0054 12.5604C30.2707 12.401 30.4804 12.1714 30.6083 11.9001C30.7363 11.6289 30.7768 11.3281 30.7249 11.0353C30.6729 10.7424 30.5308 10.4705 30.3163 10.2535C30.3056 10.2431 30.2962 10.233 30.284 10.223C30.1349 10.0724 29.9536 9.95341 29.7521 9.87401C29.5506 9.7946 29.3336 9.75656 29.1153 9.76239L27.1353 9.76361ZM34.6875 11.2433C35.5613 11.2433 36.2504 11.4635 36.7547 11.9039C37.259 12.3444 37.5115 12.9486 37.5121 13.7166V17.3796H36.3816V16.556H36.3309C35.8415 17.2356 35.1904 17.5752 34.3777 17.5748C33.6848 17.5748 33.1049 17.3807 32.638 16.9925C32.4141 16.8143 32.2351 16.5911 32.1141 16.3394C31.993 16.0876 31.9329 15.8135 31.9381 15.537C31.9381 14.9217 32.1843 14.4326 32.6768 14.0698C33.1692 13.7071 33.826 13.5253 34.6471 13.5245C35.3483 13.5245 35.9275 13.6465 36.3803 13.8878V13.6321C36.3817 13.4437 36.3387 13.2573 36.2543 13.0866C36.1699 12.9158 36.0464 12.7649 35.8926 12.6448C35.58 12.3786 35.1726 12.2335 34.7518 12.2385C34.0922 12.2385 33.5699 12.5013 33.1849 13.027L32.1464 12.4066C32.7173 11.6306 33.564 11.2428 34.6865 11.2433H34.6875ZM33.1581 15.5608C33.1574 15.7026 33.1926 15.8425 33.2606 15.969C33.3286 16.0954 33.4276 16.2048 33.5492 16.2879C33.8107 16.482 34.135 16.5849 34.4675 16.5792C34.9659 16.5779 35.4435 16.3907 35.7963 16.0583C36.1878 15.7101 36.3835 15.3017 36.3832 14.833C36.0146 14.5558 35.5008 14.4171 34.8419 14.4167C34.3619 14.4167 33.9616 14.5259 33.6409 14.7442C33.3179 14.9672 33.1564 15.2368 33.1564 15.5608H33.1581ZM44.0006 11.4382L40.0558 20H38.8361L40.2997 17.0038L37.7047 11.4382H38.9889L40.8623 15.7084H40.8879L42.7122 11.4382H44.0006Z" fill="#5F6368"/>
<path d="M17.2835 9.97621C18.0368 9.96457 18.7647 10.2332 19.3101 10.7241L20.8194 9.30029C19.8628 8.45211 18.5957 7.98627 17.2835 8.00031C16.3041 8.0005 15.3441 8.25766 14.5104 8.74309C13.6768 9.22852 13.0024 9.92314 12.5625 10.7494L14.3171 12.0357C14.7353 10.8534 15.9056 9.97621 17.2835 9.97621Z" fill="#EA4335"/>
</g>
<defs>
<clipPath id="clip0_163_2334">
<rect width="32" height="12" fill="white" transform="translate(12 8)"/>
</clipPath>
</defs>
</svg>
