<svg width="62" height="62" viewBox="0 0 62 62" fill="none" xmlns="http://www.w3.org/2000/svg">
<circle cx="31" cy="31" r="30" fill="white"/>
<circle cx="31" cy="31" r="30" stroke="#0045AC" stroke-width="2"/>
<circle cx="31" cy="31" r="30" stroke="white" stroke-opacity="0.2" stroke-width="2"/>
<path d="M32.3324 17.7068V20.4001C38.1858 21.1201 42.3324 26.4401 41.6124 32.2935C40.9991 37.1468 37.1858 41.0001 32.3324 41.5735V44.2401C39.6658 43.5068 44.9991 37.0001 44.2658 29.6668C43.6658 23.3335 38.6391 18.3335 32.3324 17.7068ZM29.6658 17.7468C27.0658 18.0001 24.5858 19.0001 22.5591 20.6801L24.4658 22.6535C25.9591 21.4535 27.7591 20.6801 29.6658 20.4135V17.7468ZM20.6791 22.5601C19.012 24.5832 17.986 27.0576 17.7324 29.6668H20.3991C20.6524 27.7735 21.3991 25.9735 22.5858 24.4668L20.6791 22.5601ZM17.7458 32.3335C18.0124 34.9468 19.0391 37.4135 20.6924 39.4401L22.5858 37.5335C21.4083 36.0262 20.6577 34.2303 20.4124 32.3335H17.7458ZM24.4658 39.4935L22.5591 41.3201C24.5788 43.0037 27.0514 44.0522 29.6658 44.3335V41.6668C27.769 41.4215 25.973 40.6709 24.4658 39.4935ZM31.6658 24.3335V31.3335L37.6658 34.8935L36.6658 36.5335L29.6658 32.3335V24.3335H31.6658Z" fill="#0045AC"/>
<path d="M32.3324 17.7068V20.4001C38.1858 21.1201 42.3324 26.4401 41.6124 32.2935C40.9991 37.1468 37.1858 41.0001 32.3324 41.5735V44.2401C39.6658 43.5068 44.9991 37.0001 44.2658 29.6668C43.6658 23.3335 38.6391 18.3335 32.3324 17.7068ZM29.6658 17.7468C27.0658 18.0001 24.5858 19.0001 22.5591 20.6801L24.4658 22.6535C25.9591 21.4535 27.7591 20.6801 29.6658 20.4135V17.7468ZM20.6791 22.5601C19.012 24.5832 17.986 27.0576 17.7324 29.6668H20.3991C20.6524 27.7735 21.3991 25.9735 22.5858 24.4668L20.6791 22.5601ZM17.7458 32.3335C18.0124 34.9468 19.0391 37.4135 20.6924 39.4401L22.5858 37.5335C21.4083 36.0262 20.6577 34.2303 20.4124 32.3335H17.7458ZM24.4658 39.4935L22.5591 41.3201C24.5788 43.0037 27.0514 44.0522 29.6658 44.3335V41.6668C27.769 41.4215 25.973 40.6709 24.4658 39.4935ZM31.6658 24.3335V31.3335L37.6658 34.8935L36.6658 36.5335L29.6658 32.3335V24.3335H31.6658Z" fill="white" fill-opacity="0.2"/>
</svg>
