<svg width="56" height="28" viewBox="0 0 56 28" fill="none" xmlns="http://www.w3.org/2000/svg">
<rect width="56" height="28" rx="2" fill="white"/>
<rect width="56" height="28" rx="2" fill="black" fill-opacity="0.04"/>
<path d="M33.666 8C33.666 6.34315 35.0092 5 36.666 5H41.8327V19.5C41.8327 21.1569 40.4895 22.5 38.8327 22.5H33.666V8Z" fill="#31BE3F"/>
<path d="M24.334 8C24.334 6.34315 25.6771 5 27.334 5H32.5007V19.5C32.5007 21.1569 31.1575 22.5 29.5007 22.5H24.334V8Z" fill="#F00F20"/>
<path d="M15 8C15 6.34315 16.3431 5 18 5H23.1667V19.5C23.1667 21.1569 21.8235 22.5 20.1667 22.5H15V8Z" fill="#069BE8"/>
</svg>
