<svg width="56" height="28" viewBox="0 0 56 28" fill="none" xmlns="http://www.w3.org/2000/svg">
<rect width="56" height="28" rx="2" fill="white"/>
<rect width="56" height="28" rx="2" fill="black" fill-opacity="0.04"/>
<path fill-rule="evenodd" clip-rule="evenodd" d="M35.2746 25C41.1983 25 46.0004 20.299 46.0004 14.5C46.0004 8.70101 41.1983 4 35.2746 4C29.3509 4 24.5488 8.70101 24.5488 14.5C24.5488 20.299 29.3509 25 35.2746 25Z" fill="#F79E1B"/>
<path fill-rule="evenodd" clip-rule="evenodd" d="M21.7258 25C27.6495 25 32.4516 20.299 32.4516 14.5C32.4516 8.70101 27.6495 4 21.7258 4C15.8021 4 11 8.70101 11 14.5C11 20.299 15.8021 25 21.7258 25Z" fill="#EB001B"/>
<path fill-rule="evenodd" clip-rule="evenodd" d="M28.5002 6.35889C26.0887 8.28428 24.5488 11.216 24.5488 14.4999C24.5488 17.7838 26.0887 20.7155 28.5002 22.6409C30.9117 20.7155 32.4516 17.7838 32.4516 14.4999C32.4516 11.216 30.9117 8.28428 28.5002 6.35889Z" fill="#FF5F00"/>
</svg>
