<svg width="56" height="28" viewBox="0 0 56 28" fill="none" xmlns="http://www.w3.org/2000/svg">
<rect width="56" height="28" rx="2" fill="white"/>
<rect width="56" height="28" rx="2" fill="black" fill-opacity="0.04"/>
<g clip-path="url(#clip0_163_2333)">
<rect width="24" height="21.75" transform="translate(18 5)" fill="#A50064"/>
<path d="M33.2136 6.49231C31.1242 6.49231 29.4306 8.11956 29.4306 10.1249C29.4306 12.1302 31.1286 13.7575 33.2136 13.7575C35.2985 13.7575 37.0009 12.1302 37.0009 10.1249C37.0009 8.11956 35.3073 6.49231 33.2136 6.49231ZM33.2136 11.6748C32.7953 11.6825 32.391 11.5238 32.0896 11.2336C31.7882 10.9434 31.6143 10.5454 31.6062 10.1271C31.6278 9.71539 31.8066 9.32765 32.1056 9.04386C32.4047 8.76008 32.8013 8.60187 33.2136 8.60187C33.6259 8.60187 34.0224 8.76008 34.3215 9.04386C34.6206 9.32765 34.7993 9.71539 34.8209 10.1271C34.8128 10.5454 34.6389 10.9434 34.3375 11.2336C34.0362 11.5238 33.6319 11.6825 33.2136 11.6748ZM28.3495 9.22062V13.773H26.1651V9.19851C26.1651 9.02846 26.0975 8.86537 25.9773 8.74513C25.857 8.62488 25.6939 8.55733 25.5239 8.55733C25.3538 8.55733 25.1908 8.62488 25.0705 8.74513C24.9503 8.86537 24.8827 9.02846 24.8827 9.19851V13.773H22.7071V9.19851C22.7071 9.02846 22.6396 8.86537 22.5194 8.74513C22.3991 8.62488 22.236 8.55733 22.066 8.55733C21.8959 8.55733 21.7328 8.62488 21.6126 8.74513C21.4924 8.86537 21.4248 9.02846 21.4248 9.19851V13.773H19.2559V9.22062C19.2721 8.4825 19.5802 7.78091 20.1128 7.26953C20.6453 6.75815 21.3588 6.47867 22.0969 6.49231C22.708 6.49105 23.3039 6.68296 23.7994 7.04062C24.2944 6.68381 24.8893 6.49197 25.4996 6.49231C26.2391 6.47689 26.9545 6.75551 27.4888 7.26702C28.0231 7.77853 28.3327 8.48113 28.3495 9.22062ZM33.2136 15.3206C31.1242 15.3206 29.4306 16.9457 29.4306 18.9532C29.4306 20.9607 31.1286 22.5924 33.2136 22.5924C35.2985 22.5924 36.9965 20.9674 36.9965 18.962C36.9965 16.9567 35.3073 15.3206 33.2136 15.3206ZM33.2136 20.5031C32.9103 20.4914 32.6171 20.3907 32.3706 20.2137C32.1241 20.0367 31.935 19.7911 31.827 19.5075C31.7189 19.2239 31.6967 18.9147 31.763 18.6185C31.8293 18.3224 31.9812 18.0522 32.1998 17.8417C32.4184 17.6312 32.6941 17.4896 32.9926 17.4346C33.2911 17.3795 33.5992 17.4135 33.8785 17.5322C34.1578 17.6508 34.3961 17.849 34.5637 18.1021C34.7312 18.3552 34.8207 18.6519 34.8209 18.9554C34.818 19.1633 34.7741 19.3686 34.6917 19.5594C34.6093 19.7503 34.49 19.923 34.3406 20.0676C34.1913 20.2122 34.0148 20.3259 33.8214 20.4022C33.628 20.4784 33.4214 20.5157 33.2136 20.5119V20.5031ZM28.3495 18.0578V22.6013H26.1651V18.0335C26.1651 17.8634 26.0975 17.7003 25.9773 17.5801C25.857 17.4598 25.6939 17.3923 25.5239 17.3923C25.3538 17.3923 25.1908 17.4598 25.0705 17.5801C24.9503 17.7003 24.8827 17.8634 24.8827 18.0335V22.6013H22.7071V18.0335C22.7071 17.8634 22.6396 17.7003 22.5194 17.5801C22.3991 17.4598 22.236 17.3923 22.066 17.3923C21.8959 17.3923 21.7328 17.4598 21.6126 17.5801C21.4924 17.7003 21.4248 17.8634 21.4248 18.0335V22.6013H19.2559V18.0578C19.2625 17.6914 19.3412 17.33 19.4876 16.9941C19.634 16.6583 19.8452 16.3545 20.1091 16.1003C20.3729 15.8461 20.6843 15.6464 21.0254 15.5126C21.3665 15.3788 21.7306 15.3136 22.0969 15.3206C22.7076 15.3196 23.3032 15.5107 23.7994 15.8667C24.2945 15.5103 24.8895 15.3192 25.4996 15.3206C25.8666 15.3127 26.2315 15.3773 26.5735 15.5106C26.9155 15.644 27.2278 15.8435 27.4925 16.0978C27.7573 16.3521 27.9692 16.6561 28.1163 16.9924C28.2633 17.3287 28.3426 17.6908 28.3495 18.0578Z" fill="white"/>
</g>
<defs>
<clipPath id="clip0_163_2333">
<rect x="18" y="5" width="20" height="18.3333" rx="4" fill="white"/>
</clipPath>
</defs>
</svg>
