<svg width="60" height="60" viewBox="0 0 60 60" fill="none" xmlns="http://www.w3.org/2000/svg">
<path d="M17.5 37.5H22.5C22.5 40.2 25.925 42.5 30 42.5C34.075 42.5 37.5 40.2 37.5 37.5C37.5 34.75 34.9 33.75 29.4 32.425C24.1 31.1 17.5 29.45 17.5 22.5C17.5 18.025 21.175 14.225 26.25 12.95V7.5H33.75V12.95C38.825 14.225 42.5 18.025 42.5 22.5H37.5C37.5 19.8 34.075 17.5 30 17.5C25.925 17.5 22.5 19.8 22.5 22.5C22.5 25.25 25.1 26.25 30.6 27.575C35.9 28.9 42.5 30.55 42.5 37.5C42.5 41.975 38.825 45.775 33.75 47.05V52.5H26.25V47.05C21.175 45.775 17.5 41.975 17.5 37.5Z" fill="#808080"/>
<path d="M17.5 37.5H22.5C22.5 40.2 25.925 42.5 30 42.5C34.075 42.5 37.5 40.2 37.5 37.5C37.5 34.75 34.9 33.75 29.4 32.425C24.1 31.1 17.5 29.45 17.5 22.5C17.5 18.025 21.175 14.225 26.25 12.95V7.5H33.75V12.95C38.825 14.225 42.5 18.025 42.5 22.5H37.5C37.5 19.8 34.075 17.5 30 17.5C25.925 17.5 22.5 19.8 22.5 22.5C22.5 25.25 25.1 26.25 30.6 27.575C35.9 28.9 42.5 30.55 42.5 37.5C42.5 41.975 38.825 45.775 33.75 47.05V52.5H26.25V47.05C21.175 45.775 17.5 41.975 17.5 37.5Z" fill="black" fill-opacity="0.5"/>
</svg>
