<svg width="24" height="24" viewBox="0 0 24 24" fill="none" xmlns="http://www.w3.org/2000/svg">
<path d="M17 9.00005H16.5H17ZM7 15.0001H10C10.08 14.3201 10.23 13.6401 10.5 13.0001H7V15.0001ZM11.9 10.9001C13.1224 9.68431 14.776 9.00132 16.5 9.00005H7V11.0001H11.82C11.85 10.9701 11.87 10.9401 11.9 10.9001ZM11.9 20.1001C12.26 20.4501 12.65 20.7401 13.06 21.0001H5C4.46957 21.0001 3.96086 20.7893 3.58579 20.4143C3.21071 20.0392 3 19.5305 3 19.0001V5.00005C3 3.90005 3.9 3.00005 5 3.00005H9.18C9.5 2.16005 10.14 1.50005 11 1.20005C12.53 0.640055 14.25 1.44005 14.82 3.00005H19C19.5304 3.00005 20.0391 3.21077 20.4142 3.58584C20.7893 3.96091 21 4.46962 21 5.00005V10.8201C20.4218 10.2588 19.7434 9.81105 19 9.50005V5.00005H17V7.00005H7V5.00005H5V19.0001H11.03C11.27 19.3901 11.57 19.7601 11.9 20.1001ZM11 4.00005C11 4.55005 11.45 5.00005 12 5.00005C12.55 5.00005 13 4.55005 13 4.00005C13 3.45005 12.55 3.00005 12 3.00005C11.45 3.00005 11 3.45005 11 4.00005ZM23.39 21.0001L22 22.3901L18.88 19.3201C18.19 19.7501 17.37 20.0001 16.5 20.0001C14 20.0001 12 18.0001 12 15.5001C12 13.0001 14 11.0001 16.5 11.0001C19 11.0001 21 13.0001 21 15.5001C21 16.3801 20.75 17.2101 20.31 17.9001L23.39 21.0001ZM19 15.5001C19 14.837 18.7366 14.2011 18.2678 13.7323C17.7989 13.2634 17.163 13.0001 16.5 13.0001C15.837 13.0001 15.2011 13.2634 14.7322 13.7323C14.2634 14.2011 14 14.837 14 15.5001C14 16.1631 14.2634 16.799 14.7322 17.2678C15.2011 17.7367 15.837 18.0001 16.5 18.0001C17.163 18.0001 17.7989 17.7367 18.2678 17.2678C18.7366 16.799 19 16.1631 19 15.5001Z" fill="#0045AC"/>
<path d="M17 9.00005H16.5H17ZM7 15.0001H10C10.08 14.3201 10.23 13.6401 10.5 13.0001H7V15.0001ZM11.9 10.9001C13.1224 9.68431 14.776 9.00132 16.5 9.00005H7V11.0001H11.82C11.85 10.9701 11.87 10.9401 11.9 10.9001ZM11.9 20.1001C12.26 20.4501 12.65 20.7401 13.06 21.0001H5C4.46957 21.0001 3.96086 20.7893 3.58579 20.4143C3.21071 20.0392 3 19.5305 3 19.0001V5.00005C3 3.90005 3.9 3.00005 5 3.00005H9.18C9.5 2.16005 10.14 1.50005 11 1.20005C12.53 0.640055 14.25 1.44005 14.82 3.00005H19C19.5304 3.00005 20.0391 3.21077 20.4142 3.58584C20.7893 3.96091 21 4.46962 21 5.00005V10.8201C20.4218 10.2588 19.7434 9.81105 19 9.50005V5.00005H17V7.00005H7V5.00005H5V19.0001H11.03C11.27 19.3901 11.57 19.7601 11.9 20.1001ZM11 4.00005C11 4.55005 11.45 5.00005 12 5.00005C12.55 5.00005 13 4.55005 13 4.00005C13 3.45005 12.55 3.00005 12 3.00005C11.45 3.00005 11 3.45005 11 4.00005ZM23.39 21.0001L22 22.3901L18.88 19.3201C18.19 19.7501 17.37 20.0001 16.5 20.0001C14 20.0001 12 18.0001 12 15.5001C12 13.0001 14 11.0001 16.5 11.0001C19 11.0001 21 13.0001 21 15.5001C21 16.3801 20.75 17.2101 20.31 17.9001L23.39 21.0001ZM19 15.5001C19 14.837 18.7366 14.2011 18.2678 13.7323C17.7989 13.2634 17.163 13.0001 16.5 13.0001C15.837 13.0001 15.2011 13.2634 14.7322 13.7323C14.2634 14.2011 14 14.837 14 15.5001C14 16.1631 14.2634 16.799 14.7322 17.2678C15.2011 17.7367 15.837 18.0001 16.5 18.0001C17.163 18.0001 17.7989 17.7367 18.2678 17.2678C18.7366 16.799 19 16.1631 19 15.5001Z" fill="white" fill-opacity="0.2"/>
</svg>
