<svg width="56" height="28" viewBox="0 0 56 28" fill="none" xmlns="http://www.w3.org/2000/svg">
<rect width="56" height="28" rx="2" fill="white"/>
<rect width="56" height="28" rx="2" fill="black" fill-opacity="0.04"/>
<path fill-rule="evenodd" clip-rule="evenodd" d="M24.304 24.2879L24.6857 21.9763L23.8354 21.9574H19.7754L22.597 4.89895C22.6058 4.84729 22.6342 4.79934 22.6757 4.76523C22.7174 4.73112 22.7705 4.7124 22.8261 4.7124H29.672C31.9449 4.7124 33.5133 5.16326 34.332 6.05329C34.7159 6.47082 34.9604 6.90725 35.0788 7.38735C35.2029 7.89123 35.2049 8.49316 35.0839 9.22744L35.0751 9.28085V9.7514L35.4591 9.9588C35.7823 10.1223 36.0392 10.3095 36.2363 10.5237C36.5646 10.8808 36.777 11.3346 36.8668 11.8724C36.9596 12.4256 36.9289 13.084 36.777 13.8294C36.6018 14.6867 36.3187 15.4334 35.9362 16.0443C35.5846 16.6073 35.1365 17.0743 34.6043 17.4361C34.0963 17.7799 33.4928 18.041 32.8104 18.208C32.1491 18.3721 31.3951 18.455 30.5682 18.455H30.0355C29.6546 18.455 29.2846 18.5858 28.9941 18.8203C28.7028 19.0596 28.5102 19.3867 28.4511 19.7444L28.4108 19.9526L27.7364 24.0271L27.7059 24.1766C27.6978 24.224 27.6839 24.2475 27.6634 24.2635C27.6452 24.2781 27.6191 24.2879 27.5935 24.2879H24.304Z" fill="#28356A"/>
<path fill-rule="evenodd" clip-rule="evenodd" d="M35.8204 9.33545C35.8002 9.46001 35.7767 9.58729 35.7505 9.71809C34.8477 14.1378 31.7589 15.6646 27.8142 15.6646H25.8057C25.3232 15.6646 24.9166 15.9986 24.8416 16.4523L23.5219 24.4335C23.4731 24.7316 23.7139 25 24.0291 25H27.5916C28.0133 25 28.3717 24.7078 28.4381 24.3111L28.4731 24.1386L29.1438 20.0801L29.187 19.8575C29.2526 19.4594 29.6118 19.1671 30.0335 19.1671H30.5663C34.0177 19.1671 36.7197 17.831 37.5094 13.9645C37.8392 12.3494 37.6685 11.0007 36.7955 10.0522C36.5314 9.76623 36.2037 9.52881 35.8204 9.33545Z" fill="#019DDE"/>
<path fill-rule="evenodd" clip-rule="evenodd" d="M34.8764 8.97644C34.7384 8.93804 34.5961 8.90334 34.4501 8.87196C34.3033 8.84135 34.1531 8.81426 33.9983 8.79048C33.4568 8.70705 32.8633 8.66748 32.2277 8.66748H26.862C26.7297 8.66748 26.6042 8.69594 26.492 8.7474C26.2444 8.86085 26.0606 9.08423 26.0161 9.35771L24.8745 16.2514L24.8418 16.4524C24.9168 15.9986 25.3234 15.6647 25.8059 15.6647H27.8145C31.7592 15.6647 34.848 14.1371 35.7507 9.71812C35.7777 9.58733 35.8004 9.46004 35.8206 9.33549C35.5923 9.2199 35.3449 9.12107 35.0786 9.03686C35.0127 9.01601 34.9449 8.99593 34.8764 8.97644Z" fill="#00164C"/>
<path fill-rule="evenodd" clip-rule="evenodd" d="M26.0167 9.3577C26.0612 9.08422 26.245 8.86083 26.4926 8.74817C26.6056 8.69651 26.7304 8.66805 26.8626 8.66805H32.2284C32.8639 8.66805 33.4574 8.70782 33.999 8.79124C34.1537 8.81483 34.304 8.84212 34.4508 8.87272C34.5967 8.90391 34.739 8.9388 34.877 8.97701C34.9455 8.9965 35.0134 9.01677 35.0798 9.03685C35.3462 9.12106 35.5937 9.22066 35.8221 9.33547C36.0907 7.7022 35.8198 6.59016 34.8938 5.58318C33.8726 4.47445 32.0299 4 29.6717 4H22.8257C22.344 4 21.9331 4.33391 21.8587 4.78847L19.0073 22.0223C18.9511 22.3633 19.2269 22.6708 19.5875 22.6708H23.8139L26.0167 9.3577Z" fill="#012F86"/>
</svg>
