<svg width="60" height="60" viewBox="0 0 60 60" fill="none" xmlns="http://www.w3.org/2000/svg">
<path d="M50 30C50 24.6957 47.8929 19.6086 44.1421 15.8579C40.3914 12.1071 35.3043 10 30 10C24.6957 10 19.6086 12.1071 15.8579 15.8579C12.1071 19.6086 10 24.6957 10 30C10 35.3043 12.1071 40.3914 15.8579 44.1421C19.6086 47.8929 24.6957 50 30 50C35.3043 50 40.3914 47.8929 44.1421 44.1421C47.8929 40.3914 50 35.3043 50 30ZM55 30C55 36.6304 52.3661 42.9893 47.6777 47.6777C42.9893 52.3661 36.6304 55 30 55C26.717 55 23.4661 54.3534 20.4329 53.097C17.3998 51.8406 14.6438 49.9991 12.3223 47.6777C7.63392 42.9893 5 36.6304 5 30C5 23.3696 7.63392 17.0107 12.3223 12.3223C17.0107 7.63392 23.3696 5 30 5C33.283 5 36.5339 5.64664 39.5671 6.90301C42.6002 8.15938 45.3562 10.0009 47.6777 12.3223C49.9991 14.6438 51.8406 17.3998 53.097 20.4329C54.3534 23.4661 55 26.717 55 30ZM38.75 20C40.75 20 42.5 21.75 42.5 23.75C42.5 25.75 40.75 27.5 38.75 27.5C36.75 27.5 35 25.75 35 23.75C35 21.75 36.75 20 38.75 20ZM25 23.75C25 25.75 23.25 27.5 21.25 27.5C19.25 27.5 17.5 25.75 17.5 23.75C17.5 21.75 19.25 20 21.25 20C23.25 20 25 21.75 25 23.75ZM30 35C34.375 35 38.225 36.8 40.475 39.525L36.925 43.075C35.8 41.25 33.125 40 30 40C26.875 40 24.2 41.25 23.075 43.075L19.525 39.525C21.775 36.8 25.625 35 30 35Z" fill="#808080"/>
<path d="M50 30C50 24.6957 47.8929 19.6086 44.1421 15.8579C40.3914 12.1071 35.3043 10 30 10C24.6957 10 19.6086 12.1071 15.8579 15.8579C12.1071 19.6086 10 24.6957 10 30C10 35.3043 12.1071 40.3914 15.8579 44.1421C19.6086 47.8929 24.6957 50 30 50C35.3043 50 40.3914 47.8929 44.1421 44.1421C47.8929 40.3914 50 35.3043 50 30ZM55 30C55 36.6304 52.3661 42.9893 47.6777 47.6777C42.9893 52.3661 36.6304 55 30 55C26.717 55 23.4661 54.3534 20.4329 53.097C17.3998 51.8406 14.6438 49.9991 12.3223 47.6777C7.63392 42.9893 5 36.6304 5 30C5 23.3696 7.63392 17.0107 12.3223 12.3223C17.0107 7.63392 23.3696 5 30 5C33.283 5 36.5339 5.64664 39.5671 6.90301C42.6002 8.15938 45.3562 10.0009 47.6777 12.3223C49.9991 14.6438 51.8406 17.3998 53.097 20.4329C54.3534 23.4661 55 26.717 55 30ZM38.75 20C40.75 20 42.5 21.75 42.5 23.75C42.5 25.75 40.75 27.5 38.75 27.5C36.75 27.5 35 25.75 35 23.75C35 21.75 36.75 20 38.75 20ZM25 23.75C25 25.75 23.25 27.5 21.25 27.5C19.25 27.5 17.5 25.75 17.5 23.75C17.5 21.75 19.25 20 21.25 20C23.25 20 25 21.75 25 23.75ZM30 35C34.375 35 38.225 36.8 40.475 39.525L36.925 43.075C35.8 41.25 33.125 40 30 40C26.875 40 24.2 41.25 23.075 43.075L19.525 39.525C21.775 36.8 25.625 35 30 35Z" fill="black" fill-opacity="0.5"/>
</svg>
