<svg width="16" height="16" viewBox="0 0 16 16" fill="none" xmlns="http://www.w3.org/2000/svg">
<g clip-path="url(#clip0_95_1353)">
<path d="M2.86661 14.8499C2.78861 15.2939 3.22661 15.6409 3.61261 15.4429L8.00261 13.1869L12.3916 15.4429C12.7776 15.6409 13.2156 15.2939 13.1376 14.8509L12.3076 10.1209L15.8296 6.76492C16.1596 6.45092 15.9896 5.87692 15.5476 5.81492L10.6496 5.11892L8.46561 0.791923C8.424 0.704212 8.35836 0.630106 8.27632 0.578215C8.19427 0.526325 8.09918 0.498779 8.00211 0.498779C7.90503 0.498779 7.80994 0.526325 7.7279 0.578215C7.64585 0.630106 7.58021 0.704212 7.53861 0.791923L5.35461 5.11992L0.456607 5.81592C0.0156066 5.87792 -0.155393 6.45192 0.173607 6.76592L3.69661 10.1219L2.86661 14.8519V14.8499ZM7.77161 12.0829L4.08561 13.9769L4.77961 10.0199C4.79586 9.92884 4.7895 9.83515 4.76108 9.7471C4.73266 9.65904 4.68305 9.57932 4.61661 9.51492L1.71061 6.74492L5.76261 6.16892C5.84651 6.15625 5.92609 6.12343 5.99454 6.07327C6.06298 6.02312 6.11825 5.95711 6.15561 5.88092L8.00061 2.22292L9.84761 5.88092C9.88496 5.95711 9.94023 6.02312 10.0087 6.07327C10.0771 6.12343 10.1567 6.15625 10.2406 6.16892L14.2926 6.74392L11.3866 9.51392C11.32 9.57842 11.2703 9.65831 11.2419 9.74655C11.2135 9.8348 11.2072 9.92868 11.2236 10.0199L11.9176 13.9769L8.23161 12.0829C8.16033 12.0462 8.0813 12.027 8.00111 12.027C7.92091 12.027 7.84188 12.0462 7.77061 12.0829H7.77161Z" fill="#EBB52C"/>
</g>
<defs>
<clipPath id="clip0_95_1353">
<rect width="16" height="16" fill="white"/>
</clipPath>
</defs>
</svg>
