<svg width="16" height="16" viewBox="0 0 16 16" fill="none" xmlns="http://www.w3.org/2000/svg">
<g clip-path="url(#clip0_95_1354)">
<path d="M5.35496 5.119L7.53896 0.792C7.58091 0.704954 7.64645 0.631433 7.72813 0.57981C7.80981 0.528186 7.90434 0.500533 8.00096 0.5C8.18396 0.5 8.36696 0.597 8.46596 0.792L10.65 5.119L15.548 5.815C15.6701 5.83419 15.7818 5.89491 15.8643 5.98691C15.9468 6.07891 15.9951 6.19655 16.001 6.32C16.0079 6.40219 15.9963 6.48489 15.9668 6.56194C15.9374 6.63899 15.891 6.7084 15.831 6.765L12.308 10.121L13.138 14.851C13.216 15.294 12.778 15.641 12.392 15.443L8.00096 13.187L3.61196 15.443C3.56606 15.4668 3.51685 15.4837 3.46596 15.493C3.12396 15.553 2.79796 15.239 2.86596 14.851L3.69596 10.121L0.173964 6.765C0.11921 6.7132 0.0756875 6.65069 0.0460993 6.58137C0.0165111 6.51204 0.00148853 6.43737 0.00196407 6.362C0.00201608 6.25544 0.0314254 6.15095 0.0869641 6.06C0.126363 5.99407 0.180063 5.93783 0.244102 5.89542C0.308141 5.85302 0.380884 5.82553 0.456964 5.815L5.35496 5.119ZM8.00096 12.027C8.08168 12.0267 8.16129 12.0459 8.23296 12.083L11.919 13.977L11.225 10.02C11.2086 9.929 11.2148 9.83536 11.243 9.74731C11.2713 9.65926 11.3207 9.57949 11.387 9.515L14.294 6.745L10.242 6.169C10.1581 6.15633 10.0785 6.12351 10.01 6.07335C9.94159 6.02319 9.88632 5.95719 9.84896 5.881L8.00196 2.223L8.00096 2.226V12.026V12.027Z" fill="#EBB52C"/>
</g>
<defs>
<clipPath id="clip0_95_1354">
<rect width="16" height="16" fill="white"/>
</clipPath>
</defs>
</svg>
