<svg width="76" height="12" viewBox="0 0 76 12" fill="none" xmlns="http://www.w3.org/2000/svg">
<g clip-path="url(#clip0_1106_7254)">
<path d="M2.70897 11.5821C2.41947 11.7306 2.09097 11.4704 2.14947 11.1381L2.77197 7.59064L0.129717 5.07364C-0.117033 4.83814 0.0112166 4.40764 0.341967 4.36114L4.01547 3.83914L5.65347 0.593887C5.80122 0.301387 6.20097 0.301387 6.34872 0.593887L7.98672 3.83914L11.6602 4.36114C11.991 4.40764 12.1192 4.83814 11.8717 5.07364L9.23022 7.59064L9.85272 11.1381C9.91122 11.4704 9.58272 11.7306 9.29322 11.5821L5.99997 9.89014L2.70822 11.5821H2.70897Z" fill="#EBB52C"/>
<path d="M2.70897 11.5821C2.41947 11.7306 2.09097 11.4704 2.14947 11.1381L2.77197 7.59064L0.129717 5.07364C-0.117033 4.83814 0.0112166 4.40764 0.341967 4.36114L4.01547 3.83914L5.65347 0.593887C5.80122 0.301387 6.20097 0.301387 6.34872 0.593887L7.98672 3.83914L11.6602 4.36114C11.991 4.40764 12.1192 4.83814 11.8717 5.07364L9.23022 7.59064L9.85272 11.1381C9.91122 11.4704 9.58272 11.7306 9.29322 11.5821L5.99997 9.89014L2.70822 11.5821H2.70897Z" fill="white" fill-opacity="0.2"/>
</g>
<g clip-path="url(#clip1_1106_7254)">
<path d="M18.709 11.5821C18.4195 11.7306 18.091 11.4704 18.1495 11.1381L18.772 7.59064L16.1297 5.07364C15.883 4.83814 16.0112 4.40764 16.342 4.36114L20.0155 3.83914L21.6535 0.593887C21.8012 0.301387 22.201 0.301387 22.3487 0.593887L23.9867 3.83914L27.6602 4.36114C27.991 4.40764 28.1192 4.83814 27.8717 5.07364L25.2302 7.59064L25.8527 11.1381C25.9112 11.4704 25.5827 11.7306 25.2932 11.5821L22 9.89014L18.7082 11.5821H18.709Z" fill="#EBB52C"/>
<path d="M18.709 11.5821C18.4195 11.7306 18.091 11.4704 18.1495 11.1381L18.772 7.59064L16.1297 5.07364C15.883 4.83814 16.0112 4.40764 16.342 4.36114L20.0155 3.83914L21.6535 0.593887C21.8012 0.301387 22.201 0.301387 22.3487 0.593887L23.9867 3.83914L27.6602 4.36114C27.991 4.40764 28.1192 4.83814 27.8717 5.07364L25.2302 7.59064L25.8527 11.1381C25.9112 11.4704 25.5827 11.7306 25.2932 11.5821L22 9.89014L18.7082 11.5821H18.709Z" fill="white" fill-opacity="0.2"/>
</g>
<g clip-path="url(#clip2_1106_7254)">
<path d="M34.709 11.5821C34.4195 11.7306 34.091 11.4704 34.1495 11.1381L34.772 7.59064L32.1297 5.07364C31.883 4.83814 32.0112 4.40764 32.342 4.36114L36.0155 3.83914L37.6535 0.593887C37.8012 0.301387 38.201 0.301387 38.3487 0.593887L39.9867 3.83914L43.6602 4.36114C43.991 4.40764 44.1192 4.83814 43.8717 5.07364L41.2302 7.59064L41.8527 11.1381C41.9112 11.4704 41.5827 11.7306 41.2932 11.5821L38 9.89014L34.7082 11.5821H34.709Z" fill="#EBB52C"/>
<path d="M34.709 11.5821C34.4195 11.7306 34.091 11.4704 34.1495 11.1381L34.772 7.59064L32.1297 5.07364C31.883 4.83814 32.0112 4.40764 32.342 4.36114L36.0155 3.83914L37.6535 0.593887C37.8012 0.301387 38.201 0.301387 38.3487 0.593887L39.9867 3.83914L43.6602 4.36114C43.991 4.40764 44.1192 4.83814 43.8717 5.07364L41.2302 7.59064L41.8527 11.1381C41.9112 11.4704 41.5827 11.7306 41.2932 11.5821L38 9.89014L34.7082 11.5821H34.709Z" fill="white" fill-opacity="0.2"/>
</g>
<g clip-path="url(#clip3_1106_7254)">
<path d="M50.709 11.5821C50.4195 11.7306 50.091 11.4704 50.1495 11.1381L50.772 7.59064L48.1297 5.07364C47.883 4.83814 48.0112 4.40764 48.342 4.36114L52.0155 3.83914L53.6535 0.593887C53.8012 0.301387 54.201 0.301387 54.3487 0.593887L55.9867 3.83914L59.6602 4.36114C59.991 4.40764 60.1192 4.83814 59.8717 5.07364L57.2302 7.59064L57.8527 11.1381C57.9112 11.4704 57.5827 11.7306 57.2932 11.5821L54 9.89014L50.7082 11.5821H50.709Z" fill="#EBB52C"/>
<path d="M50.709 11.5821C50.4195 11.7306 50.091 11.4704 50.1495 11.1381L50.772 7.59064L48.1297 5.07364C47.883 4.83814 48.0112 4.40764 48.342 4.36114L52.0155 3.83914L53.6535 0.593887C53.8012 0.301387 54.201 0.301387 54.3487 0.593887L55.9867 3.83914L59.6602 4.36114C59.991 4.40764 60.1192 4.83814 59.8717 5.07364L57.2302 7.59064L57.8527 11.1381C57.9112 11.4704 57.5827 11.7306 57.2932 11.5821L54 9.89014L50.7082 11.5821H50.709Z" fill="white" fill-opacity="0.2"/>
</g>
<g clip-path="url(#clip4_1106_7254)">
<path d="M68.0157 3.83925L69.6537 0.594C69.6852 0.528715 69.7343 0.473575 69.7956 0.434857C69.8569 0.396139 69.9278 0.3754 70.0002 0.375C70.1375 0.375 70.2747 0.44775 70.349 0.594L71.987 3.83925L75.6605 4.36125C75.7521 4.37564 75.8358 4.42118 75.8977 4.49018C75.9596 4.55918 75.9958 4.64741 76.0002 4.74C76.0055 4.80164 75.9967 4.86367 75.9746 4.92145C75.9526 4.97924 75.9177 5.0313 75.8727 5.07375L73.2305 7.59075L73.853 11.1383C73.9115 11.4705 73.583 11.7308 73.2935 11.5822L70.0002 9.89025L66.7085 11.5822C66.6741 11.6001 66.6371 11.6128 66.599 11.6198C66.3425 11.6648 66.098 11.4292 66.149 11.1383L66.7715 7.59075L64.13 5.07375C64.0889 5.0349 64.0563 4.98802 64.0341 4.93603C64.0119 4.88403 64.0006 4.82803 64.001 4.7715C64.001 4.69158 64.0231 4.61321 64.0647 4.545C64.0943 4.49555 64.1346 4.45337 64.1826 4.42157C64.2306 4.38976 64.2852 4.36915 64.3422 4.36125L68.0157 3.83925ZM70.0002 9.02025C70.0608 9.02 70.1205 9.03441 70.1742 9.06225L72.9387 10.4827L72.4182 7.515C72.4059 7.44675 72.4106 7.37652 72.4318 7.31048C72.453 7.24445 72.49 7.18462 72.5397 7.13625L74.72 5.05875L71.681 4.62675C71.6181 4.61725 71.5584 4.59263 71.507 4.55501C71.4557 4.5174 71.4143 4.46789 71.3862 4.41075L70.001 1.66725L70.0002 1.6695V9.0195V9.02025Z" fill="#EBB52C"/>
<path d="M68.0157 3.83925L69.6537 0.594C69.6852 0.528715 69.7343 0.473575 69.7956 0.434857C69.8569 0.396139 69.9278 0.3754 70.0002 0.375C70.1375 0.375 70.2747 0.44775 70.349 0.594L71.987 3.83925L75.6605 4.36125C75.7521 4.37564 75.8358 4.42118 75.8977 4.49018C75.9596 4.55918 75.9958 4.64741 76.0002 4.74C76.0055 4.80164 75.9967 4.86367 75.9746 4.92145C75.9526 4.97924 75.9177 5.0313 75.8727 5.07375L73.2305 7.59075L73.853 11.1383C73.9115 11.4705 73.583 11.7308 73.2935 11.5822L70.0002 9.89025L66.7085 11.5822C66.6741 11.6001 66.6371 11.6128 66.599 11.6198C66.3425 11.6648 66.098 11.4292 66.149 11.1383L66.7715 7.59075L64.13 5.07375C64.0889 5.0349 64.0563 4.98802 64.0341 4.93603C64.0119 4.88403 64.0006 4.82803 64.001 4.7715C64.001 4.69158 64.0231 4.61321 64.0647 4.545C64.0943 4.49555 64.1346 4.45337 64.1826 4.42157C64.2306 4.38976 64.2852 4.36915 64.3422 4.36125L68.0157 3.83925ZM70.0002 9.02025C70.0608 9.02 70.1205 9.03441 70.1742 9.06225L72.9387 10.4827L72.4182 7.515C72.4059 7.44675 72.4106 7.37652 72.4318 7.31048C72.453 7.24445 72.49 7.18462 72.5397 7.13625L74.72 5.05875L71.681 4.62675C71.6181 4.61725 71.5584 4.59263 71.507 4.55501C71.4557 4.5174 71.4143 4.46789 71.3862 4.41075L70.001 1.66725L70.0002 1.6695V9.0195V9.02025Z" fill="white" fill-opacity="0.2"/>
</g>
<defs>
<clipPath id="clip0_1106_7254">
<rect width="12" height="12" fill="white"/>
</clipPath>
<clipPath id="clip1_1106_7254">
<rect width="12" height="12" fill="white" transform="translate(16)"/>
</clipPath>
<clipPath id="clip2_1106_7254">
<rect width="12" height="12" fill="white" transform="translate(32)"/>
</clipPath>
<clipPath id="clip3_1106_7254">
<rect width="12" height="12" fill="white" transform="translate(48)"/>
</clipPath>
<clipPath id="clip4_1106_7254">
<rect width="12" height="12" fill="white" transform="translate(64)"/>
</clipPath>
</defs>
</svg>
