<svg width="56" height="28" viewBox="0 0 56 28" fill="none" xmlns="http://www.w3.org/2000/svg">
    <rect width="56" height="28" rx="2" fill="white"/>
    <rect width="56" height="28" rx="2" fill="black" fill-opacity="0.04"/>
    <path fill-rule="evenodd" clip-rule="evenodd" d="M37.5269 8.52264C36.8534 8.27072 35.7981 8 34.4795 8C31.1198 8 28.7524 9.68669 28.7325 12.1024C28.7141 13.8901 30.4221 14.8854 31.7123 15.4812C33.0353 16.0895 33.4808 16.4785 33.4739 17.0224C33.4654 17.8559 32.4175 18.2365 31.4402 18.2365C30.0789 18.2365 29.3563 18.0489 28.2394 17.5847L27.8008 17.3867L27.3236 20.1701C28.1187 20.5166 29.5862 20.818 31.1114 20.8333C34.6861 20.8333 37.0069 19.1664 37.0327 16.5859C37.0451 15.1714 36.1398 14.095 34.1786 13.2086C32.9891 12.633 32.2616 12.2484 32.2695 11.6664C32.2695 11.1507 32.8849 10.5969 34.2158 10.5969C35.3293 10.5795 36.1338 10.8216 36.7611 11.074L37.0665 11.2165L37.5269 8.52264ZM21.7957 20.6488L23.9217 8.2168H27.3217L25.1946 20.6488H21.7957ZM43.6198 8.22896H46.2474L48.9993 20.652H45.8437C45.8437 20.652 45.5323 19.2246 45.4305 18.7896C45.1676 18.7896 44.0703 18.7882 43.0385 18.7869L43.0368 18.7869C42.1218 18.7858 41.2587 18.7847 41.0755 18.7847C40.9434 19.1207 40.3599 20.652 40.3599 20.652H36.7886L41.8383 9.25989C42.1969 8.4497 42.8053 8.22896 43.6198 8.22896ZM42.0534 16.2418C42.335 15.5256 43.4087 12.766 43.4087 12.766C43.3988 12.7821 43.4649 12.611 43.5552 12.3773C43.6499 12.1322 43.7712 11.8183 43.8591 11.5796L44.0886 12.6516C44.0886 12.6516 44.7402 15.6187 44.8767 16.2418H42.0534ZM15.6149 16.7034L18.9434 8.22585H22.5449L17.1922 20.6335L13.5941 20.6385L10.5508 9.76506C12.7091 10.842 14.6405 12.9939 15.2598 14.9805L15.6149 16.7034Z" fill="#1A1F71"/>
    <path fill-rule="evenodd" clip-rule="evenodd" d="M12.527 8.21777H7.04321L7 8.47612C11.2661 9.50606 14.0889 11.9925 15.2605 14.9809L14.0681 9.26701C13.8625 8.47959 13.265 8.24499 12.527 8.21777Z" fill="#F9A51A"/>
</svg>
