<svg width="56" height="28" viewBox="0 0 56 28" fill="none" xmlns="http://www.w3.org/2000/svg">
<rect width="56" height="28" rx="2" fill="white"/>
<rect width="56" height="28" rx="2" fill="black" fill-opacity="0.04"/>
<path d="M21.2947 12.775C21.1572 12.6346 20.9826 12.564 20.7702 12.564C20.4581 12.564 20.2303 12.7139 20.087 13.0132C19.781 12.6537 19.3627 12.4741 18.8325 12.4741C18.1958 12.4741 17.6603 12.7199 17.2265 13.2109C16.7929 13.7021 16.5762 14.3013 16.5762 15.0081C16.5762 15.7149 16.7929 16.3139 17.2265 16.8053C17.6603 17.2966 18.1958 17.542 18.8325 17.542C19.3627 17.542 19.781 17.3624 20.087 17.0027C20.2303 17.3024 20.4581 17.452 20.7702 17.452C20.9826 17.452 21.1572 17.3818 21.2947 17.2409C21.4319 17.1005 21.5005 16.9282 21.5005 16.7243V13.2917C21.5005 13.0882 21.4319 12.9159 21.2947 12.775ZM19.7734 15.8592C19.5954 16.0886 19.3501 16.2031 19.0383 16.2031C18.726 16.2031 18.4812 16.0886 18.3034 15.8592C18.1257 15.6296 18.0366 15.346 18.0366 15.008C18.0366 14.6702 18.1257 14.3865 18.3034 14.157C18.4812 13.9276 18.726 13.813 19.0383 13.813C19.3501 13.813 19.5954 13.9276 19.7734 14.157C19.9513 14.3865 20.0402 14.6702 20.0402 15.008C20.0402 15.3459 19.9513 15.6296 19.7734 15.8592Z" fill="#0FA8E0"/>
<path d="M23.1531 17.2411C23.0157 17.3821 22.8408 17.4522 22.629 17.4522C22.4165 17.4522 22.2417 17.3821 22.1045 17.2411C21.967 17.1005 21.8984 16.9281 21.8984 16.7244V10.5817C21.8984 10.3782 21.967 10.2057 22.1045 10.065C22.2417 9.9242 22.4165 9.854 22.629 9.854C22.8408 9.854 23.0157 9.9242 23.1531 10.065C23.2904 10.2057 23.359 10.3782 23.359 10.5817V16.7245C23.359 16.9281 23.2904 17.1005 23.1531 17.2411Z" fill="#0FA8E0"/>
<path d="M27.9926 13.2109C27.5247 12.7199 26.9286 12.4741 26.2043 12.4741C25.4803 12.4741 24.8892 12.7168 24.4305 13.202C23.9715 13.6872 23.7422 14.2891 23.7422 15.008C23.7422 15.7268 23.9715 16.3288 24.4305 16.814C24.8892 17.2992 25.4803 17.542 26.2043 17.542C26.9286 17.542 27.5247 17.2965 27.9926 16.8053C28.4421 16.3259 28.6668 15.7269 28.6668 15.0081C28.6668 14.2891 28.4422 13.6902 27.9926 13.2109ZM26.9395 15.8592C26.7615 16.0886 26.5165 16.2031 26.2043 16.2031C25.8921 16.2031 25.6473 16.0886 25.4696 15.8592C25.2916 15.6296 25.2026 15.346 25.2026 15.008C25.2026 14.6702 25.2916 14.3865 25.4696 14.157C25.6473 13.9276 25.8921 13.813 26.2043 13.813C26.5165 13.813 26.7615 13.9276 26.9395 14.157C27.1174 14.3865 27.206 14.6702 27.206 15.008C27.206 15.3459 27.1175 15.6296 26.9395 15.8592Z" fill="#0FA8E0"/>
<path d="M15.7673 12.6444C16.2831 11.9787 16.5413 11.5303 16.5413 11.2995C16.5413 10.7655 16.2053 10.4985 15.5331 10.4985H11.9879C11.7094 10.4985 11.494 10.5644 11.3411 10.6959C11.1884 10.8278 11.1119 10.9987 11.1119 11.2092C11.1119 11.42 11.1884 11.5911 11.3411 11.7227C11.494 11.8543 11.7094 11.9201 11.9879 11.9201H14.4227L11.3055 15.9477C11.1018 16.2113 11 16.4448 11 16.6489C11 17.2344 11.3872 17.5273 12.1612 17.5273H15.8181C16.4024 17.5273 16.6943 17.282 16.6943 16.7916C16.6943 16.3014 16.4024 16.0561 15.8181 16.0561H13.129L15.7673 12.6444Z" fill="#0FA8E0"/>
<path d="M33.3495 11.9062H32.3711V13.9399H33.3495C33.6435 13.9399 33.8818 13.8439 34.0641 13.6521C34.2463 13.4603 34.3374 13.2173 34.3374 12.923C34.3374 12.629 34.2462 12.3859 34.0641 12.194C33.8819 12.0022 33.6434 11.9062 33.3495 11.9062Z" fill="#32B34A"/>
<path d="M38.2306 13.8188C37.9201 13.8188 37.6766 13.9327 37.4997 14.161C37.3229 14.3893 37.2344 14.6712 37.2344 15.0072C37.2344 15.3434 37.3229 15.6255 37.4997 15.8539C37.6766 16.0818 37.9201 16.1958 38.2306 16.1958C38.5408 16.1958 38.7847 16.0818 38.9617 15.8539C39.1388 15.6255 39.2271 15.3434 39.2271 15.0072C39.2271 14.6712 39.1388 14.3893 38.9617 14.161C38.7847 13.9326 38.5408 13.8188 38.2306 13.8188Z" fill="#32B34A"/>
<path d="M45.1428 9H30.9585C30.4851 9 30.1016 9.38366 30.1016 9.85689V18.1686C30.1016 18.6418 30.4852 19.0254 30.9585 19.0254H42.156C42.0379 18.9135 41.9786 18.7825 41.9786 18.6323C41.9786 18.5097 42.0061 18.3811 42.0612 18.2466L42.5894 17.072L41.1289 13.4255C41.0861 13.3215 41.0647 13.2082 41.0647 13.0856C41.0647 12.9265 41.132 12.7917 41.2668 12.6815C41.4015 12.5713 41.5423 12.5162 41.6894 12.5162C42.0138 12.5162 42.2344 12.6723 42.3507 12.9846L43.2599 15.4738L44.2336 12.9846C44.356 12.6723 44.5763 12.5162 44.8949 12.5162C45.0418 12.5162 45.1826 12.5713 45.3174 12.6815C45.452 12.7917 45.5196 12.9265 45.5196 13.0856C45.5196 13.2082 45.4979 13.3215 45.4552 13.4255L43.2921 18.6782C43.233 18.825 43.1616 18.9405 43.0787 19.0254H45.1429C45.6162 19.0254 45.9998 18.6418 45.9998 18.1686V9.85689C45.9996 9.38366 45.6161 9 45.1428 9ZM35.1243 14.5922C34.6765 15.0016 34.1138 15.2062 33.4361 15.2062H32.3714V16.7793C32.3714 17.016 32.3042 17.1998 32.1698 17.3307C32.0355 17.4619 31.8628 17.5274 31.6521 17.5274C31.4409 17.5274 31.2682 17.4619 31.134 17.3307C30.9996 17.1998 30.9326 17.016 30.9326 16.7793V11.3884C30.9326 10.8896 31.1819 10.6402 31.6807 10.6402H33.3787C34.0884 10.6402 34.6751 10.8529 35.1389 11.278C35.6024 11.7034 35.8342 12.255 35.8342 12.9328C35.834 13.6171 35.5973 14.17 35.1243 14.5922ZM40.68 16.7142C40.68 16.9169 40.6118 17.0882 40.4754 17.228C40.3386 17.368 40.1648 17.4379 39.9538 17.4379C39.6433 17.4379 39.4167 17.2893 39.2742 16.991C38.9697 17.3488 38.5538 17.5273 38.0264 17.5273C37.3933 17.5273 36.8606 17.2833 36.4294 16.7946C35.998 16.3061 35.7824 15.7101 35.7824 15.0071C35.7824 14.3043 35.9981 13.7083 36.4294 13.2199C36.8608 12.7316 37.3934 12.4872 38.0264 12.4872C38.5538 12.4872 38.9697 12.6657 39.2742 13.0233C39.4167 12.7256 39.6433 12.5765 39.9538 12.5765C40.1648 12.5765 40.3385 12.6467 40.4754 12.7864C40.6118 12.9267 40.68 13.0979 40.68 13.3003V16.7142Z" fill="#32B34A"/>
</svg>
