<svg width="24" height="24" viewBox="0 0 24 24">
    <path d="M13.0008 2.03003V4.05003C17.3908 4.59003 20.5008 8.58003 19.9608 12.97C19.5008 16.61 16.6408 19.5 13.0008 19.93V21.93C18.5008 21.38 22.5008 16.5 21.9508 11C21.5008 6.25003 17.7308 2.50003 13.0008 2.03003ZM11.0008 2.06003C9.05078 2.25003 7.19078 3.00003 5.67078 4.26003L7.10078 5.74003C8.22078 4.84003 9.57078 4.26003 11.0008 4.06003V2.06003ZM4.26078 5.67003C3.01044 7.18737 2.24098 9.04311 2.05078 11H4.05078C4.24078 9.58003 4.80078 8.23003 5.69078 7.10003L4.26078 5.67003ZM2.06078 13C2.26078 14.96 3.03078 16.81 4.27078 18.33L5.69078 16.9C4.80771 15.7696 4.24474 14.4226 4.06078 13H2.06078ZM7.10078 18.37L5.67078 19.74C7.18556 21.0027 9.04005 21.7891 11.0008 22V20C9.57818 19.8161 8.23119 19.2531 7.10078 18.37ZM12.5008 7.00003V12.25L17.0008 14.92L16.2508 16.15L11.0008 13V7.00003H12.5008Z"/>
</svg>
