<svg viewBox="0 0 1636 182" fill="none" xmlns="http://www.w3.org/2000/svg">
    <path d="M1 10.6231L137.167 76.0874L273.333 110L409.5 61.5903L545.667 56.761L681.833 32.9709L818 67.1051L954.167 27.2192L1090.33 41.5673L1226.5 98.6655L1362.67 108.739L1498.83 45.2677L1635 2" stroke="#DD9C3A" stroke-width="4"/>
    <path d="M18.8848 138.377H20.1084V152.281H18.8848V138.377Z" fill="#6CD11C"/>
    <path d="M10.0586 173.385C9.84375 173.385 9.65625 173.371 9.49609 173.344C9.33203 173.32 9.19141 173.287 9.07422 173.244V172.066C9.19922 172.098 9.33398 172.125 9.47852 172.148C9.62305 172.172 9.77734 172.184 9.94141 172.184C10.1562 172.184 10.3516 172.143 10.5273 172.061C10.7031 171.979 10.8418 171.83 10.9434 171.615C11.0488 171.4 11.1016 171.098 11.1016 170.707V162.434H12.5078V170.66C12.5078 171.297 12.4062 171.814 12.2031 172.213C12 172.615 11.7148 172.91 11.3477 173.098C10.9805 173.289 10.5508 173.385 10.0586 173.385ZM17.173 164.391C17.9933 164.391 18.6125 164.572 19.0304 164.936C19.4523 165.299 19.6632 165.865 19.6632 166.635V171H18.6847L18.421 170.08H18.3742C18.1906 170.314 18.0011 170.508 17.8058 170.66C17.6105 170.812 17.3839 170.926 17.1261 171C16.8722 171.078 16.5617 171.117 16.1945 171.117C15.8078 171.117 15.4621 171.047 15.1574 170.906C14.8527 170.762 14.6125 170.543 14.4367 170.25C14.2609 169.957 14.173 169.586 14.173 169.137C14.173 168.469 14.421 167.967 14.9171 167.631C15.4171 167.295 16.171 167.109 17.1789 167.074L18.3039 167.033V166.693C18.3039 166.244 18.1984 165.924 17.9875 165.732C17.7804 165.541 17.4875 165.445 17.1085 165.445C16.7843 165.445 16.4699 165.492 16.1652 165.586C15.8605 165.68 15.5636 165.795 15.2746 165.932L14.8293 164.959C15.1457 164.791 15.505 164.654 15.9074 164.549C16.3136 164.443 16.7355 164.391 17.173 164.391ZM18.298 167.9L17.4601 167.93C16.7726 167.953 16.2902 168.07 16.0128 168.281C15.7355 168.492 15.5968 168.781 15.5968 169.148C15.5968 169.469 15.6925 169.703 15.8839 169.852C16.0753 169.996 16.3273 170.068 16.6398 170.068C17.1164 170.068 17.5109 169.934 17.8234 169.664C18.1398 169.391 18.298 168.99 18.298 168.463V167.9ZM25.0198 164.391C25.7503 164.391 26.3187 164.58 26.7249 164.959C27.1351 165.334 27.3401 165.938 27.3401 166.77V171H25.9632V167.027C25.9632 166.523 25.8597 166.146 25.6526 165.896C25.4456 165.643 25.1253 165.516 24.6917 165.516C24.0628 165.516 23.6253 165.709 23.3792 166.096C23.137 166.482 23.0159 167.043 23.0159 167.777V171H21.639V164.514H22.7112L22.9046 165.393H22.9808C23.1214 165.166 23.2952 164.98 23.5022 164.836C23.7132 164.688 23.9476 164.576 24.2054 164.502C24.4671 164.428 24.7386 164.391 25.0198 164.391Z" fill="white"/>
    <path d="M86.8848 138.377H88.1084V152.281H86.8848V138.377Z" fill="#DA4444"/>
    <path d="M79.5195 171H78.125V162.434H82.9648V163.617H79.5195V166.289H82.7422V167.467H79.5195V171ZM87.0148 164.391C87.5929 164.391 88.089 164.51 88.5031 164.748C88.9171 164.986 89.2355 165.324 89.4582 165.762C89.6808 166.199 89.7921 166.723 89.7921 167.332V168.07H85.4621C85.4777 168.699 85.6457 169.184 85.966 169.523C86.2902 169.863 86.7433 170.033 87.3253 170.033C87.7394 170.033 88.1105 169.994 88.4386 169.916C88.7707 169.834 89.1125 169.715 89.464 169.559V170.678C89.1398 170.83 88.8097 170.941 88.4738 171.012C88.1378 171.082 87.7355 171.117 87.2667 171.117C86.63 171.117 86.0695 170.994 85.5851 170.748C85.1046 170.498 84.7277 170.127 84.4542 169.635C84.1847 169.143 84.05 168.531 84.05 167.801C84.05 167.074 84.173 166.457 84.4191 165.949C84.6652 165.441 85.0109 165.055 85.4562 164.789C85.9015 164.523 86.421 164.391 87.0148 164.391ZM87.0148 165.428C86.5812 165.428 86.2296 165.568 85.9601 165.85C85.6945 166.131 85.5382 166.543 85.4914 167.086H88.4445C88.4406 166.762 88.3859 166.475 88.2804 166.225C88.1789 165.975 88.0226 165.779 87.8117 165.639C87.6046 165.498 87.339 165.428 87.0148 165.428ZM92.7698 161.883V164.08C92.7698 164.334 92.762 164.584 92.7464 164.83C92.7347 165.072 92.723 165.262 92.7112 165.398H92.7698C92.9456 165.117 93.1897 164.881 93.5022 164.689C93.8187 164.494 94.223 164.396 94.7151 164.396C95.4847 164.396 96.1038 164.68 96.5726 165.246C97.0413 165.809 97.2757 166.643 97.2757 167.748C97.2757 168.482 97.1683 169.1 96.9534 169.6C96.7386 170.1 96.4358 170.479 96.0452 170.736C95.6585 170.99 95.2034 171.117 94.68 171.117C94.1878 171.117 93.7894 171.027 93.4847 170.848C93.1839 170.664 92.9476 170.451 92.7757 170.209H92.6761L92.4241 171H91.3929V161.883H92.7698ZM94.3519 165.516C93.9612 165.516 93.6507 165.594 93.4202 165.75C93.1937 165.906 93.0296 166.141 92.928 166.453C92.8265 166.762 92.7737 167.154 92.7698 167.631V167.754C92.7698 168.477 92.8831 169.029 93.1097 169.412C93.3401 169.795 93.7581 169.986 94.3636 169.986C94.844 169.986 95.2132 169.793 95.471 169.406C95.7288 169.016 95.8577 168.457 95.8577 167.73C95.8577 166.996 95.7288 166.443 95.471 166.072C95.2171 165.701 94.844 165.516 94.3519 165.516Z" fill="white"/>
    <path d="M157.385 138.377H158.608V152.281H157.385V138.377Z" fill="#DA4444"/>
    <path d="M150.822 171L148.355 163.846H148.303C148.314 164.006 148.328 164.225 148.344 164.502C148.359 164.779 148.373 165.076 148.385 165.393C148.396 165.709 148.402 166.012 148.402 166.301V171H147.125V162.434H149.1L151.473 169.271H151.508L153.963 162.434H155.932V171H154.59V166.23C154.59 165.969 154.594 165.686 154.602 165.381C154.613 165.076 154.625 164.787 154.637 164.514C154.652 164.24 154.664 164.021 154.672 163.857H154.625L152.064 171H150.822ZM160.638 164.391C161.458 164.391 162.077 164.572 162.495 164.936C162.917 165.299 163.128 165.865 163.128 166.635V171H162.15L161.886 170.08H161.839C161.655 170.314 161.466 170.508 161.271 170.66C161.075 170.812 160.849 170.926 160.591 171C160.337 171.078 160.027 171.117 159.659 171.117C159.273 171.117 158.927 171.047 158.622 170.906C158.318 170.762 158.077 170.543 157.902 170.25C157.726 169.957 157.638 169.586 157.638 169.137C157.638 168.469 157.886 167.967 158.382 167.631C158.882 167.295 159.636 167.109 160.644 167.074L161.769 167.033V166.693C161.769 166.244 161.663 165.924 161.452 165.732C161.245 165.541 160.952 165.445 160.573 165.445C160.249 165.445 159.935 165.492 159.63 165.586C159.325 165.68 159.028 165.795 158.739 165.932L158.294 164.959C158.611 164.791 158.97 164.654 159.372 164.549C159.778 164.443 160.2 164.391 160.638 164.391ZM161.763 167.9L160.925 167.93C160.237 167.953 159.755 168.07 159.478 168.281C159.2 168.492 159.062 168.781 159.062 169.148C159.062 169.469 159.157 169.703 159.349 169.852C159.54 169.996 159.792 170.068 160.105 170.068C160.581 170.068 160.976 169.934 161.288 169.664C161.605 169.391 161.763 168.99 161.763 168.463V167.9ZM168.391 164.391C168.5 164.391 168.619 164.396 168.748 164.408C168.877 164.42 168.989 164.436 169.082 164.455L168.953 165.744C168.871 165.721 168.77 165.703 168.649 165.691C168.532 165.68 168.426 165.674 168.332 165.674C168.086 165.674 167.852 165.715 167.629 165.797C167.407 165.875 167.209 165.996 167.037 166.16C166.866 166.32 166.731 166.521 166.633 166.764C166.535 167.006 166.487 167.287 166.487 167.607V171H165.104V164.514H166.182L166.369 165.656H166.434C166.563 165.426 166.723 165.215 166.914 165.023C167.106 164.832 167.325 164.68 167.571 164.566C167.821 164.449 168.094 164.391 168.391 164.391Z" fill="white"/>
    <path d="M227.885 138.377H229.108V152.281H227.885V138.377Z" fill="#DA4444"/>
    <path d="M224.434 171L223.596 168.621H220.32L219.482 171H218L221.188 162.398H222.746L225.928 171H224.434ZM223.232 167.414L222.418 165.07C222.387 164.969 222.342 164.826 222.283 164.643C222.225 164.455 222.166 164.266 222.107 164.074C222.049 163.879 222 163.715 221.961 163.582C221.922 163.742 221.873 163.922 221.814 164.121C221.76 164.316 221.705 164.5 221.65 164.672C221.6 164.844 221.561 164.977 221.533 165.07L220.713 167.414H223.232ZM230.294 164.391C231.064 164.391 231.681 164.672 232.146 165.234C232.614 165.797 232.849 166.633 232.849 167.742C232.849 168.477 232.739 169.096 232.521 169.6C232.306 170.1 232.003 170.479 231.612 170.736C231.226 170.99 230.775 171.117 230.259 171.117C229.931 171.117 229.646 171.074 229.403 170.988C229.161 170.902 228.954 170.791 228.782 170.654C228.61 170.514 228.466 170.361 228.349 170.197H228.267C228.286 170.354 228.304 170.527 228.319 170.719C228.339 170.906 228.349 171.078 228.349 171.234V173.877H226.966V164.514H228.091L228.284 165.41H228.349C228.47 165.227 228.616 165.057 228.788 164.9C228.964 164.744 229.175 164.621 229.421 164.531C229.671 164.438 229.962 164.391 230.294 164.391ZM229.925 165.516C229.546 165.516 229.241 165.592 229.011 165.744C228.784 165.893 228.618 166.117 228.513 166.418C228.411 166.719 228.357 167.096 228.349 167.549V167.742C228.349 168.223 228.398 168.631 228.495 168.967C228.597 169.299 228.763 169.553 228.993 169.729C229.228 169.9 229.544 169.986 229.943 169.986C230.278 169.986 230.556 169.895 230.775 169.711C230.997 169.527 231.163 169.266 231.273 168.926C231.382 168.586 231.437 168.186 231.437 167.725C231.437 167.025 231.312 166.482 231.062 166.096C230.816 165.709 230.437 165.516 229.925 165.516ZM237.778 164.391C237.887 164.391 238.006 164.396 238.135 164.408C238.264 164.42 238.375 164.436 238.469 164.455L238.34 165.744C238.258 165.721 238.157 165.703 238.035 165.691C237.918 165.68 237.813 165.674 237.719 165.674C237.473 165.674 237.239 165.715 237.016 165.797C236.793 165.875 236.596 165.996 236.424 166.16C236.252 166.32 236.117 166.521 236.02 166.764C235.922 167.006 235.873 167.287 235.873 167.607V171H234.491V164.514H235.569L235.756 165.656H235.821C235.95 165.426 236.11 165.215 236.301 165.023C236.492 164.832 236.711 164.68 236.957 164.566C237.207 164.449 237.481 164.391 237.778 164.391Z" fill="white"/>
    <path d="M298.867 138.377H300.091V152.281H298.867V138.377Z" fill="#6CD11C"/>
    <path d="M291.822 171L289.355 163.846H289.303C289.314 164.006 289.328 164.225 289.344 164.502C289.359 164.779 289.373 165.076 289.385 165.393C289.396 165.709 289.402 166.012 289.402 166.301V171H288.125V162.434H290.1L292.473 169.271H292.508L294.963 162.434H296.932V171H295.59V166.23C295.59 165.969 295.594 165.686 295.602 165.381C295.613 165.076 295.625 164.787 295.637 164.514C295.652 164.24 295.664 164.021 295.672 163.857H295.625L293.064 171H291.822ZM301.638 164.391C302.458 164.391 303.077 164.572 303.495 164.936C303.917 165.299 304.128 165.865 304.128 166.635V171H303.15L302.886 170.08H302.839C302.655 170.314 302.466 170.508 302.271 170.66C302.075 170.812 301.849 170.926 301.591 171C301.337 171.078 301.027 171.117 300.659 171.117C300.273 171.117 299.927 171.047 299.622 170.906C299.318 170.762 299.077 170.543 298.902 170.25C298.726 169.957 298.638 169.586 298.638 169.137C298.638 168.469 298.886 167.967 299.382 167.631C299.882 167.295 300.636 167.109 301.644 167.074L302.769 167.033V166.693C302.769 166.244 302.663 165.924 302.452 165.732C302.245 165.541 301.952 165.445 301.573 165.445C301.249 165.445 300.935 165.492 300.63 165.586C300.325 165.68 300.028 165.795 299.739 165.932L299.294 164.959C299.611 164.791 299.97 164.654 300.372 164.549C300.778 164.443 301.2 164.391 301.638 164.391ZM302.763 167.9L301.925 167.93C301.237 167.953 300.755 168.07 300.478 168.281C300.2 168.492 300.062 168.781 300.062 169.148C300.062 169.469 300.157 169.703 300.349 169.852C300.54 169.996 300.792 170.068 301.105 170.068C301.581 170.068 301.976 169.934 302.288 169.664C302.605 169.391 302.763 168.99 302.763 168.463V167.9ZM305.125 164.514H306.625L307.955 168.217C308.014 168.385 308.067 168.551 308.114 168.715C308.164 168.875 308.207 169.033 308.242 169.189C308.282 169.346 308.313 169.502 308.336 169.658H308.371C308.41 169.455 308.465 169.229 308.535 168.979C308.61 168.725 308.692 168.471 308.782 168.217L310.059 164.514H311.541L308.758 171.891C308.598 172.312 308.401 172.672 308.166 172.969C307.936 173.27 307.662 173.496 307.346 173.648C307.03 173.805 306.668 173.883 306.262 173.883C306.067 173.883 305.897 173.871 305.752 173.848C305.608 173.828 305.485 173.807 305.383 173.783V172.682C305.465 172.701 305.569 172.719 305.694 172.734C305.819 172.75 305.948 172.758 306.08 172.758C306.326 172.758 306.539 172.709 306.719 172.611C306.899 172.514 307.051 172.375 307.176 172.195C307.301 172.02 307.405 171.818 307.487 171.592L307.715 170.982L305.125 164.514Z" fill="white"/>
    <path d="M368.885 138.377H370.108V152.281H368.885V138.377Z" fill="#6CD11C"/>
    <path d="M360.059 173.385C359.844 173.385 359.656 173.371 359.496 173.344C359.332 173.32 359.191 173.287 359.074 173.244V172.066C359.199 172.098 359.334 172.125 359.479 172.148C359.623 172.172 359.777 172.184 359.941 172.184C360.156 172.184 360.352 172.143 360.527 172.061C360.703 171.979 360.842 171.83 360.943 171.615C361.049 171.4 361.102 171.098 361.102 170.707V162.434H362.508V170.66C362.508 171.297 362.406 171.814 362.203 172.213C362 172.615 361.715 172.91 361.348 173.098C360.98 173.289 360.551 173.385 360.059 173.385ZM370.284 164.514V171H369.2L369.013 170.127H368.937C368.8 170.35 368.626 170.535 368.415 170.684C368.204 170.828 367.97 170.936 367.712 171.006C367.454 171.08 367.183 171.117 366.898 171.117C366.409 171.117 365.991 171.035 365.644 170.871C365.3 170.703 365.036 170.445 364.853 170.098C364.669 169.75 364.577 169.301 364.577 168.75V164.514H365.96V168.492C365.96 168.996 366.062 169.373 366.265 169.623C366.472 169.873 366.792 169.998 367.226 169.998C367.644 169.998 367.976 169.912 368.222 169.74C368.468 169.568 368.642 169.314 368.743 168.979C368.849 168.643 368.902 168.23 368.902 167.742V164.514H370.284ZM375.688 164.391C376.418 164.391 376.987 164.58 377.393 164.959C377.803 165.334 378.008 165.938 378.008 166.77V171H376.631V167.027C376.631 166.523 376.528 166.146 376.321 165.896C376.114 165.643 375.793 165.516 375.36 165.516C374.731 165.516 374.293 165.709 374.047 166.096C373.805 166.482 373.684 167.043 373.684 167.777V171H372.307V164.514H373.379L373.573 165.393H373.649C373.789 165.166 373.963 164.98 374.17 164.836C374.381 164.688 374.616 164.576 374.873 164.502C375.135 164.428 375.407 164.391 375.688 164.391Z" fill="white"/>
    <path d="M433.885 138.377H435.108V152.281H433.885V138.377Z" fill="#6CD11C"/>
    <path d="M427.059 173.385C426.844 173.385 426.656 173.371 426.496 173.344C426.332 173.32 426.191 173.287 426.074 173.244V172.066C426.199 172.098 426.334 172.125 426.479 172.148C426.623 172.172 426.777 172.184 426.941 172.184C427.156 172.184 427.352 172.143 427.527 172.061C427.703 171.979 427.842 171.83 427.943 171.615C428.049 171.4 428.102 171.098 428.102 170.707V162.434H429.508V170.66C429.508 171.297 429.406 171.814 429.203 172.213C429 172.615 428.715 172.91 428.348 173.098C427.98 173.289 427.551 173.385 427.059 173.385ZM437.284 164.514V171H436.2L436.013 170.127H435.937C435.8 170.35 435.626 170.535 435.415 170.684C435.204 170.828 434.97 170.936 434.712 171.006C434.454 171.08 434.183 171.117 433.898 171.117C433.409 171.117 432.991 171.035 432.644 170.871C432.3 170.703 432.036 170.445 431.853 170.098C431.669 169.75 431.577 169.301 431.577 168.75V164.514H432.96V168.492C432.96 168.996 433.062 169.373 433.265 169.623C433.472 169.873 433.792 169.998 434.226 169.998C434.644 169.998 434.976 169.912 435.222 169.74C435.468 169.568 435.642 169.314 435.743 168.979C435.849 168.643 435.902 168.23 435.902 167.742V164.514H437.284ZM440.69 171H439.307V161.883H440.69V171Z" fill="white"/>
    <path d="M500.867 138.377H502.091V152.281H500.867V138.377Z" fill="#6CD11C"/>
    <path d="M496.434 171L495.596 168.621H492.32L491.482 171H490L493.188 162.398H494.746L497.928 171H496.434ZM495.232 167.414L494.418 165.07C494.387 164.969 494.342 164.826 494.283 164.643C494.225 164.455 494.166 164.266 494.107 164.074C494.049 163.879 494 163.715 493.961 163.582C493.922 163.742 493.873 163.922 493.814 164.121C493.76 164.316 493.705 164.5 493.65 164.672C493.6 164.844 493.561 164.977 493.533 165.07L492.713 167.414H495.232ZM504.62 164.514V171H503.536L503.349 170.127H503.273C503.136 170.35 502.962 170.535 502.751 170.684C502.54 170.828 502.306 170.936 502.048 171.006C501.79 171.08 501.519 171.117 501.234 171.117C500.745 171.117 500.327 171.035 499.98 170.871C499.636 170.703 499.372 170.445 499.189 170.098C499.005 169.75 498.913 169.301 498.913 168.75V164.514H500.296V168.492C500.296 168.996 500.398 169.373 500.601 169.623C500.808 169.873 501.128 169.998 501.562 169.998C501.98 169.998 502.312 169.912 502.558 169.74C502.804 169.568 502.978 169.314 503.079 168.979C503.185 168.643 503.237 168.23 503.237 167.742V164.514H504.62ZM508.494 173.883C507.616 173.883 506.942 173.725 506.473 173.408C506.004 173.092 505.77 172.648 505.77 172.078C505.77 171.68 505.895 171.342 506.145 171.064C506.395 170.791 506.752 170.602 507.217 170.496C507.041 170.418 506.889 170.297 506.76 170.133C506.635 169.965 506.573 169.779 506.573 169.576C506.573 169.334 506.641 169.127 506.778 168.955C506.914 168.783 507.119 168.617 507.393 168.457C507.053 168.312 506.78 168.078 506.573 167.754C506.369 167.426 506.268 167.041 506.268 166.6C506.268 166.131 506.367 165.732 506.567 165.404C506.766 165.072 507.057 164.82 507.44 164.648C507.823 164.473 508.285 164.385 508.828 164.385C508.946 164.385 509.073 164.393 509.209 164.408C509.35 164.42 509.479 164.436 509.596 164.455C509.717 164.471 509.809 164.488 509.871 164.508H512.116V165.275L511.014 165.48C511.119 165.629 511.203 165.799 511.266 165.99C511.328 166.178 511.36 166.383 511.36 166.605C511.36 167.277 511.127 167.807 510.662 168.193C510.201 168.576 509.565 168.768 508.752 168.768C508.557 168.76 508.367 168.744 508.184 168.721C508.043 168.807 507.936 168.902 507.862 169.008C507.787 169.109 507.75 169.225 507.75 169.354C507.75 169.459 507.787 169.545 507.862 169.611C507.936 169.674 508.045 169.721 508.19 169.752C508.338 169.783 508.518 169.799 508.729 169.799H509.848C510.559 169.799 511.102 169.949 511.477 170.25C511.852 170.551 512.039 170.992 512.039 171.574C512.039 172.312 511.735 172.881 511.125 173.279C510.516 173.682 509.639 173.883 508.494 173.883ZM508.547 172.916C509.028 172.916 509.432 172.869 509.76 172.775C510.088 172.682 510.336 172.547 510.504 172.371C510.672 172.199 510.756 171.994 510.756 171.756C510.756 171.545 510.703 171.383 510.598 171.27C510.492 171.156 510.334 171.078 510.123 171.035C509.912 170.992 509.651 170.971 509.338 170.971H508.319C508.065 170.971 507.84 171.01 507.645 171.088C507.45 171.17 507.297 171.287 507.188 171.439C507.082 171.592 507.03 171.775 507.03 171.99C507.03 172.287 507.16 172.516 507.422 172.676C507.688 172.836 508.063 172.916 508.547 172.916ZM508.817 167.865C509.219 167.865 509.518 167.756 509.713 167.537C509.908 167.314 510.006 167.002 510.006 166.6C510.006 166.162 509.905 165.834 509.701 165.615C509.502 165.396 509.205 165.287 508.811 165.287C508.424 165.287 508.129 165.398 507.926 165.621C507.727 165.844 507.627 166.174 507.627 166.611C507.627 167.006 507.727 167.314 507.926 167.537C508.129 167.756 508.426 167.865 508.817 167.865Z" fill="white"/>
    <path d="M571.385 138.377H572.608V152.281H571.385V138.377Z" fill="#6CD11C"/>
    <path d="M567.07 168.668C567.07 169.176 566.945 169.613 566.695 169.98C566.449 170.348 566.094 170.629 565.629 170.824C565.168 171.02 564.617 171.117 563.977 171.117C563.664 171.117 563.365 171.1 563.08 171.064C562.795 171.029 562.525 170.979 562.271 170.912C562.021 170.842 561.793 170.758 561.586 170.66V169.336C561.934 169.488 562.322 169.627 562.752 169.752C563.182 169.873 563.619 169.934 564.064 169.934C564.428 169.934 564.729 169.887 564.967 169.793C565.209 169.695 565.389 169.559 565.506 169.383C565.623 169.203 565.682 168.994 565.682 168.756C565.682 168.502 565.613 168.287 565.477 168.111C565.34 167.936 565.133 167.775 564.855 167.631C564.582 167.482 564.238 167.324 563.824 167.156C563.543 167.043 563.273 166.914 563.016 166.77C562.762 166.625 562.535 166.455 562.336 166.26C562.137 166.064 561.979 165.834 561.861 165.568C561.748 165.299 561.691 164.982 561.691 164.619C561.691 164.135 561.807 163.721 562.037 163.377C562.271 163.033 562.6 162.77 563.021 162.586C563.447 162.402 563.943 162.311 564.51 162.311C564.959 162.311 565.381 162.357 565.775 162.451C566.174 162.545 566.564 162.678 566.947 162.85L566.502 163.98C566.15 163.836 565.809 163.721 565.477 163.635C565.148 163.549 564.812 163.506 564.469 163.506C564.172 163.506 563.92 163.551 563.713 163.641C563.506 163.73 563.348 163.857 563.238 164.021C563.133 164.182 563.08 164.373 563.08 164.596C563.08 164.846 563.141 165.057 563.262 165.229C563.387 165.396 563.578 165.551 563.836 165.691C564.098 165.832 564.434 165.988 564.844 166.16C565.316 166.355 565.717 166.561 566.045 166.775C566.377 166.99 566.631 167.248 566.807 167.549C566.982 167.846 567.07 168.219 567.07 168.668ZM571.214 164.391C571.792 164.391 572.288 164.51 572.702 164.748C573.116 164.986 573.435 165.324 573.657 165.762C573.88 166.199 573.991 166.723 573.991 167.332V168.07H569.661C569.677 168.699 569.845 169.184 570.165 169.523C570.489 169.863 570.943 170.033 571.525 170.033C571.939 170.033 572.31 169.994 572.638 169.916C572.97 169.834 573.312 169.715 573.663 169.559V170.678C573.339 170.83 573.009 170.941 572.673 171.012C572.337 171.082 571.935 171.117 571.466 171.117C570.829 171.117 570.269 170.994 569.784 170.748C569.304 170.498 568.927 170.127 568.653 169.635C568.384 169.143 568.249 168.531 568.249 167.801C568.249 167.074 568.372 166.457 568.618 165.949C568.864 165.441 569.21 165.055 569.655 164.789C570.101 164.523 570.62 164.391 571.214 164.391ZM571.214 165.428C570.78 165.428 570.429 165.568 570.159 165.85C569.894 166.131 569.737 166.543 569.691 167.086H572.644C572.64 166.762 572.585 166.475 572.48 166.225C572.378 165.975 572.222 165.779 572.011 165.639C571.804 165.498 571.538 165.428 571.214 165.428ZM578.92 164.391C579.69 164.391 580.307 164.672 580.772 165.234C581.241 165.797 581.475 166.633 581.475 167.742C581.475 168.477 581.366 169.096 581.147 169.6C580.932 170.1 580.629 170.479 580.239 170.736C579.852 170.99 579.401 171.117 578.885 171.117C578.557 171.117 578.272 171.074 578.03 170.988C577.787 170.902 577.58 170.791 577.408 170.654C577.237 170.514 577.092 170.361 576.975 170.197H576.893C576.912 170.354 576.93 170.527 576.946 170.719C576.965 170.906 576.975 171.078 576.975 171.234V173.877H575.592V164.514H576.717L576.91 165.41H576.975C577.096 165.227 577.242 165.057 577.414 164.9C577.59 164.744 577.801 164.621 578.047 164.531C578.297 164.438 578.588 164.391 578.92 164.391ZM578.551 165.516C578.172 165.516 577.867 165.592 577.637 165.744C577.41 165.893 577.244 166.117 577.139 166.418C577.037 166.719 576.983 167.096 576.975 167.549V167.742C576.975 168.223 577.024 168.631 577.121 168.967C577.223 169.299 577.389 169.553 577.619 169.729C577.854 169.9 578.17 169.986 578.569 169.986C578.905 169.986 579.182 169.895 579.401 169.711C579.623 169.527 579.789 169.266 579.899 168.926C580.008 168.586 580.063 168.186 580.063 167.725C580.063 167.025 579.938 166.482 579.688 166.096C579.442 165.709 579.063 165.516 578.551 165.516Z" fill="white"/>
    <path d="M640.885 138.377H642.108V152.281H640.885V138.377Z" fill="#6CD11C"/>
    <path d="M639.73 166.705C639.73 167.365 639.646 167.967 639.479 168.51C639.314 169.049 639.066 169.514 638.734 169.904C638.402 170.291 637.986 170.59 637.486 170.801C636.986 171.012 636.4 171.117 635.729 171.117C635.045 171.117 634.451 171.012 633.947 170.801C633.447 170.59 633.031 170.289 632.699 169.898C632.371 169.508 632.125 169.041 631.961 168.498C631.797 167.955 631.715 167.354 631.715 166.693C631.715 165.811 631.859 165.041 632.148 164.385C632.441 163.725 632.885 163.213 633.479 162.85C634.076 162.482 634.83 162.299 635.74 162.299C636.631 162.299 637.371 162.48 637.961 162.844C638.551 163.207 638.992 163.719 639.285 164.379C639.582 165.035 639.73 165.811 639.73 166.705ZM633.191 166.705C633.191 167.365 633.281 167.938 633.461 168.422C633.641 168.902 633.916 169.273 634.287 169.535C634.662 169.793 635.143 169.922 635.729 169.922C636.318 169.922 636.799 169.793 637.17 169.535C637.541 169.273 637.814 168.902 637.99 168.422C638.166 167.938 638.254 167.365 638.254 166.705C638.254 165.701 638.053 164.916 637.65 164.35C637.252 163.779 636.615 163.494 635.74 163.494C635.154 163.494 634.672 163.623 634.293 163.881C633.918 164.139 633.641 164.508 633.461 164.988C633.281 165.465 633.191 166.037 633.191 166.705ZM644.091 171.117C643.478 171.117 642.946 170.998 642.497 170.76C642.048 170.521 641.702 170.156 641.46 169.664C641.218 169.172 641.097 168.547 641.097 167.789C641.097 167 641.23 166.355 641.495 165.855C641.761 165.355 642.128 164.986 642.597 164.748C643.069 164.51 643.611 164.391 644.22 164.391C644.607 164.391 644.956 164.43 645.269 164.508C645.585 164.582 645.853 164.674 646.071 164.783L645.661 165.885C645.423 165.787 645.179 165.705 644.929 165.639C644.679 165.572 644.439 165.539 644.208 165.539C643.829 165.539 643.513 165.623 643.259 165.791C643.009 165.959 642.821 166.209 642.696 166.541C642.575 166.873 642.515 167.285 642.515 167.777C642.515 168.254 642.577 168.656 642.702 168.984C642.827 169.309 643.013 169.555 643.259 169.723C643.505 169.887 643.808 169.969 644.167 169.969C644.523 169.969 644.841 169.926 645.122 169.84C645.403 169.754 645.669 169.643 645.919 169.506V170.701C645.673 170.842 645.409 170.945 645.128 171.012C644.847 171.082 644.501 171.117 644.091 171.117ZM649.905 170.004C650.084 170.004 650.262 169.988 650.438 169.957C650.614 169.922 650.774 169.881 650.918 169.834V170.877C650.766 170.943 650.569 171 650.326 171.047C650.084 171.094 649.832 171.117 649.571 171.117C649.203 171.117 648.873 171.057 648.58 170.936C648.287 170.811 648.055 170.598 647.883 170.297C647.711 169.996 647.625 169.58 647.625 169.049V165.562H646.741V164.947L647.69 164.461L648.141 163.072H649.008V164.514H650.866V165.562H649.008V169.031C649.008 169.359 649.09 169.604 649.254 169.764C649.418 169.924 649.635 170.004 649.905 170.004Z" fill="white"/>
    <path d="M711.385 138.377H712.608V152.281H711.385V138.377Z" fill="#DA4444"/>
    <path d="M708.273 171H706.545L702.35 164.162H702.297C702.312 164.393 702.326 164.637 702.338 164.895C702.354 165.152 702.365 165.418 702.373 165.691C702.385 165.965 702.395 166.242 702.402 166.523V171H701.125V162.434H702.842L707.031 169.225H707.072C707.064 169.025 707.055 168.797 707.043 168.539C707.031 168.281 707.02 168.016 707.008 167.742C707 167.465 706.994 167.197 706.99 166.939V162.434H708.273V171ZM716.173 167.742C716.173 168.281 716.103 168.76 715.962 169.178C715.821 169.596 715.616 169.949 715.347 170.238C715.077 170.523 714.753 170.742 714.374 170.895C713.995 171.043 713.568 171.117 713.091 171.117C712.646 171.117 712.237 171.043 711.866 170.895C711.495 170.742 711.173 170.523 710.9 170.238C710.63 169.949 710.421 169.596 710.273 169.178C710.124 168.76 710.05 168.281 710.05 167.742C710.05 167.027 710.173 166.422 710.419 165.926C710.669 165.426 711.025 165.045 711.486 164.783C711.946 164.521 712.495 164.391 713.132 164.391C713.73 164.391 714.257 164.521 714.714 164.783C715.171 165.045 715.528 165.426 715.786 165.926C716.044 166.426 716.173 167.031 716.173 167.742ZM711.468 167.742C711.468 168.215 711.525 168.619 711.638 168.955C711.755 169.291 711.935 169.549 712.177 169.729C712.419 169.904 712.732 169.992 713.114 169.992C713.497 169.992 713.81 169.904 714.052 169.729C714.294 169.549 714.472 169.291 714.585 168.955C714.698 168.619 714.755 168.215 714.755 167.742C714.755 167.27 714.698 166.869 714.585 166.541C714.472 166.209 714.294 165.957 714.052 165.785C713.81 165.609 713.495 165.521 713.109 165.521C712.538 165.521 712.122 165.713 711.861 166.096C711.599 166.479 711.468 167.027 711.468 167.742ZM719.285 171L716.819 164.514H718.278L719.614 168.322C719.7 168.564 719.778 168.826 719.848 169.107C719.918 169.389 719.967 169.625 719.994 169.816H720.041C720.069 169.617 720.121 169.379 720.2 169.102C720.278 168.82 720.358 168.561 720.44 168.322L721.776 164.514H723.229L720.762 171H719.285Z" fill="white"/>
    <path d="M782.385 138.377H783.608V152.281H782.385V138.377Z" fill="#DA4444"/>
    <path d="M780.08 166.635C780.08 167.6 779.9 168.406 779.541 169.055C779.182 169.699 778.66 170.186 777.977 170.514C777.293 170.838 776.469 171 775.504 171H773.125V162.434H775.762C776.648 162.434 777.414 162.594 778.059 162.914C778.703 163.23 779.201 163.701 779.553 164.326C779.904 164.947 780.08 165.717 780.08 166.635ZM778.615 166.676C778.615 165.973 778.504 165.395 778.281 164.941C778.062 164.488 777.738 164.152 777.309 163.934C776.883 163.711 776.357 163.6 775.732 163.6H774.531V169.822H775.527C776.562 169.822 777.336 169.559 777.848 169.031C778.359 168.504 778.615 167.719 778.615 166.676ZM784.417 164.391C784.995 164.391 785.491 164.51 785.905 164.748C786.319 164.986 786.638 165.324 786.861 165.762C787.083 166.199 787.194 166.723 787.194 167.332V168.07H782.864C782.88 168.699 783.048 169.184 783.368 169.523C783.693 169.863 784.146 170.033 784.728 170.033C785.142 170.033 785.513 169.994 785.841 169.916C786.173 169.834 786.515 169.715 786.866 169.559V170.678C786.542 170.83 786.212 170.941 785.876 171.012C785.54 171.082 785.138 171.117 784.669 171.117C784.032 171.117 783.472 170.994 782.987 170.748C782.507 170.498 782.13 170.127 781.857 169.635C781.587 169.143 781.452 168.531 781.452 167.801C781.452 167.074 781.575 166.457 781.821 165.949C782.068 165.441 782.413 165.055 782.859 164.789C783.304 164.523 783.823 164.391 784.417 164.391ZM784.417 165.428C783.984 165.428 783.632 165.568 783.362 165.85C783.097 166.131 782.941 166.543 782.894 167.086H785.847C785.843 166.762 785.788 166.475 785.683 166.225C785.581 165.975 785.425 165.779 785.214 165.639C785.007 165.498 784.741 165.428 784.417 165.428ZM791.408 171.117C790.795 171.117 790.264 170.998 789.815 170.76C789.366 170.521 789.02 170.156 788.778 169.664C788.535 169.172 788.414 168.547 788.414 167.789C788.414 167 788.547 166.355 788.813 165.855C789.078 165.355 789.446 164.986 789.914 164.748C790.387 164.51 790.928 164.391 791.537 164.391C791.924 164.391 792.274 164.43 792.586 164.508C792.903 164.582 793.17 164.674 793.389 164.783L792.979 165.885C792.741 165.787 792.496 165.705 792.246 165.639C791.996 165.572 791.756 165.539 791.526 165.539C791.147 165.539 790.83 165.623 790.576 165.791C790.326 165.959 790.139 166.209 790.014 166.541C789.893 166.873 789.832 167.285 789.832 167.777C789.832 168.254 789.895 168.656 790.02 168.984C790.145 169.309 790.33 169.555 790.576 169.723C790.823 169.887 791.125 169.969 791.485 169.969C791.84 169.969 792.158 169.926 792.44 169.84C792.721 169.754 792.987 169.643 793.237 169.506V170.701C792.991 170.842 792.727 170.945 792.446 171.012C792.164 171.082 791.819 171.117 791.408 171.117Z" fill="white"/>
    <path d="M850.885 138.377H852.108V152.281H850.885V138.377Z" fill="#6CD11C"/>
    <path d="M842.059 173.385C841.844 173.385 841.656 173.371 841.496 173.344C841.332 173.32 841.191 173.287 841.074 173.244V172.066C841.199 172.098 841.334 172.125 841.479 172.148C841.623 172.172 841.777 172.184 841.941 172.184C842.156 172.184 842.352 172.143 842.527 172.061C842.703 171.979 842.842 171.83 842.943 171.615C843.049 171.4 843.102 171.098 843.102 170.707V162.434H844.508V170.66C844.508 171.297 844.406 171.814 844.203 172.213C844 172.615 843.715 172.91 843.348 173.098C842.98 173.289 842.551 173.385 842.059 173.385ZM849.173 164.391C849.993 164.391 850.612 164.572 851.03 164.936C851.452 165.299 851.663 165.865 851.663 166.635V171H850.685L850.421 170.08H850.374C850.191 170.314 850.001 170.508 849.806 170.66C849.611 170.812 849.384 170.926 849.126 171C848.872 171.078 848.562 171.117 848.194 171.117C847.808 171.117 847.462 171.047 847.157 170.906C846.853 170.762 846.612 170.543 846.437 170.25C846.261 169.957 846.173 169.586 846.173 169.137C846.173 168.469 846.421 167.967 846.917 167.631C847.417 167.295 848.171 167.109 849.179 167.074L850.304 167.033V166.693C850.304 166.244 850.198 165.924 849.987 165.732C849.78 165.541 849.487 165.445 849.109 165.445C848.784 165.445 848.47 165.492 848.165 165.586C847.861 165.68 847.564 165.795 847.275 165.932L846.829 164.959C847.146 164.791 847.505 164.654 847.907 164.549C848.314 164.443 848.736 164.391 849.173 164.391ZM850.298 167.9L849.46 167.93C848.773 167.953 848.29 168.07 848.013 168.281C847.736 168.492 847.597 168.781 847.597 169.148C847.597 169.469 847.693 169.703 847.884 169.852C848.075 169.996 848.327 170.068 848.64 170.068C849.116 170.068 849.511 169.934 849.823 169.664C850.14 169.391 850.298 168.99 850.298 168.463V167.9ZM857.02 164.391C857.75 164.391 858.319 164.58 858.725 164.959C859.135 165.334 859.34 165.938 859.34 166.77V171H857.963V167.027C857.963 166.523 857.86 166.146 857.653 165.896C857.446 165.643 857.125 165.516 856.692 165.516C856.063 165.516 855.625 165.709 855.379 166.096C855.137 166.482 855.016 167.043 855.016 167.777V171H853.639V164.514H854.711L854.905 165.393H854.981C855.121 165.166 855.295 164.98 855.502 164.836C855.713 164.688 855.948 164.576 856.205 164.502C856.467 164.428 856.739 164.391 857.02 164.391Z" fill="white"/>
    <path d="M918.885 138.377H920.108V152.281H918.885V138.377Z" fill="#6CD11C"/>
    <path d="M911.52 171H910.125V162.434H914.965V163.617H911.52V166.289H914.742V167.467H911.52V171ZM919.015 164.391C919.593 164.391 920.089 164.51 920.503 164.748C920.917 164.986 921.235 165.324 921.458 165.762C921.681 166.199 921.792 166.723 921.792 167.332V168.07H917.462C917.478 168.699 917.646 169.184 917.966 169.523C918.29 169.863 918.743 170.033 919.325 170.033C919.739 170.033 920.11 169.994 920.439 169.916C920.771 169.834 921.112 169.715 921.464 169.559V170.678C921.14 170.83 920.81 170.941 920.474 171.012C920.138 171.082 919.735 171.117 919.267 171.117C918.63 171.117 918.069 170.994 917.585 170.748C917.105 170.498 916.728 170.127 916.454 169.635C916.185 169.143 916.05 168.531 916.05 167.801C916.05 167.074 916.173 166.457 916.419 165.949C916.665 165.441 917.011 165.055 917.456 164.789C917.902 164.523 918.421 164.391 919.015 164.391ZM919.015 165.428C918.581 165.428 918.23 165.568 917.96 165.85C917.694 166.131 917.538 166.543 917.491 167.086H920.444C920.441 166.762 920.386 166.475 920.28 166.225C920.179 165.975 920.023 165.779 919.812 165.639C919.605 165.498 919.339 165.428 919.015 165.428ZM924.77 161.883V164.08C924.77 164.334 924.762 164.584 924.746 164.83C924.735 165.072 924.723 165.262 924.711 165.398H924.77C924.946 165.117 925.19 164.881 925.502 164.689C925.819 164.494 926.223 164.396 926.715 164.396C927.485 164.396 928.104 164.68 928.573 165.246C929.041 165.809 929.276 166.643 929.276 167.748C929.276 168.482 929.168 169.1 928.953 169.6C928.739 170.1 928.436 170.479 928.045 170.736C927.658 170.99 927.203 171.117 926.68 171.117C926.188 171.117 925.789 171.027 925.485 170.848C925.184 170.664 924.948 170.451 924.776 170.209H924.676L924.424 171H923.393V161.883H924.77ZM926.352 165.516C925.961 165.516 925.651 165.594 925.42 165.75C925.194 165.906 925.03 166.141 924.928 166.453C924.826 166.762 924.774 167.154 924.77 167.631V167.754C924.77 168.477 924.883 169.029 925.11 169.412C925.34 169.795 925.758 169.986 926.364 169.986C926.844 169.986 927.213 169.793 927.471 169.406C927.729 169.016 927.858 168.457 927.858 167.73C927.858 166.996 927.729 166.443 927.471 166.072C927.217 165.701 926.844 165.516 926.352 165.516Z" fill="white"/>
    <path d="M989.385 138.377H990.608V152.281H989.385V138.377Z" fill="#DA4444"/>
    <path d="M982.822 171L980.355 163.846H980.303C980.314 164.006 980.328 164.225 980.344 164.502C980.359 164.779 980.373 165.076 980.385 165.393C980.396 165.709 980.402 166.012 980.402 166.301V171H979.125V162.434H981.1L983.473 169.271H983.508L985.963 162.434H987.932V171H986.59V166.23C986.59 165.969 986.594 165.686 986.602 165.381C986.613 165.076 986.625 164.787 986.637 164.514C986.652 164.24 986.664 164.021 986.672 163.857H986.625L984.064 171H982.822ZM992.638 164.391C993.458 164.391 994.077 164.572 994.495 164.936C994.917 165.299 995.128 165.865 995.128 166.635V171H994.15L993.886 170.08H993.839C993.655 170.314 993.466 170.508 993.271 170.66C993.075 170.812 992.849 170.926 992.591 171C992.337 171.078 992.027 171.117 991.659 171.117C991.273 171.117 990.927 171.047 990.622 170.906C990.318 170.762 990.077 170.543 989.902 170.25C989.726 169.957 989.638 169.586 989.638 169.137C989.638 168.469 989.886 167.967 990.382 167.631C990.882 167.295 991.636 167.109 992.644 167.074L993.769 167.033V166.693C993.769 166.244 993.663 165.924 993.452 165.732C993.245 165.541 992.952 165.445 992.573 165.445C992.249 165.445 991.935 165.492 991.63 165.586C991.325 165.68 991.028 165.795 990.739 165.932L990.294 164.959C990.611 164.791 990.97 164.654 991.372 164.549C991.778 164.443 992.2 164.391 992.638 164.391ZM993.763 167.9L992.925 167.93C992.237 167.953 991.755 168.07 991.478 168.281C991.2 168.492 991.062 168.781 991.062 169.148C991.062 169.469 991.157 169.703 991.349 169.852C991.54 169.996 991.792 170.068 992.105 170.068C992.581 170.068 992.976 169.934 993.288 169.664C993.605 169.391 993.763 168.99 993.763 168.463V167.9ZM1000.39 164.391C1000.5 164.391 1000.62 164.396 1000.75 164.408C1000.88 164.42 1000.99 164.436 1001.08 164.455L1000.95 165.744C1000.87 165.721 1000.77 165.703 1000.65 165.691C1000.53 165.68 1000.43 165.674 1000.33 165.674C1000.09 165.674 999.852 165.715 999.629 165.797C999.407 165.875 999.209 165.996 999.037 166.16C998.866 166.32 998.731 166.521 998.633 166.764C998.535 167.006 998.487 167.287 998.487 167.607V171H997.104V164.514H998.182L998.369 165.656H998.434C998.563 165.426 998.723 165.215 998.914 165.023C999.106 164.832 999.325 164.68 999.571 164.566C999.821 164.449 1000.09 164.391 1000.39 164.391Z" fill="white"/>
    <path d="M1059.88 138.377H1061.11V152.281H1059.88V138.377Z" fill="#DA4444"/>
    <path d="M1056.43 171L1055.6 168.621H1052.32L1051.48 171H1050L1053.19 162.398H1054.75L1057.93 171H1056.43ZM1055.23 167.414L1054.42 165.07C1054.39 164.969 1054.34 164.826 1054.28 164.643C1054.22 164.455 1054.17 164.266 1054.11 164.074C1054.05 163.879 1054 163.715 1053.96 163.582C1053.92 163.742 1053.87 163.922 1053.81 164.121C1053.76 164.316 1053.71 164.5 1053.65 164.672C1053.6 164.844 1053.56 164.977 1053.53 165.07L1052.71 167.414H1055.23ZM1062.29 164.391C1063.06 164.391 1063.68 164.672 1064.15 165.234C1064.61 165.797 1064.85 166.633 1064.85 167.742C1064.85 168.477 1064.74 169.096 1064.52 169.6C1064.31 170.1 1064 170.479 1063.61 170.736C1063.23 170.99 1062.77 171.117 1062.26 171.117C1061.93 171.117 1061.65 171.074 1061.4 170.988C1061.16 170.902 1060.95 170.791 1060.78 170.654C1060.61 170.514 1060.47 170.361 1060.35 170.197H1060.27C1060.29 170.354 1060.3 170.527 1060.32 170.719C1060.34 170.906 1060.35 171.078 1060.35 171.234V173.877H1058.97V164.514H1060.09L1060.28 165.41H1060.35C1060.47 165.227 1060.62 165.057 1060.79 164.9C1060.96 164.744 1061.17 164.621 1061.42 164.531C1061.67 164.438 1061.96 164.391 1062.29 164.391ZM1061.92 165.516C1061.55 165.516 1061.24 165.592 1061.01 165.744C1060.78 165.893 1060.62 166.117 1060.51 166.418C1060.41 166.719 1060.36 167.096 1060.35 167.549V167.742C1060.35 168.223 1060.4 168.631 1060.5 168.967C1060.6 169.299 1060.76 169.553 1060.99 169.729C1061.23 169.9 1061.54 169.986 1061.94 169.986C1062.28 169.986 1062.56 169.895 1062.77 169.711C1063 169.527 1063.16 169.266 1063.27 168.926C1063.38 168.586 1063.44 168.186 1063.44 167.725C1063.44 167.025 1063.31 166.482 1063.06 166.096C1062.82 165.709 1062.44 165.516 1061.92 165.516ZM1069.78 164.391C1069.89 164.391 1070.01 164.396 1070.14 164.408C1070.26 164.42 1070.38 164.436 1070.47 164.455L1070.34 165.744C1070.26 165.721 1070.16 165.703 1070.04 165.691C1069.92 165.68 1069.81 165.674 1069.72 165.674C1069.47 165.674 1069.24 165.715 1069.02 165.797C1068.79 165.875 1068.6 165.996 1068.42 166.16C1068.25 166.32 1068.12 166.521 1068.02 166.764C1067.92 167.006 1067.87 167.287 1067.87 167.607V171H1066.49V164.514H1067.57L1067.76 165.656H1067.82C1067.95 165.426 1068.11 165.215 1068.3 165.023C1068.49 164.832 1068.71 164.68 1068.96 164.566C1069.21 164.449 1069.48 164.391 1069.78 164.391Z" fill="white"/>
    <path d="M1130.87 138.377H1132.09V152.281H1130.87V138.377Z" fill="#DA4444"/>
    <path d="M1123.82 171L1121.36 163.846H1121.3C1121.31 164.006 1121.33 164.225 1121.34 164.502C1121.36 164.779 1121.37 165.076 1121.38 165.393C1121.4 165.709 1121.4 166.012 1121.4 166.301V171H1120.12V162.434H1122.1L1124.47 169.271H1124.51L1126.96 162.434H1128.93V171H1127.59V166.23C1127.59 165.969 1127.59 165.686 1127.6 165.381C1127.61 165.076 1127.62 164.787 1127.64 164.514C1127.65 164.24 1127.66 164.021 1127.67 163.857H1127.62L1125.06 171H1123.82ZM1133.64 164.391C1134.46 164.391 1135.08 164.572 1135.5 164.936C1135.92 165.299 1136.13 165.865 1136.13 166.635V171H1135.15L1134.89 170.08H1134.84C1134.66 170.314 1134.47 170.508 1134.27 170.66C1134.08 170.812 1133.85 170.926 1133.59 171C1133.34 171.078 1133.03 171.117 1132.66 171.117C1132.27 171.117 1131.93 171.047 1131.62 170.906C1131.32 170.762 1131.08 170.543 1130.9 170.25C1130.73 169.957 1130.64 169.586 1130.64 169.137C1130.64 168.469 1130.89 167.967 1131.38 167.631C1131.88 167.295 1132.64 167.109 1133.64 167.074L1134.77 167.033V166.693C1134.77 166.244 1134.66 165.924 1134.45 165.732C1134.25 165.541 1133.95 165.445 1133.57 165.445C1133.25 165.445 1132.93 165.492 1132.63 165.586C1132.33 165.68 1132.03 165.795 1131.74 165.932L1131.29 164.959C1131.61 164.791 1131.97 164.654 1132.37 164.549C1132.78 164.443 1133.2 164.391 1133.64 164.391ZM1134.76 167.9L1133.92 167.93C1133.24 167.953 1132.76 168.07 1132.48 168.281C1132.2 168.492 1132.06 168.781 1132.06 169.148C1132.06 169.469 1132.16 169.703 1132.35 169.852C1132.54 169.996 1132.79 170.068 1133.1 170.068C1133.58 170.068 1133.98 169.934 1134.29 169.664C1134.6 169.391 1134.76 168.99 1134.76 168.463V167.9ZM1137.13 164.514H1138.63L1139.96 168.217C1140.01 168.385 1140.07 168.551 1140.11 168.715C1140.16 168.875 1140.21 169.033 1140.24 169.189C1140.28 169.346 1140.31 169.502 1140.34 169.658H1140.37C1140.41 169.455 1140.47 169.229 1140.54 168.979C1140.61 168.725 1140.69 168.471 1140.78 168.217L1142.06 164.514H1143.54L1140.76 171.891C1140.6 172.312 1140.4 172.672 1140.17 172.969C1139.94 173.27 1139.66 173.496 1139.35 173.648C1139.03 173.805 1138.67 173.883 1138.26 173.883C1138.07 173.883 1137.9 173.871 1137.75 173.848C1137.61 173.828 1137.48 173.807 1137.38 173.783V172.682C1137.47 172.701 1137.57 172.719 1137.69 172.734C1137.82 172.75 1137.95 172.758 1138.08 172.758C1138.33 172.758 1138.54 172.709 1138.72 172.611C1138.9 172.514 1139.05 172.375 1139.18 172.195C1139.3 172.02 1139.4 171.818 1139.49 171.592L1139.72 170.982L1137.13 164.514Z" fill="white"/>
    <path d="M1200.88 138.377H1202.11V152.281H1200.88V138.377Z" fill="#DA4444"/>
    <path d="M1192.06 173.385C1191.84 173.385 1191.66 173.371 1191.5 173.344C1191.33 173.32 1191.19 173.287 1191.07 173.244V172.066C1191.2 172.098 1191.33 172.125 1191.48 172.148C1191.62 172.172 1191.78 172.184 1191.94 172.184C1192.16 172.184 1192.35 172.143 1192.53 172.061C1192.7 171.979 1192.84 171.83 1192.94 171.615C1193.05 171.4 1193.1 171.098 1193.1 170.707V162.434H1194.51V170.66C1194.51 171.297 1194.41 171.814 1194.2 172.213C1194 172.615 1193.71 172.91 1193.35 173.098C1192.98 173.289 1192.55 173.385 1192.06 173.385ZM1202.28 164.514V171H1201.2L1201.01 170.127H1200.94C1200.8 170.35 1200.63 170.535 1200.42 170.684C1200.2 170.828 1199.97 170.936 1199.71 171.006C1199.45 171.08 1199.18 171.117 1198.9 171.117C1198.41 171.117 1197.99 171.035 1197.64 170.871C1197.3 170.703 1197.04 170.445 1196.85 170.098C1196.67 169.75 1196.58 169.301 1196.58 168.75V164.514H1197.96V168.492C1197.96 168.996 1198.06 169.373 1198.26 169.623C1198.47 169.873 1198.79 169.998 1199.23 169.998C1199.64 169.998 1199.98 169.912 1200.22 169.74C1200.47 169.568 1200.64 169.314 1200.74 168.979C1200.85 168.643 1200.9 168.23 1200.9 167.742V164.514H1202.28ZM1207.69 164.391C1208.42 164.391 1208.99 164.58 1209.39 164.959C1209.8 165.334 1210.01 165.938 1210.01 166.77V171H1208.63V167.027C1208.63 166.523 1208.53 166.146 1208.32 165.896C1208.11 165.643 1207.79 165.516 1207.36 165.516C1206.73 165.516 1206.29 165.709 1206.05 166.096C1205.8 166.482 1205.68 167.043 1205.68 167.777V171H1204.31V164.514H1205.38L1205.57 165.393H1205.65C1205.79 165.166 1205.96 164.98 1206.17 164.836C1206.38 164.688 1206.62 164.576 1206.87 164.502C1207.14 164.428 1207.41 164.391 1207.69 164.391Z" fill="white"/>
    <path d="M1265.88 138.377H1267.11V152.281H1265.88V138.377Z" fill="#DA4444"/>
    <path d="M1259.06 173.385C1258.84 173.385 1258.66 173.371 1258.5 173.344C1258.33 173.32 1258.19 173.287 1258.07 173.244V172.066C1258.2 172.098 1258.33 172.125 1258.48 172.148C1258.62 172.172 1258.78 172.184 1258.94 172.184C1259.16 172.184 1259.35 172.143 1259.53 172.061C1259.7 171.979 1259.84 171.83 1259.94 171.615C1260.05 171.4 1260.1 171.098 1260.1 170.707V162.434H1261.51V170.66C1261.51 171.297 1261.41 171.814 1261.2 172.213C1261 172.615 1260.71 172.91 1260.35 173.098C1259.98 173.289 1259.55 173.385 1259.06 173.385ZM1269.28 164.514V171H1268.2L1268.01 170.127H1267.94C1267.8 170.35 1267.63 170.535 1267.42 170.684C1267.2 170.828 1266.97 170.936 1266.71 171.006C1266.45 171.08 1266.18 171.117 1265.9 171.117C1265.41 171.117 1264.99 171.035 1264.64 170.871C1264.3 170.703 1264.04 170.445 1263.85 170.098C1263.67 169.75 1263.58 169.301 1263.58 168.75V164.514H1264.96V168.492C1264.96 168.996 1265.06 169.373 1265.26 169.623C1265.47 169.873 1265.79 169.998 1266.23 169.998C1266.64 169.998 1266.98 169.912 1267.22 169.74C1267.47 169.568 1267.64 169.314 1267.74 168.979C1267.85 168.643 1267.9 168.23 1267.9 167.742V164.514H1269.28ZM1272.69 171H1271.31V161.883H1272.69V171Z" fill="white"/>
    <path d="M1332.87 138.377H1334.09V152.281H1332.87V138.377Z" fill="#DA4444"/>
    <path d="M1328.43 171L1327.6 168.621H1324.32L1323.48 171H1322L1325.19 162.398H1326.75L1329.93 171H1328.43ZM1327.23 167.414L1326.42 165.07C1326.39 164.969 1326.34 164.826 1326.28 164.643C1326.22 164.455 1326.17 164.266 1326.11 164.074C1326.05 163.879 1326 163.715 1325.96 163.582C1325.92 163.742 1325.87 163.922 1325.81 164.121C1325.76 164.316 1325.71 164.5 1325.65 164.672C1325.6 164.844 1325.56 164.977 1325.53 165.07L1324.71 167.414H1327.23ZM1336.62 164.514V171H1335.54L1335.35 170.127H1335.27C1335.14 170.35 1334.96 170.535 1334.75 170.684C1334.54 170.828 1334.31 170.936 1334.05 171.006C1333.79 171.08 1333.52 171.117 1333.23 171.117C1332.75 171.117 1332.33 171.035 1331.98 170.871C1331.64 170.703 1331.37 170.445 1331.19 170.098C1331.01 169.75 1330.91 169.301 1330.91 168.75V164.514H1332.3V168.492C1332.3 168.996 1332.4 169.373 1332.6 169.623C1332.81 169.873 1333.13 169.998 1333.56 169.998C1333.98 169.998 1334.31 169.912 1334.56 169.74C1334.8 169.568 1334.98 169.314 1335.08 168.979C1335.18 168.643 1335.24 168.23 1335.24 167.742V164.514H1336.62ZM1340.49 173.883C1339.62 173.883 1338.94 173.725 1338.47 173.408C1338 173.092 1337.77 172.648 1337.77 172.078C1337.77 171.68 1337.89 171.342 1338.14 171.064C1338.39 170.791 1338.75 170.602 1339.22 170.496C1339.04 170.418 1338.89 170.297 1338.76 170.133C1338.64 169.965 1338.57 169.779 1338.57 169.576C1338.57 169.334 1338.64 169.127 1338.78 168.955C1338.91 168.783 1339.12 168.617 1339.39 168.457C1339.05 168.312 1338.78 168.078 1338.57 167.754C1338.37 167.426 1338.27 167.041 1338.27 166.6C1338.27 166.131 1338.37 165.732 1338.57 165.404C1338.77 165.072 1339.06 164.82 1339.44 164.648C1339.82 164.473 1340.29 164.385 1340.83 164.385C1340.95 164.385 1341.07 164.393 1341.21 164.408C1341.35 164.42 1341.48 164.436 1341.6 164.455C1341.72 164.471 1341.81 164.488 1341.87 164.508H1344.12V165.275L1343.01 165.48C1343.12 165.629 1343.2 165.799 1343.27 165.99C1343.33 166.178 1343.36 166.383 1343.36 166.605C1343.36 167.277 1343.13 167.807 1342.66 168.193C1342.2 168.576 1341.56 168.768 1340.75 168.768C1340.56 168.76 1340.37 168.744 1340.18 168.721C1340.04 168.807 1339.94 168.902 1339.86 169.008C1339.79 169.109 1339.75 169.225 1339.75 169.354C1339.75 169.459 1339.79 169.545 1339.86 169.611C1339.94 169.674 1340.05 169.721 1340.19 169.752C1340.34 169.783 1340.52 169.799 1340.73 169.799H1341.85C1342.56 169.799 1343.1 169.949 1343.48 170.25C1343.85 170.551 1344.04 170.992 1344.04 171.574C1344.04 172.312 1343.73 172.881 1343.13 173.279C1342.52 173.682 1341.64 173.883 1340.49 173.883ZM1340.55 172.916C1341.03 172.916 1341.43 172.869 1341.76 172.775C1342.09 172.682 1342.34 172.547 1342.5 172.371C1342.67 172.199 1342.76 171.994 1342.76 171.756C1342.76 171.545 1342.7 171.383 1342.6 171.27C1342.49 171.156 1342.33 171.078 1342.12 171.035C1341.91 170.992 1341.65 170.971 1341.34 170.971H1340.32C1340.06 170.971 1339.84 171.01 1339.64 171.088C1339.45 171.17 1339.3 171.287 1339.19 171.439C1339.08 171.592 1339.03 171.775 1339.03 171.99C1339.03 172.287 1339.16 172.516 1339.42 172.676C1339.69 172.836 1340.06 172.916 1340.55 172.916ZM1340.82 167.865C1341.22 167.865 1341.52 167.756 1341.71 167.537C1341.91 167.314 1342.01 167.002 1342.01 166.6C1342.01 166.162 1341.9 165.834 1341.7 165.615C1341.5 165.396 1341.21 165.287 1340.81 165.287C1340.42 165.287 1340.13 165.398 1339.93 165.621C1339.73 165.844 1339.63 166.174 1339.63 166.611C1339.63 167.006 1339.73 167.314 1339.93 167.537C1340.13 167.756 1340.43 167.865 1340.82 167.865Z" fill="white"/>
    <path d="M1403.38 138.377H1404.61V152.281H1403.38V138.377Z" fill="#6CD11C"/>
    <path d="M1399.07 168.668C1399.07 169.176 1398.95 169.613 1398.7 169.98C1398.45 170.348 1398.09 170.629 1397.63 170.824C1397.17 171.02 1396.62 171.117 1395.98 171.117C1395.66 171.117 1395.37 171.1 1395.08 171.064C1394.79 171.029 1394.53 170.979 1394.27 170.912C1394.02 170.842 1393.79 170.758 1393.59 170.66V169.336C1393.93 169.488 1394.32 169.627 1394.75 169.752C1395.18 169.873 1395.62 169.934 1396.06 169.934C1396.43 169.934 1396.73 169.887 1396.97 169.793C1397.21 169.695 1397.39 169.559 1397.51 169.383C1397.62 169.203 1397.68 168.994 1397.68 168.756C1397.68 168.502 1397.61 168.287 1397.48 168.111C1397.34 167.936 1397.13 167.775 1396.86 167.631C1396.58 167.482 1396.24 167.324 1395.82 167.156C1395.54 167.043 1395.27 166.914 1395.02 166.77C1394.76 166.625 1394.54 166.455 1394.34 166.26C1394.14 166.064 1393.98 165.834 1393.86 165.568C1393.75 165.299 1393.69 164.982 1393.69 164.619C1393.69 164.135 1393.81 163.721 1394.04 163.377C1394.27 163.033 1394.6 162.77 1395.02 162.586C1395.45 162.402 1395.94 162.311 1396.51 162.311C1396.96 162.311 1397.38 162.357 1397.78 162.451C1398.17 162.545 1398.56 162.678 1398.95 162.85L1398.5 163.98C1398.15 163.836 1397.81 163.721 1397.48 163.635C1397.15 163.549 1396.81 163.506 1396.47 163.506C1396.17 163.506 1395.92 163.551 1395.71 163.641C1395.51 163.73 1395.35 163.857 1395.24 164.021C1395.13 164.182 1395.08 164.373 1395.08 164.596C1395.08 164.846 1395.14 165.057 1395.26 165.229C1395.39 165.396 1395.58 165.551 1395.84 165.691C1396.1 165.832 1396.43 165.988 1396.84 166.16C1397.32 166.355 1397.72 166.561 1398.04 166.775C1398.38 166.99 1398.63 167.248 1398.81 167.549C1398.98 167.846 1399.07 168.219 1399.07 168.668ZM1403.21 164.391C1403.79 164.391 1404.29 164.51 1404.7 164.748C1405.12 164.986 1405.43 165.324 1405.66 165.762C1405.88 166.199 1405.99 166.723 1405.99 167.332V168.07H1401.66C1401.68 168.699 1401.84 169.184 1402.17 169.523C1402.49 169.863 1402.94 170.033 1403.52 170.033C1403.94 170.033 1404.31 169.994 1404.64 169.916C1404.97 169.834 1405.31 169.715 1405.66 169.559V170.678C1405.34 170.83 1405.01 170.941 1404.67 171.012C1404.34 171.082 1403.93 171.117 1403.47 171.117C1402.83 171.117 1402.27 170.994 1401.78 170.748C1401.3 170.498 1400.93 170.127 1400.65 169.635C1400.38 169.143 1400.25 168.531 1400.25 167.801C1400.25 167.074 1400.37 166.457 1400.62 165.949C1400.86 165.441 1401.21 165.055 1401.66 164.789C1402.1 164.523 1402.62 164.391 1403.21 164.391ZM1403.21 165.428C1402.78 165.428 1402.43 165.568 1402.16 165.85C1401.89 166.131 1401.74 166.543 1401.69 167.086H1404.64C1404.64 166.762 1404.59 166.475 1404.48 166.225C1404.38 165.975 1404.22 165.779 1404.01 165.639C1403.8 165.498 1403.54 165.428 1403.21 165.428ZM1410.92 164.391C1411.69 164.391 1412.31 164.672 1412.77 165.234C1413.24 165.797 1413.47 166.633 1413.47 167.742C1413.47 168.477 1413.37 169.096 1413.15 169.6C1412.93 170.1 1412.63 170.479 1412.24 170.736C1411.85 170.99 1411.4 171.117 1410.89 171.117C1410.56 171.117 1410.27 171.074 1410.03 170.988C1409.79 170.902 1409.58 170.791 1409.41 170.654C1409.24 170.514 1409.09 170.361 1408.97 170.197H1408.89C1408.91 170.354 1408.93 170.527 1408.95 170.719C1408.97 170.906 1408.97 171.078 1408.97 171.234V173.877H1407.59V164.514H1408.72L1408.91 165.41H1408.97C1409.1 165.227 1409.24 165.057 1409.41 164.9C1409.59 164.744 1409.8 164.621 1410.05 164.531C1410.3 164.438 1410.59 164.391 1410.92 164.391ZM1410.55 165.516C1410.17 165.516 1409.87 165.592 1409.64 165.744C1409.41 165.893 1409.24 166.117 1409.14 166.418C1409.04 166.719 1408.98 167.096 1408.97 167.549V167.742C1408.97 168.223 1409.02 168.631 1409.12 168.967C1409.22 169.299 1409.39 169.553 1409.62 169.729C1409.85 169.9 1410.17 169.986 1410.57 169.986C1410.9 169.986 1411.18 169.895 1411.4 169.711C1411.62 169.527 1411.79 169.266 1411.9 168.926C1412.01 168.586 1412.06 168.186 1412.06 167.725C1412.06 167.025 1411.94 166.482 1411.69 166.096C1411.44 165.709 1411.06 165.516 1410.55 165.516Z" fill="white"/>
    <path d="M1472.88 138.377H1474.11V152.281H1472.88V138.377Z" fill="#6CD11C"/>
    <path d="M1471.73 166.705C1471.73 167.365 1471.65 167.967 1471.48 168.51C1471.31 169.049 1471.07 169.514 1470.73 169.904C1470.4 170.291 1469.99 170.59 1469.49 170.801C1468.99 171.012 1468.4 171.117 1467.73 171.117C1467.04 171.117 1466.45 171.012 1465.95 170.801C1465.45 170.59 1465.03 170.289 1464.7 169.898C1464.37 169.508 1464.12 169.041 1463.96 168.498C1463.8 167.955 1463.71 167.354 1463.71 166.693C1463.71 165.811 1463.86 165.041 1464.15 164.385C1464.44 163.725 1464.88 163.213 1465.48 162.85C1466.08 162.482 1466.83 162.299 1467.74 162.299C1468.63 162.299 1469.37 162.48 1469.96 162.844C1470.55 163.207 1470.99 163.719 1471.29 164.379C1471.58 165.035 1471.73 165.811 1471.73 166.705ZM1465.19 166.705C1465.19 167.365 1465.28 167.938 1465.46 168.422C1465.64 168.902 1465.92 169.273 1466.29 169.535C1466.66 169.793 1467.14 169.922 1467.73 169.922C1468.32 169.922 1468.8 169.793 1469.17 169.535C1469.54 169.273 1469.81 168.902 1469.99 168.422C1470.17 167.938 1470.25 167.365 1470.25 166.705C1470.25 165.701 1470.05 164.916 1469.65 164.35C1469.25 163.779 1468.62 163.494 1467.74 163.494C1467.15 163.494 1466.67 163.623 1466.29 163.881C1465.92 164.139 1465.64 164.508 1465.46 164.988C1465.28 165.465 1465.19 166.037 1465.19 166.705ZM1476.09 171.117C1475.48 171.117 1474.95 170.998 1474.5 170.76C1474.05 170.521 1473.7 170.156 1473.46 169.664C1473.22 169.172 1473.1 168.547 1473.1 167.789C1473.1 167 1473.23 166.355 1473.5 165.855C1473.76 165.355 1474.13 164.986 1474.6 164.748C1475.07 164.51 1475.61 164.391 1476.22 164.391C1476.61 164.391 1476.96 164.43 1477.27 164.508C1477.59 164.582 1477.85 164.674 1478.07 164.783L1477.66 165.885C1477.42 165.787 1477.18 165.705 1476.93 165.639C1476.68 165.572 1476.44 165.539 1476.21 165.539C1475.83 165.539 1475.51 165.623 1475.26 165.791C1475.01 165.959 1474.82 166.209 1474.7 166.541C1474.58 166.873 1474.51 167.285 1474.51 167.777C1474.51 168.254 1474.58 168.656 1474.7 168.984C1474.83 169.309 1475.01 169.555 1475.26 169.723C1475.51 169.887 1475.81 169.969 1476.17 169.969C1476.52 169.969 1476.84 169.926 1477.12 169.84C1477.4 169.754 1477.67 169.643 1477.92 169.506V170.701C1477.67 170.842 1477.41 170.945 1477.13 171.012C1476.85 171.082 1476.5 171.117 1476.09 171.117ZM1481.9 170.004C1482.08 170.004 1482.26 169.988 1482.44 169.957C1482.61 169.922 1482.77 169.881 1482.92 169.834V170.877C1482.77 170.943 1482.57 171 1482.33 171.047C1482.08 171.094 1481.83 171.117 1481.57 171.117C1481.2 171.117 1480.87 171.057 1480.58 170.936C1480.29 170.811 1480.05 170.598 1479.88 170.297C1479.71 169.996 1479.63 169.58 1479.63 169.049V165.562H1478.74V164.947L1479.69 164.461L1480.14 163.072H1481.01V164.514H1482.87V165.562H1481.01V169.031C1481.01 169.359 1481.09 169.604 1481.25 169.764C1481.42 169.924 1481.64 170.004 1481.9 170.004Z" fill="white"/>
    <path d="M1543.38 138.377H1544.61V152.281H1543.38V138.377Z" fill="#6CD11C"/>
    <path d="M1540.27 171H1538.54L1534.35 164.162H1534.3C1534.31 164.393 1534.33 164.637 1534.34 164.895C1534.35 165.152 1534.37 165.418 1534.37 165.691C1534.38 165.965 1534.39 166.242 1534.4 166.523V171H1533.12V162.434H1534.84L1539.03 169.225H1539.07C1539.06 169.025 1539.05 168.797 1539.04 168.539C1539.03 168.281 1539.02 168.016 1539.01 167.742C1539 167.465 1538.99 167.197 1538.99 166.939V162.434H1540.27V171ZM1548.17 167.742C1548.17 168.281 1548.1 168.76 1547.96 169.178C1547.82 169.596 1547.62 169.949 1547.35 170.238C1547.08 170.523 1546.75 170.742 1546.37 170.895C1546 171.043 1545.57 171.117 1545.09 171.117C1544.65 171.117 1544.24 171.043 1543.87 170.895C1543.5 170.742 1543.17 170.523 1542.9 170.238C1542.63 169.949 1542.42 169.596 1542.27 169.178C1542.12 168.76 1542.05 168.281 1542.05 167.742C1542.05 167.027 1542.17 166.422 1542.42 165.926C1542.67 165.426 1543.02 165.045 1543.49 164.783C1543.95 164.521 1544.5 164.391 1545.13 164.391C1545.73 164.391 1546.26 164.521 1546.71 164.783C1547.17 165.045 1547.53 165.426 1547.79 165.926C1548.04 166.426 1548.17 167.031 1548.17 167.742ZM1543.47 167.742C1543.47 168.215 1543.52 168.619 1543.64 168.955C1543.76 169.291 1543.93 169.549 1544.18 169.729C1544.42 169.904 1544.73 169.992 1545.11 169.992C1545.5 169.992 1545.81 169.904 1546.05 169.729C1546.29 169.549 1546.47 169.291 1546.59 168.955C1546.7 168.619 1546.76 168.215 1546.76 167.742C1546.76 167.27 1546.7 166.869 1546.59 166.541C1546.47 166.209 1546.29 165.957 1546.05 165.785C1545.81 165.609 1545.5 165.521 1545.11 165.521C1544.54 165.521 1544.12 165.713 1543.86 166.096C1543.6 166.479 1543.47 167.027 1543.47 167.742ZM1551.29 171L1548.82 164.514H1550.28L1551.61 168.322C1551.7 168.564 1551.78 168.826 1551.85 169.107C1551.92 169.389 1551.97 169.625 1551.99 169.816H1552.04C1552.07 169.617 1552.12 169.379 1552.2 169.102C1552.28 168.82 1552.36 168.561 1552.44 168.322L1553.78 164.514H1555.23L1552.76 171H1551.29Z" fill="white"/>
    <path d="M1614.38 138.377H1615.61V152.281H1614.38V138.377Z" fill="#6CD11C"/>
    <path d="M1612.08 166.635C1612.08 167.6 1611.9 168.406 1611.54 169.055C1611.18 169.699 1610.66 170.186 1609.98 170.514C1609.29 170.838 1608.47 171 1607.5 171H1605.12V162.434H1607.76C1608.65 162.434 1609.41 162.594 1610.06 162.914C1610.7 163.23 1611.2 163.701 1611.55 164.326C1611.9 164.947 1612.08 165.717 1612.08 166.635ZM1610.62 166.676C1610.62 165.973 1610.5 165.395 1610.28 164.941C1610.06 164.488 1609.74 164.152 1609.31 163.934C1608.88 163.711 1608.36 163.6 1607.73 163.6H1606.53V169.822H1607.53C1608.56 169.822 1609.34 169.559 1609.85 169.031C1610.36 168.504 1610.62 167.719 1610.62 166.676ZM1616.42 164.391C1617 164.391 1617.49 164.51 1617.91 164.748C1618.32 164.986 1618.64 165.324 1618.86 165.762C1619.08 166.199 1619.19 166.723 1619.19 167.332V168.07H1614.86C1614.88 168.699 1615.05 169.184 1615.37 169.523C1615.69 169.863 1616.15 170.033 1616.73 170.033C1617.14 170.033 1617.51 169.994 1617.84 169.916C1618.17 169.834 1618.51 169.715 1618.87 169.559V170.678C1618.54 170.83 1618.21 170.941 1617.88 171.012C1617.54 171.082 1617.14 171.117 1616.67 171.117C1616.03 171.117 1615.47 170.994 1614.99 170.748C1614.51 170.498 1614.13 170.127 1613.86 169.635C1613.59 169.143 1613.45 168.531 1613.45 167.801C1613.45 167.074 1613.58 166.457 1613.82 165.949C1614.07 165.441 1614.41 165.055 1614.86 164.789C1615.3 164.523 1615.82 164.391 1616.42 164.391ZM1616.42 165.428C1615.98 165.428 1615.63 165.568 1615.36 165.85C1615.1 166.131 1614.94 166.543 1614.89 167.086H1617.85C1617.84 166.762 1617.79 166.475 1617.68 166.225C1617.58 165.975 1617.42 165.779 1617.21 165.639C1617.01 165.498 1616.74 165.428 1616.42 165.428ZM1623.41 171.117C1622.8 171.117 1622.26 170.998 1621.81 170.76C1621.37 170.521 1621.02 170.156 1620.78 169.664C1620.54 169.172 1620.41 168.547 1620.41 167.789C1620.41 167 1620.55 166.355 1620.81 165.855C1621.08 165.355 1621.45 164.986 1621.91 164.748C1622.39 164.51 1622.93 164.391 1623.54 164.391C1623.92 164.391 1624.27 164.43 1624.59 164.508C1624.9 164.582 1625.17 164.674 1625.39 164.783L1624.98 165.885C1624.74 165.787 1624.5 165.705 1624.25 165.639C1624 165.572 1623.76 165.539 1623.53 165.539C1623.15 165.539 1622.83 165.623 1622.58 165.791C1622.33 165.959 1622.14 166.209 1622.01 166.541C1621.89 166.873 1621.83 167.285 1621.83 167.777C1621.83 168.254 1621.89 168.656 1622.02 168.984C1622.14 169.309 1622.33 169.555 1622.58 169.723C1622.82 169.887 1623.13 169.969 1623.48 169.969C1623.84 169.969 1624.16 169.926 1624.44 169.84C1624.72 169.754 1624.99 169.643 1625.24 169.506V170.701C1624.99 170.842 1624.73 170.945 1624.45 171.012C1624.16 171.082 1623.82 171.117 1623.41 171.117Z" fill="white"/>
</svg>
