<svg width="24" height="25" viewBox="0 0 24 25" fill="none" xmlns="http://www.w3.org/2000/svg">
<path d="M9 10.6201V12.6201H7V10.6201H9ZM13 10.6201V12.6201H11V10.6201H13ZM17 10.6201V12.6201H15V10.6201H17ZM19 3.62012C19.5304 3.62012 20.0391 3.83083 20.4142 4.2059C20.7893 4.58098 21 5.08968 21 5.62012V19.6201C21 20.1506 20.7893 20.6593 20.4142 21.0343C20.0391 21.4094 19.5304 21.6201 19 21.6201H5C4.46957 21.6201 3.96086 21.4094 3.58579 21.0343C3.21071 20.6593 3 20.1506 3 19.6201V5.62012C3 5.08968 3.21071 4.58098 3.58579 4.2059C3.96086 3.83083 4.46957 3.62012 5 3.62012H6V1.62012H8V3.62012H16V1.62012H18V3.62012H19ZM19 19.6201V8.62012H5V19.6201H19ZM9 14.6201V16.6201H7V14.6201H9ZM13 14.6201V16.6201H11V14.6201H13ZM17 14.6201V16.6201H15V14.6201H17Z" fill="#808080"/>
<path d="M9 10.6201V12.6201H7V10.6201H9ZM13 10.6201V12.6201H11V10.6201H13ZM17 10.6201V12.6201H15V10.6201H17ZM19 3.62012C19.5304 3.62012 20.0391 3.83083 20.4142 4.2059C20.7893 4.58098 21 5.08968 21 5.62012V19.6201C21 20.1506 20.7893 20.6593 20.4142 21.0343C20.0391 21.4094 19.5304 21.6201 19 21.6201H5C4.46957 21.6201 3.96086 21.4094 3.58579 21.0343C3.21071 20.6593 3 20.1506 3 19.6201V5.62012C3 5.08968 3.21071 4.58098 3.58579 4.2059C3.96086 3.83083 4.46957 3.62012 5 3.62012H6V1.62012H8V3.62012H16V1.62012H18V3.62012H19ZM19 19.6201V8.62012H5V19.6201H19ZM9 14.6201V16.6201H7V14.6201H9ZM13 14.6201V16.6201H11V14.6201H13ZM17 14.6201V16.6201H15V14.6201H17Z" fill="black" fill-opacity="0.5"/>
</svg>
