<svg width="24" height="25" viewBox="0 0 24 25" fill="none" xmlns="http://www.w3.org/2000/svg">
<path d="M12 17.6201C12.5304 17.6201 13.0391 17.4094 13.4142 17.0343C13.7893 16.6593 14 16.1505 14 15.6201C14 15.0897 13.7893 14.581 13.4142 14.2059C13.0391 13.8308 12.5304 13.6201 12 13.6201C11.4696 13.6201 10.9609 13.8308 10.5858 14.2059C10.2107 14.581 10 15.0897 10 15.6201C10 16.1505 10.2107 16.6593 10.5858 17.0343C10.9609 17.4094 11.4696 17.6201 12 17.6201ZM18 8.62012C18.5304 8.62012 19.0391 8.83083 19.4142 9.2059C19.7893 9.58098 20 10.0897 20 10.6201V20.6201C20 21.1506 19.7893 21.6593 19.4142 22.0343C19.0391 22.4094 18.5304 22.6201 18 22.6201H6C5.46957 22.6201 4.96086 22.4094 4.58579 22.0343C4.21071 21.6593 4 21.1506 4 20.6201V10.6201C4 10.0897 4.21071 9.58098 4.58579 9.2059C4.96086 8.83083 5.46957 8.62012 6 8.62012H7V6.62012C7 5.29403 7.52678 4.02227 8.46447 3.08458C9.40215 2.1469 10.6739 1.62012 12 1.62012C12.6566 1.62012 13.3068 1.74945 13.9134 2.00072C14.52 2.25199 15.0712 2.62029 15.5355 3.08458C15.9998 3.54888 16.3681 4.10007 16.6194 4.7067C16.8707 5.31333 17 5.96351 17 6.62012V8.62012H18ZM12 3.62012C11.2044 3.62012 10.4413 3.93619 9.87868 4.4988C9.31607 5.06141 9 5.82447 9 6.62012V8.62012H15V6.62012C15 5.82447 14.6839 5.06141 14.1213 4.4988C13.5587 3.93619 12.7956 3.62012 12 3.62012Z" fill="#808080"/>
<path d="M12 17.6201C12.5304 17.6201 13.0391 17.4094 13.4142 17.0343C13.7893 16.6593 14 16.1505 14 15.6201C14 15.0897 13.7893 14.581 13.4142 14.2059C13.0391 13.8308 12.5304 13.6201 12 13.6201C11.4696 13.6201 10.9609 13.8308 10.5858 14.2059C10.2107 14.581 10 15.0897 10 15.6201C10 16.1505 10.2107 16.6593 10.5858 17.0343C10.9609 17.4094 11.4696 17.6201 12 17.6201ZM18 8.62012C18.5304 8.62012 19.0391 8.83083 19.4142 9.2059C19.7893 9.58098 20 10.0897 20 10.6201V20.6201C20 21.1506 19.7893 21.6593 19.4142 22.0343C19.0391 22.4094 18.5304 22.6201 18 22.6201H6C5.46957 22.6201 4.96086 22.4094 4.58579 22.0343C4.21071 21.6593 4 21.1506 4 20.6201V10.6201C4 10.0897 4.21071 9.58098 4.58579 9.2059C4.96086 8.83083 5.46957 8.62012 6 8.62012H7V6.62012C7 5.29403 7.52678 4.02227 8.46447 3.08458C9.40215 2.1469 10.6739 1.62012 12 1.62012C12.6566 1.62012 13.3068 1.74945 13.9134 2.00072C14.52 2.25199 15.0712 2.62029 15.5355 3.08458C15.9998 3.54888 16.3681 4.10007 16.6194 4.7067C16.8707 5.31333 17 5.96351 17 6.62012V8.62012H18ZM12 3.62012C11.2044 3.62012 10.4413 3.93619 9.87868 4.4988C9.31607 5.06141 9 5.82447 9 6.62012V8.62012H15V6.62012C15 5.82447 14.6839 5.06141 14.1213 4.4988C13.5587 3.93619 12.7956 3.62012 12 3.62012Z" fill="black" fill-opacity="0.5"/>
</svg>
