<svg width="24" height="24" viewBox="0 0 24 24" fill="none" xmlns="http://www.w3.org/2000/svg">
<path d="M17 22V20H20V17H22V20.5C22 20.89 21.84 21.24 21.54 21.54C21.24 21.84 20.89 22 20.5 22H17ZM7 22H3.5C3.11 22 2.76 21.84 2.46 21.54C2.16 21.24 2 20.89 2 20.5V17H4V20H7V22ZM17 2H20.5C20.89 2 21.24 2.16 21.54 2.46C21.84 2.76 22 3.11 22 3.5V7H20V4H17V2ZM7 2V4H4V7H2V3.5C2 3.11 2.16 2.76 2.46 2.46C2.76 2.16 3.11 2 3.5 2H7ZM10.5 6C13 6 15 8 15 10.5C15 11.38 14.75 12.2 14.31 12.9L17.57 16.16L16.16 17.57L12.9 14.31C12.2 14.75 11.38 15 10.5 15C8 15 6 13 6 10.5C6 8 8 6 10.5 6ZM10.5 8C9.83696 8 9.20107 8.26339 8.73223 8.73223C8.26339 9.20107 8 9.83696 8 10.5C8 11.163 8.26339 11.7989 8.73223 12.2678C9.20107 12.7366 9.83696 13 10.5 13C11.163 13 11.7989 12.7366 12.2678 12.2678C12.7366 11.7989 13 11.163 13 10.5C13 9.83696 12.7366 9.20107 12.2678 8.73223C11.7989 8.26339 11.163 8 10.5 8Z" fill="#808080"/>
<path d="M17 22V20H20V17H22V20.5C22 20.89 21.84 21.24 21.54 21.54C21.24 21.84 20.89 22 20.5 22H17ZM7 22H3.5C3.11 22 2.76 21.84 2.46 21.54C2.16 21.24 2 20.89 2 20.5V17H4V20H7V22ZM17 2H20.5C20.89 2 21.24 2.16 21.54 2.46C21.84 2.76 22 3.11 22 3.5V7H20V4H17V2ZM7 2V4H4V7H2V3.5C2 3.11 2.16 2.76 2.46 2.46C2.76 2.16 3.11 2 3.5 2H7ZM10.5 6C13 6 15 8 15 10.5C15 11.38 14.75 12.2 14.31 12.9L17.57 16.16L16.16 17.57L12.9 14.31C12.2 14.75 11.38 15 10.5 15C8 15 6 13 6 10.5C6 8 8 6 10.5 6ZM10.5 8C9.83696 8 9.20107 8.26339 8.73223 8.73223C8.26339 9.20107 8 9.83696 8 10.5C8 11.163 8.26339 11.7989 8.73223 12.2678C9.20107 12.7366 9.83696 13 10.5 13C11.163 13 11.7989 12.7366 12.2678 12.2678C12.7366 11.7989 13 11.163 13 10.5C13 9.83696 12.7366 9.20107 12.2678 8.73223C11.7989 8.26339 11.163 8 10.5 8Z" fill="black" fill-opacity="0.5"/>
</svg>
