<svg width="223" height="40" viewBox="0 0 223 40" fill="none" xmlns="http://www.w3.org/2000/svg">
<g clip-path="url(#clip0_260_8492)">
<path d="M68 37H55.0133L34 15.9867L12.9867 37H0L34 3L68 37Z" fill="#0045AC"/>
<path d="M42.0257 36.9999H25.9727L33.9992 28.9734L42.0257 36.9999Z" fill="#DD9C3A"/>
</g>
<path d="M86.9375 20L85.1602 15.459H79.4375L77.6797 20H76L81.6445 5.66406H83.041L88.6562 20H86.9375ZM84.6426 13.9648L82.9824 9.54102C82.7676 8.98112 82.5462 8.29427 82.3184 7.48047C82.1751 8.10547 81.9701 8.79232 81.7031 9.54102L80.0234 13.9648H84.6426ZM95.2878 9.10156C95.7631 9.10156 96.1895 9.14062 96.5671 9.21875L96.3425 10.7227C95.8998 10.625 95.5092 10.5762 95.1706 10.5762C94.3047 10.5762 93.5626 10.9277 92.9441 11.6309C92.3321 12.334 92.0261 13.2096 92.0261 14.2578V20H90.405V9.29688H91.7429L91.9284 11.2793H92.0066C92.4037 10.5827 92.8822 10.0456 93.4421 9.66797C94.002 9.29036 94.6172 9.10156 95.2878 9.10156ZM102.876 20.1953C101.327 20.1953 100.126 19.7201 99.2729 18.7695C98.4265 17.8125 98.0034 16.4616 98.0034 14.7168C98.0034 12.9264 98.433 11.543 99.2924 10.5664C100.158 9.58984 101.389 9.10156 102.984 9.10156C103.498 9.10156 104.012 9.1569 104.527 9.26758C105.041 9.37826 105.445 9.50846 105.738 9.6582L105.24 11.0352C104.882 10.8919 104.491 10.7747 104.068 10.6836C103.645 10.5859 103.27 10.5371 102.945 10.5371C100.77 10.5371 99.683 11.9238 99.683 14.6973C99.683 16.0124 99.9467 17.0215 100.474 17.7246C101.008 18.4277 101.796 18.7793 102.837 18.7793C103.729 18.7793 104.644 18.5872 105.581 18.2031V19.6387C104.865 20.0098 103.964 20.1953 102.876 20.1953ZM117.399 14.6387C117.399 16.3835 116.959 17.7474 116.08 18.7305C115.201 19.707 113.987 20.1953 112.438 20.1953C111.481 20.1953 110.631 19.9707 109.889 19.5215C109.147 19.0723 108.574 18.4277 108.17 17.5879C107.766 16.748 107.565 15.765 107.565 14.6387C107.565 12.8939 108.001 11.5365 108.873 10.5664C109.746 9.58984 110.957 9.10156 112.506 9.10156C114.003 9.10156 115.192 9.59961 116.07 10.5957C116.956 11.5918 117.399 12.9395 117.399 14.6387ZM109.244 14.6387C109.244 16.0059 109.518 17.0475 110.065 17.7637C110.611 18.4798 111.416 18.8379 112.477 18.8379C113.538 18.8379 114.342 18.4831 114.889 17.7734C115.442 17.0573 115.719 16.0124 115.719 14.6387C115.719 13.278 115.442 12.2461 114.889 11.543C114.342 10.8333 113.531 10.4785 112.457 10.4785C111.396 10.4785 110.595 10.8268 110.055 11.5234C109.514 12.2201 109.244 13.2585 109.244 14.6387ZM121.901 20H120.28V9.29688H121.901V20ZM120.143 6.39648C120.143 6.02539 120.235 5.75521 120.417 5.58594C120.599 5.41016 120.827 5.32227 121.1 5.32227C121.361 5.32227 121.585 5.41016 121.774 5.58594C121.963 5.76172 122.057 6.0319 122.057 6.39648C122.057 6.76107 121.963 7.03451 121.774 7.2168C121.585 7.39258 121.361 7.48047 121.1 7.48047C120.827 7.48047 120.599 7.39258 120.417 7.2168C120.235 7.03451 120.143 6.76107 120.143 6.39648ZM132.693 20V13.0762C132.693 12.2038 132.494 11.5527 132.097 11.123C131.7 10.6934 131.078 10.4785 130.232 10.4785C129.112 10.4785 128.292 10.7812 127.771 11.3867C127.25 11.9922 126.99 12.9915 126.99 14.3848V20H125.369V9.29688H126.687L126.951 10.7617H127.029C127.361 10.2344 127.826 9.82747 128.425 9.54102C129.024 9.24805 129.692 9.10156 130.427 9.10156C131.716 9.10156 132.686 9.41406 133.338 10.0391C133.989 10.6576 134.314 11.6504 134.314 13.0176V20H132.693ZM144.588 17.0801C144.588 18.0762 144.217 18.8444 143.475 19.3848C142.733 19.9251 141.691 20.1953 140.35 20.1953C138.931 20.1953 137.824 19.9707 137.03 19.5215V18.0176C137.544 18.278 138.094 18.4831 138.68 18.6328C139.272 18.7826 139.842 18.8574 140.389 18.8574C141.235 18.8574 141.886 18.724 142.342 18.457C142.798 18.1836 143.026 17.7702 143.026 17.2168C143.026 16.8001 142.843 16.4453 142.479 16.1523C142.121 15.8529 141.418 15.5013 140.369 15.0977C139.373 14.7266 138.664 14.4043 138.241 14.1309C137.824 13.8509 137.511 13.5352 137.303 13.1836C137.101 12.832 137 12.4121 137 11.9238C137 11.0514 137.355 10.3646 138.065 9.86328C138.774 9.35547 139.748 9.10156 140.985 9.10156C142.137 9.10156 143.263 9.33594 144.364 9.80469L143.787 11.123C142.713 10.6803 141.74 10.459 140.868 10.459C140.099 10.459 139.52 10.5794 139.129 10.8203C138.739 11.0612 138.543 11.3932 138.543 11.8164C138.543 12.1029 138.615 12.347 138.758 12.5488C138.908 12.7507 139.145 12.9427 139.471 13.125C139.797 13.3073 140.422 13.571 141.346 13.916C142.616 14.3783 143.472 14.8438 143.914 15.3125C144.364 15.7812 144.588 16.3704 144.588 17.0801Z" fill="#808080"/>
<path d="M86.9375 20L85.1602 15.459H79.4375L77.6797 20H76L81.6445 5.66406H83.041L88.6562 20H86.9375ZM84.6426 13.9648L82.9824 9.54102C82.7676 8.98112 82.5462 8.29427 82.3184 7.48047C82.1751 8.10547 81.9701 8.79232 81.7031 9.54102L80.0234 13.9648H84.6426ZM95.2878 9.10156C95.7631 9.10156 96.1895 9.14062 96.5671 9.21875L96.3425 10.7227C95.8998 10.625 95.5092 10.5762 95.1706 10.5762C94.3047 10.5762 93.5626 10.9277 92.9441 11.6309C92.3321 12.334 92.0261 13.2096 92.0261 14.2578V20H90.405V9.29688H91.7429L91.9284 11.2793H92.0066C92.4037 10.5827 92.8822 10.0456 93.4421 9.66797C94.002 9.29036 94.6172 9.10156 95.2878 9.10156ZM102.876 20.1953C101.327 20.1953 100.126 19.7201 99.2729 18.7695C98.4265 17.8125 98.0034 16.4616 98.0034 14.7168C98.0034 12.9264 98.433 11.543 99.2924 10.5664C100.158 9.58984 101.389 9.10156 102.984 9.10156C103.498 9.10156 104.012 9.1569 104.527 9.26758C105.041 9.37826 105.445 9.50846 105.738 9.6582L105.24 11.0352C104.882 10.8919 104.491 10.7747 104.068 10.6836C103.645 10.5859 103.27 10.5371 102.945 10.5371C100.77 10.5371 99.683 11.9238 99.683 14.6973C99.683 16.0124 99.9467 17.0215 100.474 17.7246C101.008 18.4277 101.796 18.7793 102.837 18.7793C103.729 18.7793 104.644 18.5872 105.581 18.2031V19.6387C104.865 20.0098 103.964 20.1953 102.876 20.1953ZM117.399 14.6387C117.399 16.3835 116.959 17.7474 116.08 18.7305C115.201 19.707 113.987 20.1953 112.438 20.1953C111.481 20.1953 110.631 19.9707 109.889 19.5215C109.147 19.0723 108.574 18.4277 108.17 17.5879C107.766 16.748 107.565 15.765 107.565 14.6387C107.565 12.8939 108.001 11.5365 108.873 10.5664C109.746 9.58984 110.957 9.10156 112.506 9.10156C114.003 9.10156 115.192 9.59961 116.07 10.5957C116.956 11.5918 117.399 12.9395 117.399 14.6387ZM109.244 14.6387C109.244 16.0059 109.518 17.0475 110.065 17.7637C110.611 18.4798 111.416 18.8379 112.477 18.8379C113.538 18.8379 114.342 18.4831 114.889 17.7734C115.442 17.0573 115.719 16.0124 115.719 14.6387C115.719 13.278 115.442 12.2461 114.889 11.543C114.342 10.8333 113.531 10.4785 112.457 10.4785C111.396 10.4785 110.595 10.8268 110.055 11.5234C109.514 12.2201 109.244 13.2585 109.244 14.6387ZM121.901 20H120.28V9.29688H121.901V20ZM120.143 6.39648C120.143 6.02539 120.235 5.75521 120.417 5.58594C120.599 5.41016 120.827 5.32227 121.1 5.32227C121.361 5.32227 121.585 5.41016 121.774 5.58594C121.963 5.76172 122.057 6.0319 122.057 6.39648C122.057 6.76107 121.963 7.03451 121.774 7.2168C121.585 7.39258 121.361 7.48047 121.1 7.48047C120.827 7.48047 120.599 7.39258 120.417 7.2168C120.235 7.03451 120.143 6.76107 120.143 6.39648ZM132.693 20V13.0762C132.693 12.2038 132.494 11.5527 132.097 11.123C131.7 10.6934 131.078 10.4785 130.232 10.4785C129.112 10.4785 128.292 10.7812 127.771 11.3867C127.25 11.9922 126.99 12.9915 126.99 14.3848V20H125.369V9.29688H126.687L126.951 10.7617H127.029C127.361 10.2344 127.826 9.82747 128.425 9.54102C129.024 9.24805 129.692 9.10156 130.427 9.10156C131.716 9.10156 132.686 9.41406 133.338 10.0391C133.989 10.6576 134.314 11.6504 134.314 13.0176V20H132.693ZM144.588 17.0801C144.588 18.0762 144.217 18.8444 143.475 19.3848C142.733 19.9251 141.691 20.1953 140.35 20.1953C138.931 20.1953 137.824 19.9707 137.03 19.5215V18.0176C137.544 18.278 138.094 18.4831 138.68 18.6328C139.272 18.7826 139.842 18.8574 140.389 18.8574C141.235 18.8574 141.886 18.724 142.342 18.457C142.798 18.1836 143.026 17.7702 143.026 17.2168C143.026 16.8001 142.843 16.4453 142.479 16.1523C142.121 15.8529 141.418 15.5013 140.369 15.0977C139.373 14.7266 138.664 14.4043 138.241 14.1309C137.824 13.8509 137.511 13.5352 137.303 13.1836C137.101 12.832 137 12.4121 137 11.9238C137 11.0514 137.355 10.3646 138.065 9.86328C138.774 9.35547 139.748 9.10156 140.985 9.10156C142.137 9.10156 143.263 9.33594 144.364 9.80469L143.787 11.123C142.713 10.6803 141.74 10.459 140.868 10.459C140.099 10.459 139.52 10.5794 139.129 10.8203C138.739 11.0612 138.543 11.3932 138.543 11.8164C138.543 12.1029 138.615 12.347 138.758 12.5488C138.908 12.7507 139.145 12.9427 139.471 13.125C139.797 13.3073 140.422 13.571 141.346 13.916C142.616 14.3783 143.472 14.8438 143.914 15.3125C144.364 15.7812 144.588 16.3704 144.588 17.0801Z" fill="black" fill-opacity="0.5"/>
<path d="M81.4688 36L80.5801 33.7295H77.7188L76.8398 36H76L78.8223 28.832H79.5205L82.3281 36H81.4688ZM80.3213 32.9824L79.4912 30.7705C79.3838 30.4906 79.2731 30.1471 79.1592 29.7402C79.0876 30.0527 78.985 30.3962 78.8516 30.7705L78.0117 32.9824H80.3213ZM85.7789 30.5508C86.0165 30.5508 86.2298 30.5703 86.4186 30.6094L86.3063 31.3613C86.0849 31.3125 85.8896 31.2881 85.7203 31.2881C85.2874 31.2881 84.9163 31.4639 84.607 31.8154C84.301 32.167 84.148 32.6048 84.148 33.1289V36H83.3375V30.6484H84.0064L84.0992 31.6396H84.1383C84.3368 31.2913 84.5761 31.0228 84.8561 30.834C85.136 30.6452 85.4436 30.5508 85.7789 30.5508ZM89.7082 36.0977C88.9335 36.0977 88.3329 35.86 87.9064 35.3848C87.4833 34.9062 87.2717 34.2308 87.2717 33.3584C87.2717 32.4632 87.4865 31.7715 87.9162 31.2832C88.3492 30.7949 88.9644 30.5508 89.7619 30.5508C90.0191 30.5508 90.2762 30.5785 90.5334 30.6338C90.7906 30.6891 90.9924 30.7542 91.1389 30.8291L90.8898 31.5176C90.7108 31.446 90.5155 31.3874 90.3039 31.3418C90.0923 31.293 89.9051 31.2686 89.7424 31.2686C88.6551 31.2686 88.1115 31.9619 88.1115 33.3486C88.1115 34.0062 88.2434 34.5107 88.507 34.8623C88.774 35.2139 89.1678 35.3896 89.6887 35.3896C90.1346 35.3896 90.592 35.2936 91.0607 35.1016V35.8193C90.7027 36.0049 90.2518 36.0977 89.7082 36.0977ZM96.1473 36V32.5381C96.1473 32.1019 96.048 31.7764 95.8494 31.5615C95.6508 31.3467 95.34 31.2393 94.9168 31.2393C94.3536 31.2393 93.9419 31.3923 93.6814 31.6982C93.4243 32.0042 93.2957 32.5055 93.2957 33.2021V36H92.4852V28.4023H93.2957V30.7021C93.2957 30.9788 93.2827 31.2083 93.2566 31.3906H93.3055C93.465 31.1335 93.6912 30.9316 93.9842 30.7852C94.2804 30.6354 94.6173 30.5605 94.9949 30.5605C95.6492 30.5605 96.1391 30.7168 96.4646 31.0293C96.7934 31.3385 96.9578 31.8317 96.9578 32.5088V36H96.1473ZM99.5883 36H98.7777V30.6484H99.5883V36ZM98.7094 29.1982C98.7094 29.0127 98.7549 28.8776 98.8461 28.793C98.9372 28.7051 99.0512 28.6611 99.1879 28.6611C99.3181 28.6611 99.4304 28.7051 99.5248 28.793C99.6192 28.8809 99.6664 29.016 99.6664 29.1982C99.6664 29.3805 99.6192 29.5173 99.5248 29.6084C99.4304 29.6963 99.3181 29.7402 99.1879 29.7402C99.0512 29.7402 98.9372 29.6963 98.8461 29.6084C98.7549 29.5173 98.7094 29.3805 98.7094 29.1982ZM103.186 35.4287C103.329 35.4287 103.467 35.4189 103.601 35.3994C103.734 35.3766 103.84 35.3538 103.918 35.3311V35.9512C103.83 35.9935 103.7 36.0277 103.527 36.0537C103.358 36.083 103.205 36.0977 103.068 36.0977C102.033 36.0977 101.516 35.5524 101.516 34.4619V31.2783H100.749V30.8877L101.516 30.5508L101.857 29.4082H102.326V30.6484H103.879V31.2783H102.326V34.4277C102.326 34.75 102.403 34.9974 102.556 35.1699C102.709 35.3424 102.919 35.4287 103.186 35.4287ZM107.403 36.0977C106.612 36.0977 105.987 35.8568 105.528 35.375C105.072 34.8932 104.844 34.2243 104.844 33.3682C104.844 32.5055 105.056 31.8203 105.479 31.3125C105.906 30.8047 106.477 30.5508 107.193 30.5508C107.864 30.5508 108.394 30.7721 108.785 31.2148C109.175 31.6543 109.371 32.2354 109.371 32.958V33.4707H105.684C105.7 34.099 105.858 34.5758 106.158 34.9014C106.461 35.2269 106.885 35.3896 107.432 35.3896C108.008 35.3896 108.578 35.2692 109.141 35.0283V35.751C108.855 35.8747 108.583 35.9626 108.326 36.0146C108.072 36.07 107.764 36.0977 107.403 36.0977ZM107.183 31.2295C106.754 31.2295 106.41 31.3695 106.153 31.6494C105.899 31.9294 105.749 32.3167 105.704 32.8115H108.502C108.502 32.3005 108.388 31.9098 108.16 31.6396C107.932 31.3662 107.606 31.2295 107.183 31.2295ZM113.046 36.0977C112.271 36.0977 111.671 35.86 111.244 35.3848C110.821 34.9062 110.61 34.2308 110.61 33.3584C110.61 32.4632 110.824 31.7715 111.254 31.2832C111.687 30.7949 112.302 30.5508 113.1 30.5508C113.357 30.5508 113.614 30.5785 113.871 30.6338C114.128 30.6891 114.33 30.7542 114.477 30.8291L114.228 31.5176C114.049 31.446 113.853 31.3874 113.642 31.3418C113.43 31.293 113.243 31.2686 113.08 31.2686C111.993 31.2686 111.449 31.9619 111.449 33.3486C111.449 34.0062 111.581 34.5107 111.845 34.8623C112.112 35.2139 112.506 35.3896 113.027 35.3896C113.473 35.3896 113.93 35.2936 114.399 35.1016V35.8193C114.041 36.0049 113.59 36.0977 113.046 36.0977ZM117.552 35.4287C117.695 35.4287 117.833 35.4189 117.967 35.3994C118.1 35.3766 118.206 35.3538 118.284 35.3311V35.9512C118.196 35.9935 118.066 36.0277 117.893 36.0537C117.724 36.083 117.571 36.0977 117.434 36.0977C116.399 36.0977 115.882 35.5524 115.882 34.4619V31.2783H115.115V30.8877L115.882 30.5508L116.223 29.4082H116.692V30.6484H118.245V31.2783H116.692V34.4277C116.692 34.75 116.769 34.9974 116.922 35.1699C117.075 35.3424 117.285 35.4287 117.552 35.4287ZM125.435 29.501C124.65 29.501 124.03 29.763 123.574 30.2871C123.122 30.8079 122.896 31.5225 122.896 32.4307C122.896 33.3649 123.114 34.0876 123.55 34.5986C123.989 35.1064 124.614 35.3604 125.425 35.3604C125.923 35.3604 126.491 35.2708 127.129 35.0918V35.8193C126.634 36.0049 126.024 36.0977 125.298 36.0977C124.246 36.0977 123.434 35.7786 122.861 35.1406C122.292 34.5026 122.007 33.596 122.007 32.4209C122.007 31.6852 122.144 31.0407 122.417 30.4873C122.694 29.9339 123.091 29.5075 123.608 29.208C124.129 28.9085 124.741 28.7588 125.444 28.7588C126.193 28.7588 126.847 28.8955 127.407 29.1689L127.056 29.8818C126.515 29.6279 125.975 29.501 125.435 29.501ZM133.334 33.3193C133.334 34.1917 133.114 34.8737 132.674 35.3652C132.235 35.8535 131.628 36.0977 130.853 36.0977C130.375 36.0977 129.95 35.9854 129.579 35.7607C129.208 35.5361 128.921 35.2139 128.719 34.7939C128.518 34.374 128.417 33.8825 128.417 33.3193C128.417 32.4469 128.635 31.7682 129.071 31.2832C129.507 30.7949 130.113 30.5508 130.887 30.5508C131.636 30.5508 132.23 30.7998 132.67 31.2979C133.112 31.7959 133.334 32.4697 133.334 33.3193ZM129.256 33.3193C129.256 34.0029 129.393 34.5238 129.667 34.8818C129.94 35.2399 130.342 35.4189 130.873 35.4189C131.403 35.4189 131.805 35.2415 132.079 34.8867C132.355 34.5286 132.494 34.0062 132.494 33.3193C132.494 32.639 132.355 32.123 132.079 31.7715C131.805 31.4167 131.4 31.2393 130.863 31.2393C130.332 31.2393 129.932 31.4134 129.662 31.7617C129.392 32.11 129.256 32.6292 129.256 33.3193ZM135.72 36H134.909V30.6484H135.72V36ZM134.841 29.1982C134.841 29.0127 134.887 28.8776 134.978 28.793C135.069 28.7051 135.183 28.6611 135.32 28.6611C135.45 28.6611 135.562 28.7051 135.656 28.793C135.751 28.8809 135.798 29.016 135.798 29.1982C135.798 29.3805 135.751 29.5173 135.656 29.6084C135.562 29.6963 135.45 29.7402 135.32 29.7402C135.183 29.7402 135.069 29.6963 134.978 29.6084C134.887 29.5173 134.841 29.3805 134.841 29.1982ZM141.251 36V32.5381C141.251 32.1019 141.151 31.7764 140.953 31.5615C140.754 31.3467 140.443 31.2393 140.02 31.2393C139.46 31.2393 139.05 31.3906 138.79 31.6934C138.529 31.9961 138.399 32.4958 138.399 33.1924V36H137.589V30.6484H138.248L138.38 31.3809H138.419C138.585 31.1172 138.818 30.9137 139.117 30.7705C139.416 30.624 139.75 30.5508 140.118 30.5508C140.763 30.5508 141.248 30.707 141.573 31.0195C141.899 31.3288 142.061 31.8252 142.061 32.5088V36H141.251ZM147.333 34.54C147.333 35.0381 147.148 35.4222 146.777 35.6924C146.406 35.9626 145.885 36.0977 145.214 36.0977C144.505 36.0977 143.951 35.9854 143.554 35.7607V35.0088C143.811 35.139 144.086 35.2415 144.379 35.3164C144.676 35.3913 144.96 35.4287 145.234 35.4287C145.657 35.4287 145.982 35.362 146.21 35.2285C146.438 35.0918 146.552 34.8851 146.552 34.6084C146.552 34.4001 146.461 34.2227 146.279 34.0762C146.1 33.9264 145.748 33.7507 145.224 33.5488C144.726 33.3633 144.371 33.2021 144.16 33.0654C143.951 32.9255 143.795 32.7676 143.691 32.5918C143.59 32.416 143.539 32.2061 143.539 31.9619C143.539 31.5257 143.717 31.1823 144.072 30.9316C144.426 30.6777 144.913 30.5508 145.532 30.5508C146.108 30.5508 146.671 30.668 147.221 30.9023L146.933 31.5615C146.396 31.3402 145.909 31.2295 145.473 31.2295C145.089 31.2295 144.799 31.2897 144.604 31.4102C144.409 31.5306 144.311 31.6966 144.311 31.9082C144.311 32.0514 144.347 32.1735 144.418 32.2744C144.493 32.3753 144.612 32.4714 144.775 32.5625C144.938 32.6536 145.25 32.7855 145.712 32.958C146.347 33.1891 146.775 33.4219 146.996 33.6562C147.221 33.8906 147.333 34.1852 147.333 34.54ZM151.105 33.6904V32.9482H153.503V33.6904H151.105ZM162.284 36L161.395 33.7295H158.534L157.655 36H156.815L159.637 28.832H160.336L163.143 36H162.284ZM161.137 32.9824L160.306 30.7705C160.199 30.4906 160.088 30.1471 159.974 29.7402C159.903 30.0527 159.8 30.3962 159.667 30.7705L158.827 32.9824H161.137ZM168.023 31.3076L167.95 31.2002C168.132 30.5003 168.422 29.7207 168.819 28.8613H169.42C169.322 29.2357 169.225 29.6589 169.127 30.1309C169.033 30.5996 168.964 30.9919 168.922 31.3076H168.023ZM166.222 31.3076L166.163 31.2002C166.235 30.9072 166.35 30.5426 166.51 30.1064C166.669 29.6702 166.84 29.2552 167.022 28.8613H167.623C167.408 29.6882 167.241 30.5036 167.12 31.3076H166.222ZM171.508 33.0312V36H170.678V28.8613H172.636C173.512 28.8613 174.158 29.029 174.575 29.3643C174.995 29.6995 175.205 30.2041 175.205 30.8779C175.205 31.8219 174.726 32.46 173.769 32.792L175.708 36H174.726L172.998 33.0312H171.508ZM171.508 32.3184H172.646C173.232 32.3184 173.662 32.2028 173.935 31.9717C174.209 31.7373 174.345 31.3874 174.345 30.9219C174.345 30.4499 174.205 30.1097 173.925 29.9014C173.649 29.693 173.203 29.5889 172.588 29.5889H171.508V32.3184ZM179.149 36.0977C178.358 36.0977 177.733 35.8568 177.274 35.375C176.818 34.8932 176.59 34.2243 176.59 33.3682C176.59 32.5055 176.802 31.8203 177.225 31.3125C177.651 30.8047 178.223 30.5508 178.939 30.5508C179.609 30.5508 180.14 30.7721 180.53 31.2148C180.921 31.6543 181.116 32.2354 181.116 32.958V33.4707H177.43C177.446 34.099 177.604 34.5758 177.904 34.9014C178.206 35.2269 178.631 35.3896 179.178 35.3896C179.754 35.3896 180.324 35.2692 180.887 35.0283V35.751C180.6 35.8747 180.329 35.9626 180.071 36.0146C179.818 36.07 179.51 36.0977 179.149 36.0977ZM178.929 31.2295C178.499 31.2295 178.156 31.3695 177.899 31.6494C177.645 31.9294 177.495 32.3167 177.449 32.8115H180.247C180.247 32.3005 180.133 31.9098 179.905 31.6396C179.678 31.3662 179.352 31.2295 178.929 31.2295ZM185.944 36L185.783 35.2383H185.744C185.477 35.5736 185.21 35.8014 184.943 35.9219C184.679 36.0391 184.349 36.0977 183.952 36.0977C183.421 36.0977 183.005 35.9609 182.702 35.6875C182.402 35.4141 182.253 35.0251 182.253 34.5205C182.253 33.4398 183.117 32.8734 184.846 32.8213L185.754 32.792V32.46C185.754 32.04 185.663 31.7308 185.48 31.5322C185.301 31.3304 185.013 31.2295 184.616 31.2295C184.17 31.2295 183.665 31.3662 183.102 31.6396L182.853 31.0195C183.117 30.8763 183.405 30.764 183.718 30.6826C184.033 30.6012 184.349 30.5605 184.665 30.5605C185.303 30.5605 185.775 30.7021 186.081 30.9854C186.39 31.2686 186.545 31.7227 186.545 32.3477V36H185.944ZM184.113 35.4287C184.618 35.4287 185.013 35.2904 185.3 35.0137C185.589 34.737 185.734 34.3496 185.734 33.8516V33.3682L184.924 33.4023C184.279 33.4251 183.814 33.526 183.527 33.7051C183.244 33.8809 183.102 34.1559 183.102 34.5303C183.102 34.8232 183.19 35.0462 183.366 35.1992C183.545 35.3522 183.794 35.4287 184.113 35.4287ZM189.18 36H188.37V28.4023H189.18V36ZM191.698 28.8613L191.771 28.9688C191.687 29.2943 191.565 29.6735 191.405 30.1064C191.246 30.5361 191.08 30.9365 190.907 31.3076H190.312C190.539 30.3799 190.705 29.5645 190.81 28.8613H191.698ZM193.5 28.8613L193.568 28.9688C193.49 29.265 193.373 29.6296 193.217 30.0625C193.061 30.4954 192.891 30.9105 192.709 31.3076H192.099C192.183 30.9821 192.279 30.5687 192.387 30.0674C192.494 29.5661 192.569 29.1641 192.611 28.8613H193.5ZM200.631 29.501C199.847 29.501 199.226 29.763 198.771 30.2871C198.318 30.8079 198.092 31.5225 198.092 32.4307C198.092 33.3649 198.31 34.0876 198.746 34.5986C199.186 35.1064 199.811 35.3604 200.621 35.3604C201.119 35.3604 201.687 35.2708 202.325 35.0918V35.8193C201.831 36.0049 201.22 36.0977 200.494 36.0977C199.443 36.0977 198.631 35.7786 198.058 35.1406C197.488 34.5026 197.203 33.596 197.203 32.4209C197.203 31.6852 197.34 31.0407 197.613 30.4873C197.89 29.9339 198.287 29.5075 198.805 29.208C199.326 28.9085 199.938 28.7588 200.641 28.7588C201.39 28.7588 202.044 28.8955 202.604 29.1689L202.252 29.8818C201.712 29.6279 201.171 29.501 200.631 29.501ZM208.53 33.3193C208.53 34.1917 208.31 34.8737 207.871 35.3652C207.431 35.8535 206.824 36.0977 206.05 36.0977C205.571 36.0977 205.146 35.9854 204.775 35.7607C204.404 35.5361 204.118 35.2139 203.916 34.7939C203.714 34.374 203.613 33.8825 203.613 33.3193C203.613 32.4469 203.831 31.7682 204.267 31.2832C204.704 30.7949 205.309 30.5508 206.084 30.5508C206.832 30.5508 207.427 30.7998 207.866 31.2979C208.309 31.7959 208.53 32.4697 208.53 33.3193ZM204.453 33.3193C204.453 34.0029 204.59 34.5238 204.863 34.8818C205.137 35.2399 205.539 35.4189 206.069 35.4189C206.6 35.4189 207.002 35.2415 207.275 34.8867C207.552 34.5286 207.69 34.0062 207.69 33.3193C207.69 32.639 207.552 32.123 207.275 31.7715C207.002 31.4167 206.596 31.2393 206.059 31.2393C205.529 31.2393 205.128 31.4134 204.858 31.7617C204.588 32.11 204.453 32.6292 204.453 33.3193ZM210.916 36H210.106V30.6484H210.916V36ZM210.038 29.1982C210.038 29.0127 210.083 28.8776 210.174 28.793C210.265 28.7051 210.379 28.6611 210.516 28.6611C210.646 28.6611 210.759 28.7051 210.853 28.793C210.947 28.8809 210.995 29.016 210.995 29.1982C210.995 29.3805 210.947 29.5173 210.853 29.6084C210.759 29.6963 210.646 29.7402 210.516 29.7402C210.379 29.7402 210.265 29.6963 210.174 29.6084C210.083 29.5173 210.038 29.3805 210.038 29.1982ZM216.447 36V32.5381C216.447 32.1019 216.348 31.7764 216.149 31.5615C215.951 31.3467 215.64 31.2393 215.217 31.2393C214.657 31.2393 214.247 31.3906 213.986 31.6934C213.726 31.9961 213.596 32.4958 213.596 33.1924V36H212.785V30.6484H213.444L213.576 31.3809H213.615C213.781 31.1172 214.014 30.9137 214.313 30.7705C214.613 30.624 214.947 30.5508 215.314 30.5508C215.959 30.5508 216.444 30.707 216.77 31.0195C217.095 31.3288 217.258 31.8252 217.258 32.5088V36H216.447ZM222.53 34.54C222.53 35.0381 222.344 35.4222 221.973 35.6924C221.602 35.9626 221.081 36.0977 220.411 36.0977C219.701 36.0977 219.148 35.9854 218.751 35.7607V35.0088C219.008 35.139 219.283 35.2415 219.576 35.3164C219.872 35.3913 220.157 35.4287 220.43 35.4287C220.853 35.4287 221.179 35.362 221.407 35.2285C221.635 35.0918 221.749 34.8851 221.749 34.6084C221.749 34.4001 221.657 34.2227 221.475 34.0762C221.296 33.9264 220.945 33.7507 220.421 33.5488C219.922 33.3633 219.568 33.2021 219.356 33.0654C219.148 32.9255 218.991 32.7676 218.887 32.5918C218.786 32.416 218.736 32.2061 218.736 31.9619C218.736 31.5257 218.913 31.1823 219.268 30.9316C219.623 30.6777 220.11 30.5508 220.728 30.5508C221.304 30.5508 221.867 30.668 222.418 30.9023L222.129 31.5615C221.592 31.3402 221.106 31.2295 220.67 31.2295C220.285 31.2295 219.996 31.2897 219.8 31.4102C219.605 31.5306 219.507 31.6966 219.507 31.9082C219.507 32.0514 219.543 32.1735 219.615 32.2744C219.69 32.3753 219.809 32.4714 219.971 32.5625C220.134 32.6536 220.447 32.7855 220.909 32.958C221.544 33.1891 221.972 33.4219 222.193 33.6562C222.418 33.8906 222.53 34.1852 222.53 34.54Z" fill="#808080"/>
<path d="M81.4688 36L80.5801 33.7295H77.7188L76.8398 36H76L78.8223 28.832H79.5205L82.3281 36H81.4688ZM80.3213 32.9824L79.4912 30.7705C79.3838 30.4906 79.2731 30.1471 79.1592 29.7402C79.0876 30.0527 78.985 30.3962 78.8516 30.7705L78.0117 32.9824H80.3213ZM85.7789 30.5508C86.0165 30.5508 86.2298 30.5703 86.4186 30.6094L86.3063 31.3613C86.0849 31.3125 85.8896 31.2881 85.7203 31.2881C85.2874 31.2881 84.9163 31.4639 84.607 31.8154C84.301 32.167 84.148 32.6048 84.148 33.1289V36H83.3375V30.6484H84.0064L84.0992 31.6396H84.1383C84.3368 31.2913 84.5761 31.0228 84.8561 30.834C85.136 30.6452 85.4436 30.5508 85.7789 30.5508ZM89.7082 36.0977C88.9335 36.0977 88.3329 35.86 87.9064 35.3848C87.4833 34.9062 87.2717 34.2308 87.2717 33.3584C87.2717 32.4632 87.4865 31.7715 87.9162 31.2832C88.3492 30.7949 88.9644 30.5508 89.7619 30.5508C90.0191 30.5508 90.2762 30.5785 90.5334 30.6338C90.7906 30.6891 90.9924 30.7542 91.1389 30.8291L90.8898 31.5176C90.7108 31.446 90.5155 31.3874 90.3039 31.3418C90.0923 31.293 89.9051 31.2686 89.7424 31.2686C88.6551 31.2686 88.1115 31.9619 88.1115 33.3486C88.1115 34.0062 88.2434 34.5107 88.507 34.8623C88.774 35.2139 89.1678 35.3896 89.6887 35.3896C90.1346 35.3896 90.592 35.2936 91.0607 35.1016V35.8193C90.7027 36.0049 90.2518 36.0977 89.7082 36.0977ZM96.1473 36V32.5381C96.1473 32.1019 96.048 31.7764 95.8494 31.5615C95.6508 31.3467 95.34 31.2393 94.9168 31.2393C94.3536 31.2393 93.9419 31.3923 93.6814 31.6982C93.4243 32.0042 93.2957 32.5055 93.2957 33.2021V36H92.4852V28.4023H93.2957V30.7021C93.2957 30.9788 93.2827 31.2083 93.2566 31.3906H93.3055C93.465 31.1335 93.6912 30.9316 93.9842 30.7852C94.2804 30.6354 94.6173 30.5605 94.9949 30.5605C95.6492 30.5605 96.1391 30.7168 96.4646 31.0293C96.7934 31.3385 96.9578 31.8317 96.9578 32.5088V36H96.1473ZM99.5883 36H98.7777V30.6484H99.5883V36ZM98.7094 29.1982C98.7094 29.0127 98.7549 28.8776 98.8461 28.793C98.9372 28.7051 99.0512 28.6611 99.1879 28.6611C99.3181 28.6611 99.4304 28.7051 99.5248 28.793C99.6192 28.8809 99.6664 29.016 99.6664 29.1982C99.6664 29.3805 99.6192 29.5173 99.5248 29.6084C99.4304 29.6963 99.3181 29.7402 99.1879 29.7402C99.0512 29.7402 98.9372 29.6963 98.8461 29.6084C98.7549 29.5173 98.7094 29.3805 98.7094 29.1982ZM103.186 35.4287C103.329 35.4287 103.467 35.4189 103.601 35.3994C103.734 35.3766 103.84 35.3538 103.918 35.3311V35.9512C103.83 35.9935 103.7 36.0277 103.527 36.0537C103.358 36.083 103.205 36.0977 103.068 36.0977C102.033 36.0977 101.516 35.5524 101.516 34.4619V31.2783H100.749V30.8877L101.516 30.5508L101.857 29.4082H102.326V30.6484H103.879V31.2783H102.326V34.4277C102.326 34.75 102.403 34.9974 102.556 35.1699C102.709 35.3424 102.919 35.4287 103.186 35.4287ZM107.403 36.0977C106.612 36.0977 105.987 35.8568 105.528 35.375C105.072 34.8932 104.844 34.2243 104.844 33.3682C104.844 32.5055 105.056 31.8203 105.479 31.3125C105.906 30.8047 106.477 30.5508 107.193 30.5508C107.864 30.5508 108.394 30.7721 108.785 31.2148C109.175 31.6543 109.371 32.2354 109.371 32.958V33.4707H105.684C105.7 34.099 105.858 34.5758 106.158 34.9014C106.461 35.2269 106.885 35.3896 107.432 35.3896C108.008 35.3896 108.578 35.2692 109.141 35.0283V35.751C108.855 35.8747 108.583 35.9626 108.326 36.0146C108.072 36.07 107.764 36.0977 107.403 36.0977ZM107.183 31.2295C106.754 31.2295 106.41 31.3695 106.153 31.6494C105.899 31.9294 105.749 32.3167 105.704 32.8115H108.502C108.502 32.3005 108.388 31.9098 108.16 31.6396C107.932 31.3662 107.606 31.2295 107.183 31.2295ZM113.046 36.0977C112.271 36.0977 111.671 35.86 111.244 35.3848C110.821 34.9062 110.61 34.2308 110.61 33.3584C110.61 32.4632 110.824 31.7715 111.254 31.2832C111.687 30.7949 112.302 30.5508 113.1 30.5508C113.357 30.5508 113.614 30.5785 113.871 30.6338C114.128 30.6891 114.33 30.7542 114.477 30.8291L114.228 31.5176C114.049 31.446 113.853 31.3874 113.642 31.3418C113.43 31.293 113.243 31.2686 113.08 31.2686C111.993 31.2686 111.449 31.9619 111.449 33.3486C111.449 34.0062 111.581 34.5107 111.845 34.8623C112.112 35.2139 112.506 35.3896 113.027 35.3896C113.473 35.3896 113.93 35.2936 114.399 35.1016V35.8193C114.041 36.0049 113.59 36.0977 113.046 36.0977ZM117.552 35.4287C117.695 35.4287 117.833 35.4189 117.967 35.3994C118.1 35.3766 118.206 35.3538 118.284 35.3311V35.9512C118.196 35.9935 118.066 36.0277 117.893 36.0537C117.724 36.083 117.571 36.0977 117.434 36.0977C116.399 36.0977 115.882 35.5524 115.882 34.4619V31.2783H115.115V30.8877L115.882 30.5508L116.223 29.4082H116.692V30.6484H118.245V31.2783H116.692V34.4277C116.692 34.75 116.769 34.9974 116.922 35.1699C117.075 35.3424 117.285 35.4287 117.552 35.4287ZM125.435 29.501C124.65 29.501 124.03 29.763 123.574 30.2871C123.122 30.8079 122.896 31.5225 122.896 32.4307C122.896 33.3649 123.114 34.0876 123.55 34.5986C123.989 35.1064 124.614 35.3604 125.425 35.3604C125.923 35.3604 126.491 35.2708 127.129 35.0918V35.8193C126.634 36.0049 126.024 36.0977 125.298 36.0977C124.246 36.0977 123.434 35.7786 122.861 35.1406C122.292 34.5026 122.007 33.596 122.007 32.4209C122.007 31.6852 122.144 31.0407 122.417 30.4873C122.694 29.9339 123.091 29.5075 123.608 29.208C124.129 28.9085 124.741 28.7588 125.444 28.7588C126.193 28.7588 126.847 28.8955 127.407 29.1689L127.056 29.8818C126.515 29.6279 125.975 29.501 125.435 29.501ZM133.334 33.3193C133.334 34.1917 133.114 34.8737 132.674 35.3652C132.235 35.8535 131.628 36.0977 130.853 36.0977C130.375 36.0977 129.95 35.9854 129.579 35.7607C129.208 35.5361 128.921 35.2139 128.719 34.7939C128.518 34.374 128.417 33.8825 128.417 33.3193C128.417 32.4469 128.635 31.7682 129.071 31.2832C129.507 30.7949 130.113 30.5508 130.887 30.5508C131.636 30.5508 132.23 30.7998 132.67 31.2979C133.112 31.7959 133.334 32.4697 133.334 33.3193ZM129.256 33.3193C129.256 34.0029 129.393 34.5238 129.667 34.8818C129.94 35.2399 130.342 35.4189 130.873 35.4189C131.403 35.4189 131.805 35.2415 132.079 34.8867C132.355 34.5286 132.494 34.0062 132.494 33.3193C132.494 32.639 132.355 32.123 132.079 31.7715C131.805 31.4167 131.4 31.2393 130.863 31.2393C130.332 31.2393 129.932 31.4134 129.662 31.7617C129.392 32.11 129.256 32.6292 129.256 33.3193ZM135.72 36H134.909V30.6484H135.72V36ZM134.841 29.1982C134.841 29.0127 134.887 28.8776 134.978 28.793C135.069 28.7051 135.183 28.6611 135.32 28.6611C135.45 28.6611 135.562 28.7051 135.656 28.793C135.751 28.8809 135.798 29.016 135.798 29.1982C135.798 29.3805 135.751 29.5173 135.656 29.6084C135.562 29.6963 135.45 29.7402 135.32 29.7402C135.183 29.7402 135.069 29.6963 134.978 29.6084C134.887 29.5173 134.841 29.3805 134.841 29.1982ZM141.251 36V32.5381C141.251 32.1019 141.151 31.7764 140.953 31.5615C140.754 31.3467 140.443 31.2393 140.02 31.2393C139.46 31.2393 139.05 31.3906 138.79 31.6934C138.529 31.9961 138.399 32.4958 138.399 33.1924V36H137.589V30.6484H138.248L138.38 31.3809H138.419C138.585 31.1172 138.818 30.9137 139.117 30.7705C139.416 30.624 139.75 30.5508 140.118 30.5508C140.763 30.5508 141.248 30.707 141.573 31.0195C141.899 31.3288 142.061 31.8252 142.061 32.5088V36H141.251ZM147.333 34.54C147.333 35.0381 147.148 35.4222 146.777 35.6924C146.406 35.9626 145.885 36.0977 145.214 36.0977C144.505 36.0977 143.951 35.9854 143.554 35.7607V35.0088C143.811 35.139 144.086 35.2415 144.379 35.3164C144.676 35.3913 144.96 35.4287 145.234 35.4287C145.657 35.4287 145.982 35.362 146.21 35.2285C146.438 35.0918 146.552 34.8851 146.552 34.6084C146.552 34.4001 146.461 34.2227 146.279 34.0762C146.1 33.9264 145.748 33.7507 145.224 33.5488C144.726 33.3633 144.371 33.2021 144.16 33.0654C143.951 32.9255 143.795 32.7676 143.691 32.5918C143.59 32.416 143.539 32.2061 143.539 31.9619C143.539 31.5257 143.717 31.1823 144.072 30.9316C144.426 30.6777 144.913 30.5508 145.532 30.5508C146.108 30.5508 146.671 30.668 147.221 30.9023L146.933 31.5615C146.396 31.3402 145.909 31.2295 145.473 31.2295C145.089 31.2295 144.799 31.2897 144.604 31.4102C144.409 31.5306 144.311 31.6966 144.311 31.9082C144.311 32.0514 144.347 32.1735 144.418 32.2744C144.493 32.3753 144.612 32.4714 144.775 32.5625C144.938 32.6536 145.25 32.7855 145.712 32.958C146.347 33.1891 146.775 33.4219 146.996 33.6562C147.221 33.8906 147.333 34.1852 147.333 34.54ZM151.105 33.6904V32.9482H153.503V33.6904H151.105ZM162.284 36L161.395 33.7295H158.534L157.655 36H156.815L159.637 28.832H160.336L163.143 36H162.284ZM161.137 32.9824L160.306 30.7705C160.199 30.4906 160.088 30.1471 159.974 29.7402C159.903 30.0527 159.8 30.3962 159.667 30.7705L158.827 32.9824H161.137ZM168.023 31.3076L167.95 31.2002C168.132 30.5003 168.422 29.7207 168.819 28.8613H169.42C169.322 29.2357 169.225 29.6589 169.127 30.1309C169.033 30.5996 168.964 30.9919 168.922 31.3076H168.023ZM166.222 31.3076L166.163 31.2002C166.235 30.9072 166.35 30.5426 166.51 30.1064C166.669 29.6702 166.84 29.2552 167.022 28.8613H167.623C167.408 29.6882 167.241 30.5036 167.12 31.3076H166.222ZM171.508 33.0312V36H170.678V28.8613H172.636C173.512 28.8613 174.158 29.029 174.575 29.3643C174.995 29.6995 175.205 30.2041 175.205 30.8779C175.205 31.8219 174.726 32.46 173.769 32.792L175.708 36H174.726L172.998 33.0312H171.508ZM171.508 32.3184H172.646C173.232 32.3184 173.662 32.2028 173.935 31.9717C174.209 31.7373 174.345 31.3874 174.345 30.9219C174.345 30.4499 174.205 30.1097 173.925 29.9014C173.649 29.693 173.203 29.5889 172.588 29.5889H171.508V32.3184ZM179.149 36.0977C178.358 36.0977 177.733 35.8568 177.274 35.375C176.818 34.8932 176.59 34.2243 176.59 33.3682C176.59 32.5055 176.802 31.8203 177.225 31.3125C177.651 30.8047 178.223 30.5508 178.939 30.5508C179.609 30.5508 180.14 30.7721 180.53 31.2148C180.921 31.6543 181.116 32.2354 181.116 32.958V33.4707H177.43C177.446 34.099 177.604 34.5758 177.904 34.9014C178.206 35.2269 178.631 35.3896 179.178 35.3896C179.754 35.3896 180.324 35.2692 180.887 35.0283V35.751C180.6 35.8747 180.329 35.9626 180.071 36.0146C179.818 36.07 179.51 36.0977 179.149 36.0977ZM178.929 31.2295C178.499 31.2295 178.156 31.3695 177.899 31.6494C177.645 31.9294 177.495 32.3167 177.449 32.8115H180.247C180.247 32.3005 180.133 31.9098 179.905 31.6396C179.678 31.3662 179.352 31.2295 178.929 31.2295ZM185.944 36L185.783 35.2383H185.744C185.477 35.5736 185.21 35.8014 184.943 35.9219C184.679 36.0391 184.349 36.0977 183.952 36.0977C183.421 36.0977 183.005 35.9609 182.702 35.6875C182.402 35.4141 182.253 35.0251 182.253 34.5205C182.253 33.4398 183.117 32.8734 184.846 32.8213L185.754 32.792V32.46C185.754 32.04 185.663 31.7308 185.48 31.5322C185.301 31.3304 185.013 31.2295 184.616 31.2295C184.17 31.2295 183.665 31.3662 183.102 31.6396L182.853 31.0195C183.117 30.8763 183.405 30.764 183.718 30.6826C184.033 30.6012 184.349 30.5605 184.665 30.5605C185.303 30.5605 185.775 30.7021 186.081 30.9854C186.39 31.2686 186.545 31.7227 186.545 32.3477V36H185.944ZM184.113 35.4287C184.618 35.4287 185.013 35.2904 185.3 35.0137C185.589 34.737 185.734 34.3496 185.734 33.8516V33.3682L184.924 33.4023C184.279 33.4251 183.814 33.526 183.527 33.7051C183.244 33.8809 183.102 34.1559 183.102 34.5303C183.102 34.8232 183.19 35.0462 183.366 35.1992C183.545 35.3522 183.794 35.4287 184.113 35.4287ZM189.18 36H188.37V28.4023H189.18V36ZM191.698 28.8613L191.771 28.9688C191.687 29.2943 191.565 29.6735 191.405 30.1064C191.246 30.5361 191.08 30.9365 190.907 31.3076H190.312C190.539 30.3799 190.705 29.5645 190.81 28.8613H191.698ZM193.5 28.8613L193.568 28.9688C193.49 29.265 193.373 29.6296 193.217 30.0625C193.061 30.4954 192.891 30.9105 192.709 31.3076H192.099C192.183 30.9821 192.279 30.5687 192.387 30.0674C192.494 29.5661 192.569 29.1641 192.611 28.8613H193.5ZM200.631 29.501C199.847 29.501 199.226 29.763 198.771 30.2871C198.318 30.8079 198.092 31.5225 198.092 32.4307C198.092 33.3649 198.31 34.0876 198.746 34.5986C199.186 35.1064 199.811 35.3604 200.621 35.3604C201.119 35.3604 201.687 35.2708 202.325 35.0918V35.8193C201.831 36.0049 201.22 36.0977 200.494 36.0977C199.443 36.0977 198.631 35.7786 198.058 35.1406C197.488 34.5026 197.203 33.596 197.203 32.4209C197.203 31.6852 197.34 31.0407 197.613 30.4873C197.89 29.9339 198.287 29.5075 198.805 29.208C199.326 28.9085 199.938 28.7588 200.641 28.7588C201.39 28.7588 202.044 28.8955 202.604 29.1689L202.252 29.8818C201.712 29.6279 201.171 29.501 200.631 29.501ZM208.53 33.3193C208.53 34.1917 208.31 34.8737 207.871 35.3652C207.431 35.8535 206.824 36.0977 206.05 36.0977C205.571 36.0977 205.146 35.9854 204.775 35.7607C204.404 35.5361 204.118 35.2139 203.916 34.7939C203.714 34.374 203.613 33.8825 203.613 33.3193C203.613 32.4469 203.831 31.7682 204.267 31.2832C204.704 30.7949 205.309 30.5508 206.084 30.5508C206.832 30.5508 207.427 30.7998 207.866 31.2979C208.309 31.7959 208.53 32.4697 208.53 33.3193ZM204.453 33.3193C204.453 34.0029 204.59 34.5238 204.863 34.8818C205.137 35.2399 205.539 35.4189 206.069 35.4189C206.6 35.4189 207.002 35.2415 207.275 34.8867C207.552 34.5286 207.69 34.0062 207.69 33.3193C207.69 32.639 207.552 32.123 207.275 31.7715C207.002 31.4167 206.596 31.2393 206.059 31.2393C205.529 31.2393 205.128 31.4134 204.858 31.7617C204.588 32.11 204.453 32.6292 204.453 33.3193ZM210.916 36H210.106V30.6484H210.916V36ZM210.038 29.1982C210.038 29.0127 210.083 28.8776 210.174 28.793C210.265 28.7051 210.379 28.6611 210.516 28.6611C210.646 28.6611 210.759 28.7051 210.853 28.793C210.947 28.8809 210.995 29.016 210.995 29.1982C210.995 29.3805 210.947 29.5173 210.853 29.6084C210.759 29.6963 210.646 29.7402 210.516 29.7402C210.379 29.7402 210.265 29.6963 210.174 29.6084C210.083 29.5173 210.038 29.3805 210.038 29.1982ZM216.447 36V32.5381C216.447 32.1019 216.348 31.7764 216.149 31.5615C215.951 31.3467 215.64 31.2393 215.217 31.2393C214.657 31.2393 214.247 31.3906 213.986 31.6934C213.726 31.9961 213.596 32.4958 213.596 33.1924V36H212.785V30.6484H213.444L213.576 31.3809H213.615C213.781 31.1172 214.014 30.9137 214.313 30.7705C214.613 30.624 214.947 30.5508 215.314 30.5508C215.959 30.5508 216.444 30.707 216.77 31.0195C217.095 31.3288 217.258 31.8252 217.258 32.5088V36H216.447ZM222.53 34.54C222.53 35.0381 222.344 35.4222 221.973 35.6924C221.602 35.9626 221.081 36.0977 220.411 36.0977C219.701 36.0977 219.148 35.9854 218.751 35.7607V35.0088C219.008 35.139 219.283 35.2415 219.576 35.3164C219.872 35.3913 220.157 35.4287 220.43 35.4287C220.853 35.4287 221.179 35.362 221.407 35.2285C221.635 35.0918 221.749 34.8851 221.749 34.6084C221.749 34.4001 221.657 34.2227 221.475 34.0762C221.296 33.9264 220.945 33.7507 220.421 33.5488C219.922 33.3633 219.568 33.2021 219.356 33.0654C219.148 32.9255 218.991 32.7676 218.887 32.5918C218.786 32.416 218.736 32.2061 218.736 31.9619C218.736 31.5257 218.913 31.1823 219.268 30.9316C219.623 30.6777 220.11 30.5508 220.728 30.5508C221.304 30.5508 221.867 30.668 222.418 30.9023L222.129 31.5615C221.592 31.3402 221.106 31.2295 220.67 31.2295C220.285 31.2295 219.996 31.2897 219.8 31.4102C219.605 31.5306 219.507 31.6966 219.507 31.9082C219.507 32.0514 219.543 32.1735 219.615 32.2744C219.69 32.3753 219.809 32.4714 219.971 32.5625C220.134 32.6536 220.447 32.7855 220.909 32.958C221.544 33.1891 221.972 33.4219 222.193 33.6562C222.418 33.8906 222.53 34.1852 222.53 34.54Z" fill="black" fill-opacity="0.5"/>
<defs>
<clipPath id="clip0_260_8492">
<rect width="68" height="34" fill="white" transform="translate(0 3)"/>
</clipPath>
</defs>
</svg>
