<svg width="1503" height="24" viewBox="0 0 1503 24" fill="none" xmlns="http://www.w3.org/2000/svg">
<g clip-path="url(#clip0_1150_14901)">
<path d="M11.6406 12.2734C11.6406 13.1536 11.5286 13.9557 11.3047 14.6797C11.0859 15.3984 10.7552 16.0182 10.3125 16.5391C9.86979 17.0547 9.3151 17.4531 8.64844 17.7344C7.98177 18.0156 7.20052 18.1562 6.30469 18.1562C5.39323 18.1562 4.60156 18.0156 3.92969 17.7344C3.26302 17.4531 2.70833 17.0521 2.26562 16.5312C1.82812 16.0104 1.5 15.388 1.28125 14.6641C1.0625 13.9401 0.953125 13.138 0.953125 12.2578C0.953125 11.0807 1.14583 10.0547 1.53125 9.17969C1.92188 8.29948 2.51302 7.61719 3.30469 7.13281C4.10156 6.64323 5.10677 6.39844 6.32031 6.39844C7.50781 6.39844 8.49479 6.64062 9.28125 7.125C10.0677 7.60938 10.6562 8.29167 11.0469 9.17188C11.4427 10.0469 11.6406 11.0807 11.6406 12.2734ZM2.92188 12.2734C2.92188 13.1536 3.04167 13.9167 3.28125 14.5625C3.52083 15.2031 3.88802 15.6979 4.38281 16.0469C4.88281 16.3906 5.52344 16.5625 6.30469 16.5625C7.09115 16.5625 7.73177 16.3906 8.22656 16.0469C8.72135 15.6979 9.08594 15.2031 9.32031 14.5625C9.55469 13.9167 9.67188 13.1536 9.67188 12.2734C9.67188 10.9349 9.40365 9.88802 8.86719 9.13281C8.33594 8.3724 7.48698 7.99219 6.32031 7.99219C5.53906 7.99219 4.89583 8.16406 4.39062 8.50781C3.89062 8.85156 3.52083 9.34375 3.28125 9.98438C3.04167 10.6198 2.92188 11.3828 2.92188 12.2734ZM17.3847 6.57812C18.3691 6.57812 19.1816 6.69792 19.8222 6.9375C20.468 7.17708 20.9472 7.54167 21.2597 8.03125C21.5774 8.52083 21.7362 9.14323 21.7362 9.89844C21.7362 10.4609 21.6321 10.9401 21.4237 11.3359C21.2154 11.7318 20.942 12.0599 20.6034 12.3203C20.2649 12.5807 19.9029 12.7891 19.5175 12.9453L22.7597 18H20.6425L17.8847 13.4219H16.0487V18H14.1737V6.57812H17.3847ZM17.2597 8.14062H16.0487V11.875H17.3456C18.2154 11.875 18.8456 11.7135 19.2362 11.3906C19.6321 11.0677 19.83 10.5911 19.83 9.96094C19.83 9.29948 19.6191 8.83073 19.1972 8.55469C18.7805 8.27865 18.1347 8.14062 17.2597 8.14062ZM29.3397 8.00781C28.7928 8.00781 28.3032 8.10677 27.8709 8.30469C27.4439 8.5026 27.0819 8.78906 26.785 9.16406C26.4881 9.53385 26.2616 9.98438 26.1053 10.5156C25.9491 11.0417 25.8709 11.6354 25.8709 12.2969C25.8709 13.1823 25.9959 13.9453 26.2459 14.5859C26.4959 15.2214 26.8761 15.7109 27.3866 16.0547C27.897 16.3932 28.5428 16.5625 29.3241 16.5625C29.8084 16.5625 30.2798 16.5156 30.7381 16.4219C31.1965 16.3281 31.6704 16.2005 32.16 16.0391V17.6328C31.6965 17.8151 31.2277 17.9479 30.7537 18.0312C30.2798 18.1146 29.7329 18.1562 29.1131 18.1562C27.9465 18.1562 26.9777 17.9141 26.2069 17.4297C25.4412 16.9453 24.8683 16.263 24.4881 15.3828C24.1131 14.5026 23.9256 13.4714 23.9256 12.2891C23.9256 11.4245 24.0454 10.6328 24.285 9.91406C24.5246 9.19531 24.8735 8.57552 25.3319 8.05469C25.7902 7.52865 26.3553 7.125 27.0272 6.84375C27.7043 6.55729 28.4777 6.41406 29.3475 6.41406C29.9204 6.41406 30.4829 6.47917 31.035 6.60938C31.5923 6.73438 32.1079 6.91406 32.5819 7.14844L31.9256 8.69531C31.5298 8.50781 31.1157 8.34635 30.6834 8.21094C30.2511 8.07552 29.8032 8.00781 29.3397 8.00781Z" fill="white"/>
<path d="M43.2578 11.6641H46.3828V13.0547H43.2578V16.2109H41.8672V13.0547H38.75V11.6641H41.8672V8.47656H43.2578V11.6641ZM56.0741 10.8594C56.8084 10.8594 57.4543 10.9922 58.0116 11.2578C58.5741 11.5182 59.0116 11.9036 59.3241 12.4141C59.6366 12.9193 59.7928 13.5391 59.7928 14.2734C59.7928 15.0755 59.6235 15.7682 59.285 16.3516C58.9465 16.9297 58.4491 17.375 57.7928 17.6875C57.1366 18 56.3371 18.1562 55.3944 18.1562C54.7954 18.1562 54.2355 18.1042 53.7147 18C53.1991 17.8958 52.7537 17.7396 52.3787 17.5312V15.875C52.7694 16.0938 53.2381 16.2734 53.785 16.4141C54.3319 16.5495 54.8553 16.6172 55.3553 16.6172C55.8866 16.6172 56.3423 16.5391 56.7225 16.3828C57.1027 16.2266 57.3944 15.987 57.5975 15.6641C57.8058 15.3411 57.91 14.9323 57.91 14.4375C57.91 13.7812 57.6991 13.276 57.2772 12.9219C56.8605 12.5625 56.2069 12.3828 55.3162 12.3828C55.0037 12.3828 54.6704 12.4115 54.3162 12.4688C53.9673 12.5208 53.6756 12.5781 53.4412 12.6406L52.6366 12.1641L53.0662 6.57812H59.0037V8.19531H54.6834L54.4334 11.0391C54.6209 10.9974 54.8449 10.9583 55.1053 10.9219C55.3657 10.8802 55.6886 10.8594 56.0741 10.8594ZM61.7556 17.0312C61.7556 16.6042 61.865 16.3047 62.0837 16.1328C62.3077 15.9557 62.5785 15.8672 62.8962 15.8672C63.214 15.8672 63.4848 15.9557 63.7087 16.1328C63.9379 16.3047 64.0525 16.6042 64.0525 17.0312C64.0525 17.4479 63.9379 17.75 63.7087 17.9375C63.4848 18.1198 63.214 18.2109 62.8962 18.2109C62.5785 18.2109 62.3077 18.1198 62.0837 17.9375C61.865 17.75 61.7556 17.4479 61.7556 17.0312ZM65.9137 13.1328C65.9137 12.4609 65.9606 11.7995 66.0544 11.1484C66.1533 10.4974 66.32 9.88802 66.5544 9.32031C66.7887 8.7526 67.1117 8.2526 67.5231 7.82031C67.9398 7.38802 68.4632 7.04948 69.0934 6.80469C69.7236 6.55469 70.4815 6.42969 71.3669 6.42969C71.596 6.42969 71.8539 6.4401 72.1403 6.46094C72.4268 6.48177 72.6637 6.51562 72.8512 6.5625V8.08594C72.6481 8.02865 72.4242 7.98438 72.1794 7.95312C71.9398 7.92188 71.7002 7.90625 71.4606 7.90625C70.5023 7.90625 69.7549 8.08854 69.2184 8.45312C68.682 8.8125 68.2992 9.30729 68.07 9.9375C67.8408 10.5625 67.708 11.2786 67.6716 12.0859H67.7653C67.9216 11.8255 68.1169 11.5938 68.3512 11.3906C68.5856 11.1875 68.8721 11.026 69.2106 10.9062C69.5492 10.7812 69.9424 10.7188 70.3903 10.7188C71.057 10.7188 71.6377 10.8594 72.1325 11.1406C72.6273 11.4167 73.0075 11.8177 73.2731 12.3438C73.544 12.8698 73.6794 13.5078 73.6794 14.2578C73.6794 15.0651 73.5257 15.7604 73.2184 16.3438C72.9164 16.9271 72.4841 17.375 71.9216 17.6875C71.3643 18 70.7002 18.1562 69.9294 18.1562C69.3617 18.1562 68.833 18.0521 68.3434 17.8438C67.8591 17.6354 67.4346 17.3229 67.07 16.9062C66.7054 16.4896 66.4216 15.9688 66.2184 15.3438C66.0153 14.7135 65.9137 13.9766 65.9137 13.1328ZM69.8981 16.6406C70.4919 16.6406 70.9684 16.4479 71.3278 16.0625C71.6924 15.6719 71.8747 15.0755 71.8747 14.2734C71.8747 13.6224 71.7132 13.1068 71.3903 12.7266C71.0726 12.3464 70.5934 12.1562 69.9528 12.1562C69.5153 12.1562 69.1325 12.25 68.8044 12.4375C68.4762 12.625 68.221 12.862 68.0387 13.1484C67.8617 13.4349 67.7731 13.7266 67.7731 14.0234C67.7731 14.3255 67.8174 14.6302 67.9059 14.9375C67.9945 15.2448 68.1273 15.5286 68.3044 15.7891C68.4815 16.0443 68.7028 16.25 68.9684 16.4062C69.2341 16.5625 69.544 16.6406 69.8981 16.6406ZM77.5719 6.41406C78.4104 6.41406 79.0458 6.72656 79.4781 7.35156C79.9104 7.97135 80.1266 8.84896 80.1266 9.98438C80.1266 11.1146 79.9182 11.9974 79.5016 12.6328C79.0901 13.2682 78.4469 13.5859 77.5719 13.5859C76.7542 13.5859 76.1318 13.2682 75.7047 12.6328C75.2776 11.9974 75.0641 11.1146 75.0641 9.98438C75.0641 8.84896 75.2646 7.97135 75.6656 7.35156C76.0719 6.72656 76.7073 6.41406 77.5719 6.41406ZM77.5797 7.69531C77.2411 7.69531 76.9911 7.88542 76.8297 8.26562C76.6734 8.64583 76.5953 9.22135 76.5953 9.99219C76.5953 10.7578 76.6734 11.3359 76.8297 11.7266C76.9911 12.112 77.2411 12.3047 77.5797 12.3047C77.9234 12.3047 78.1786 12.112 78.3453 11.7266C78.5172 11.3411 78.6031 10.763 78.6031 9.99219C78.6031 9.22656 78.5198 8.65365 78.3531 8.27344C78.1865 7.88802 77.9286 7.69531 77.5797 7.69531ZM85.2438 6.57812L78.9078 18H77.4L83.7359 6.57812H85.2438ZM85.0328 10.9844C85.8714 10.9844 86.5068 11.2969 86.9391 11.9219C87.3766 12.5417 87.5953 13.4193 87.5953 14.5547C87.5953 15.6797 87.387 16.5599 86.9703 17.1953C86.5589 17.8307 85.913 18.1484 85.0328 18.1484C84.2151 18.1484 83.5927 17.8307 83.1656 17.1953C82.7385 16.5599 82.525 15.6797 82.525 14.5547C82.525 13.4193 82.7255 12.5417 83.1266 11.9219C83.5328 11.2969 84.1682 10.9844 85.0328 10.9844ZM85.0406 12.2656C84.7021 12.2656 84.4521 12.4557 84.2906 12.8359C84.1344 13.2161 84.0563 13.7917 84.0563 14.5625C84.0563 15.3281 84.1344 15.9062 84.2906 16.2969C84.4521 16.6823 84.7021 16.875 85.0406 16.875C85.3896 16.875 85.6474 16.6849 85.8141 16.3047C85.9807 15.9193 86.0641 15.3385 86.0641 14.5625C86.0641 13.7969 85.9807 13.224 85.8141 12.8438C85.6474 12.4583 85.3896 12.2656 85.0406 12.2656Z" fill="#A3DE74"/>
<path d="M115.508 18H113.641V12.8438H108.375V18H106.5V6.57812H108.375V11.25H113.641V6.57812H115.508V18ZM117.189 21.1797C116.903 21.1797 116.653 21.1615 116.439 21.125C116.221 21.0938 116.033 21.0495 115.877 20.9922V19.4219C116.044 19.4635 116.223 19.5 116.416 19.5312C116.609 19.5625 116.814 19.5781 117.033 19.5781C117.32 19.5781 117.58 19.5234 117.814 19.4141C118.049 19.3047 118.234 19.1068 118.369 18.8203C118.51 18.5339 118.58 18.1302 118.58 17.6094V6.57812H120.455V17.5469C120.455 18.3958 120.32 19.0859 120.049 19.6172C119.778 20.1536 119.398 20.5469 118.908 20.7969C118.419 21.0521 117.846 21.1797 117.189 21.1797ZM128.418 18L125.129 8.46094H125.058C125.074 8.67448 125.092 8.96615 125.113 9.33594C125.134 9.70573 125.152 10.1016 125.168 10.5234C125.183 10.9453 125.191 11.349 125.191 11.7344V18H123.488V6.57812H126.121L129.285 15.6953H129.332L132.605 6.57812H135.23V18H133.441V11.6406C133.441 11.2917 133.446 10.9141 133.457 10.5078C133.472 10.1016 133.488 9.71615 133.504 9.35156C133.525 8.98698 133.54 8.69531 133.551 8.47656H133.488L130.074 18H128.418Z" fill="white"/>
<path d="M141.562 14.4844V12.9297H145.594V14.4844H141.562ZM158.926 18H151.191V16.6172L154.152 13.6172C154.725 13.0339 155.196 12.5312 155.566 12.1094C155.936 11.6823 156.209 11.2786 156.387 10.8984C156.569 10.5182 156.66 10.1042 156.66 9.65625C156.66 9.10417 156.501 8.6875 156.183 8.40625C155.866 8.11979 155.446 7.97656 154.926 7.97656C154.431 7.97656 153.972 8.07552 153.551 8.27344C153.134 8.46615 152.702 8.74219 152.254 9.10156L151.246 7.89062C151.564 7.61979 151.902 7.3724 152.262 7.14844C152.626 6.92448 153.032 6.7474 153.48 6.61719C153.928 6.48177 154.439 6.41406 155.012 6.41406C155.736 6.41406 156.361 6.54427 156.887 6.80469C157.413 7.0599 157.816 7.41667 158.097 7.875C158.384 8.33333 158.527 8.86719 158.527 9.47656C158.527 10.0911 158.405 10.6589 158.16 11.1797C157.915 11.7005 157.566 12.2161 157.113 12.7266C156.66 13.2318 156.121 13.7812 155.496 14.375L153.519 16.3047V16.3906H158.926V18ZM160.756 17.0312C160.756 16.6042 160.865 16.3047 161.084 16.1328C161.308 15.9557 161.579 15.8672 161.896 15.8672C162.214 15.8672 162.485 15.9557 162.709 16.1328C162.938 16.3047 163.052 16.6042 163.052 17.0312C163.052 17.4479 162.938 17.75 162.709 17.9375C162.485 18.1198 162.214 18.2109 161.896 18.2109C161.579 18.2109 161.308 18.1198 161.084 17.9375C160.865 17.75 160.756 17.4479 160.756 17.0312ZM173.047 15.4922H171.5V18H169.687V15.4922H164.492V14.1016L169.711 6.54688H171.5V13.9688H173.047V15.4922ZM169.687 13.9688V11.1328C169.687 10.8984 169.69 10.6615 169.695 10.4219C169.705 10.1771 169.716 9.94271 169.726 9.71875C169.737 9.49479 169.747 9.28906 169.757 9.10156C169.768 8.90885 169.776 8.75 169.781 8.625H169.718C169.619 8.83333 169.51 9.04688 169.39 9.26562C169.271 9.47917 169.143 9.6875 169.007 9.89062L166.195 13.9688H169.687ZM176.572 6.41406C177.41 6.41406 178.046 6.72656 178.478 7.35156C178.91 7.97135 179.127 8.84896 179.127 9.98438C179.127 11.1146 178.918 11.9974 178.502 12.6328C178.09 13.2682 177.447 13.5859 176.572 13.5859C175.754 13.5859 175.132 13.2682 174.705 12.6328C174.278 11.9974 174.064 11.1146 174.064 9.98438C174.064 8.84896 174.265 7.97135 174.666 7.35156C175.072 6.72656 175.707 6.41406 176.572 6.41406ZM176.58 7.69531C176.241 7.69531 175.991 7.88542 175.83 8.26562C175.673 8.64583 175.595 9.22135 175.595 9.99219C175.595 10.7578 175.673 11.3359 175.83 11.7266C175.991 12.112 176.241 12.3047 176.58 12.3047C176.923 12.3047 177.179 12.112 177.345 11.7266C177.517 11.3411 177.603 10.763 177.603 9.99219C177.603 9.22656 177.52 8.65365 177.353 8.27344C177.186 7.88802 176.929 7.69531 176.58 7.69531ZM184.244 6.57812L177.908 18H176.4L182.736 6.57812H184.244ZM184.033 10.9844C184.871 10.9844 185.507 11.2969 185.939 11.9219C186.377 12.5417 186.595 13.4193 186.595 14.5547C186.595 15.6797 186.387 16.5599 185.97 17.1953C185.559 17.8307 184.913 18.1484 184.033 18.1484C183.215 18.1484 182.593 17.8307 182.166 17.1953C181.739 16.5599 181.525 15.6797 181.525 14.5547C181.525 13.4193 181.726 12.5417 182.127 11.9219C182.533 11.2969 183.168 10.9844 184.033 10.9844ZM184.041 12.2656C183.702 12.2656 183.452 12.4557 183.291 12.8359C183.134 13.2161 183.056 13.7917 183.056 14.5625C183.056 15.3281 183.134 15.9062 183.291 16.2969C183.452 16.6823 183.702 16.875 184.041 16.875C184.39 16.875 184.647 16.6849 184.814 16.3047C184.981 15.9193 185.064 15.3385 185.064 14.5625C185.064 13.7969 184.981 13.224 184.814 12.8438C184.647 12.4583 184.39 12.2656 184.041 12.2656Z" fill="#E98F8F"/>
<path d="M212.578 18L211.461 14.8281H207.094L205.977 18H204L208.25 6.53125H210.328L214.57 18H212.578ZM210.977 13.2188L209.891 10.0938C209.849 9.95833 209.789 9.76823 209.711 9.52344C209.633 9.27344 209.555 9.02083 209.477 8.76562C209.398 8.50521 209.333 8.28646 209.281 8.10938C209.229 8.32292 209.164 8.5625 209.086 8.82812C209.013 9.08854 208.94 9.33333 208.867 9.5625C208.799 9.79167 208.747 9.96875 208.711 10.0938L207.617 13.2188H210.977ZM222.752 14.8906C222.752 15.5677 222.585 16.151 222.252 16.6406C221.924 17.1302 221.45 17.5052 220.83 17.7656C220.215 18.026 219.481 18.1562 218.627 18.1562C218.21 18.1562 217.812 18.1328 217.432 18.0859C217.051 18.0391 216.692 17.9714 216.353 17.8828C216.02 17.7891 215.715 17.6771 215.439 17.5469V15.7812C215.903 15.9844 216.421 16.1693 216.994 16.3359C217.567 16.4974 218.15 16.5781 218.744 16.5781C219.228 16.5781 219.629 16.5156 219.947 16.3906C220.27 16.2604 220.51 16.0781 220.666 15.8438C220.822 15.6042 220.9 15.3255 220.9 15.0078C220.9 14.6693 220.809 14.3828 220.627 14.1484C220.445 13.9141 220.169 13.7005 219.799 13.5078C219.434 13.3099 218.976 13.099 218.424 12.875C218.049 12.724 217.689 12.5521 217.346 12.3594C217.007 12.1667 216.705 11.9401 216.439 11.6797C216.174 11.4193 215.963 11.112 215.807 10.7578C215.656 10.3984 215.58 9.97656 215.58 9.49219C215.58 8.84635 215.734 8.29427 216.041 7.83594C216.353 7.3776 216.791 7.02604 217.353 6.78125C217.921 6.53646 218.583 6.41406 219.338 6.41406C219.937 6.41406 220.499 6.47656 221.025 6.60156C221.557 6.72656 222.077 6.90365 222.588 7.13281L221.994 8.64062C221.525 8.44792 221.07 8.29427 220.627 8.17969C220.189 8.0651 219.741 8.00781 219.283 8.00781C218.887 8.00781 218.551 8.06771 218.275 8.1875C217.999 8.30729 217.788 8.47656 217.642 8.69531C217.502 8.90885 217.432 9.16406 217.432 9.46094C217.432 9.79427 217.512 10.0755 217.674 10.3047C217.84 10.5286 218.096 10.7344 218.439 10.9219C218.788 11.1094 219.236 11.3177 219.783 11.5469C220.413 11.8073 220.947 12.0807 221.385 12.3672C221.827 12.6536 222.166 12.9974 222.4 13.3984C222.635 13.7943 222.752 14.2917 222.752 14.8906ZM229.902 8.00781C229.355 8.00781 228.866 8.10677 228.433 8.30469C228.006 8.5026 227.644 8.78906 227.347 9.16406C227.051 9.53385 226.824 9.98438 226.668 10.5156C226.512 11.0417 226.433 11.6354 226.433 12.2969C226.433 13.1823 226.558 13.9453 226.808 14.5859C227.058 15.2214 227.439 15.7109 227.949 16.0547C228.459 16.3932 229.105 16.5625 229.887 16.5625C230.371 16.5625 230.842 16.5156 231.301 16.4219C231.759 16.3281 232.233 16.2005 232.722 16.0391V17.6328C232.259 17.8151 231.79 17.9479 231.316 18.0312C230.842 18.1146 230.295 18.1562 229.676 18.1562C228.509 18.1562 227.54 17.9141 226.769 17.4297C226.004 16.9453 225.431 16.263 225.051 15.3828C224.676 14.5026 224.488 13.4714 224.488 12.2891C224.488 11.4245 224.608 10.6328 224.847 9.91406C225.087 9.19531 225.436 8.57552 225.894 8.05469C226.353 7.52865 226.918 7.125 227.59 6.84375C228.267 6.55729 229.04 6.41406 229.91 6.41406C230.483 6.41406 231.045 6.47917 231.597 6.60938C232.155 6.73438 232.67 6.91406 233.144 7.14844L232.488 8.69531C232.092 8.50781 231.678 8.34635 231.246 8.21094C230.814 8.07552 230.366 8.00781 229.902 8.00781Z" fill="white"/>
<path d="M243.258 11.6641H246.383V13.0547H243.258V16.2109H241.867V13.0547H238.75V11.6641H241.867V8.47656H243.258V11.6641ZM257.59 18H255.746V10.6484C255.746 10.4036 255.749 10.1589 255.754 9.91406C255.759 9.66927 255.764 9.42969 255.769 9.19531C255.78 8.96094 255.793 8.73698 255.808 8.52344C255.699 8.64323 255.564 8.77344 255.402 8.91406C255.246 9.05469 255.079 9.20052 254.902 9.35156L253.59 10.3984L252.668 9.23438L256.058 6.57812H257.59V18ZM261.756 17.0312C261.756 16.6042 261.865 16.3047 262.084 16.1328C262.308 15.9557 262.579 15.8672 262.896 15.8672C263.214 15.8672 263.485 15.9557 263.709 16.1328C263.938 16.3047 264.052 16.6042 264.052 17.0312C264.052 17.4479 263.938 17.75 263.709 17.9375C263.485 18.1198 263.214 18.2109 262.896 18.2109C262.579 18.2109 262.308 18.1198 262.084 17.9375C261.865 17.75 261.756 17.4479 261.756 17.0312ZM273.632 18H265.898V16.6172L268.859 13.6172C269.432 13.0339 269.903 12.5312 270.273 12.1094C270.643 11.6823 270.916 11.2786 271.093 10.8984C271.276 10.5182 271.367 10.1042 271.367 9.65625C271.367 9.10417 271.208 8.6875 270.89 8.40625C270.573 8.11979 270.153 7.97656 269.632 7.97656C269.138 7.97656 268.679 8.07552 268.257 8.27344C267.841 8.46615 267.409 8.74219 266.961 9.10156L265.953 7.89062C266.271 7.61979 266.609 7.3724 266.968 7.14844C267.333 6.92448 267.739 6.7474 268.187 6.61719C268.635 6.48177 269.146 6.41406 269.718 6.41406C270.442 6.41406 271.067 6.54427 271.593 6.80469C272.119 7.0599 272.523 7.41667 272.804 7.875C273.091 8.33333 273.234 8.86719 273.234 9.47656C273.234 10.0911 273.112 10.6589 272.867 11.1797C272.622 11.7005 272.273 12.2161 271.82 12.7266C271.367 13.2318 270.828 13.7812 270.203 14.375L268.226 16.3047V16.3906H273.632V18ZM277.572 6.41406C278.41 6.41406 279.046 6.72656 279.478 7.35156C279.91 7.97135 280.127 8.84896 280.127 9.98438C280.127 11.1146 279.918 11.9974 279.502 12.6328C279.09 13.2682 278.447 13.5859 277.572 13.5859C276.754 13.5859 276.132 13.2682 275.705 12.6328C275.278 11.9974 275.064 11.1146 275.064 9.98438C275.064 8.84896 275.265 7.97135 275.666 7.35156C276.072 6.72656 276.707 6.41406 277.572 6.41406ZM277.58 7.69531C277.241 7.69531 276.991 7.88542 276.83 8.26562C276.673 8.64583 276.595 9.22135 276.595 9.99219C276.595 10.7578 276.673 11.3359 276.83 11.7266C276.991 12.112 277.241 12.3047 277.58 12.3047C277.923 12.3047 278.179 12.112 278.345 11.7266C278.517 11.3411 278.603 10.763 278.603 9.99219C278.603 9.22656 278.52 8.65365 278.353 8.27344C278.186 7.88802 277.929 7.69531 277.58 7.69531ZM285.244 6.57812L278.908 18H277.4L283.736 6.57812H285.244ZM285.033 10.9844C285.871 10.9844 286.507 11.2969 286.939 11.9219C287.377 12.5417 287.595 13.4193 287.595 14.5547C287.595 15.6797 287.387 16.5599 286.97 17.1953C286.559 17.8307 285.913 18.1484 285.033 18.1484C284.215 18.1484 283.593 17.8307 283.166 17.1953C282.739 16.5599 282.525 15.6797 282.525 14.5547C282.525 13.4193 282.726 12.5417 283.127 11.9219C283.533 11.2969 284.168 10.9844 285.033 10.9844ZM285.041 12.2656C284.702 12.2656 284.452 12.4557 284.291 12.8359C284.134 13.2161 284.056 13.7917 284.056 14.5625C284.056 15.3281 284.134 15.9062 284.291 16.2969C284.452 16.6823 284.702 16.875 285.041 16.875C285.39 16.875 285.647 16.6849 285.814 16.3047C285.981 15.9193 286.064 15.3385 286.064 14.5625C286.064 13.7969 285.981 13.224 285.814 12.8438C285.647 12.4583 285.39 12.2656 285.041 12.2656Z" fill="#A3DE74"/>
<path d="M315.508 18H313.641V12.8438H308.375V18H306.5V6.57812H308.375V11.25H313.641V6.57812H315.508V18ZM317.189 21.1797C316.903 21.1797 316.653 21.1615 316.439 21.125C316.221 21.0938 316.033 21.0495 315.877 20.9922V19.4219C316.044 19.4635 316.223 19.5 316.416 19.5312C316.609 19.5625 316.814 19.5781 317.033 19.5781C317.32 19.5781 317.58 19.5234 317.814 19.4141C318.049 19.3047 318.234 19.1068 318.369 18.8203C318.51 18.5339 318.58 18.1302 318.58 17.6094V6.57812H320.455V17.5469C320.455 18.3958 320.32 19.0859 320.049 19.6172C319.778 20.1536 319.398 20.5469 318.908 20.7969C318.419 21.0521 317.846 21.1797 317.189 21.1797ZM328.418 18L325.129 8.46094H325.058C325.074 8.67448 325.092 8.96615 325.113 9.33594C325.134 9.70573 325.152 10.1016 325.168 10.5234C325.183 10.9453 325.191 11.349 325.191 11.7344V18H323.488V6.57812H326.121L329.285 15.6953H329.332L332.605 6.57812H335.23V18H333.441V11.6406C333.441 11.2917 333.446 10.9141 333.457 10.5078C333.472 10.1016 333.488 9.71615 333.504 9.35156C333.525 8.98698 333.54 8.69531 333.551 8.47656H333.488L330.074 18H328.418Z" fill="white"/>
<path d="M341.562 14.4844V12.9297H345.594V14.4844H341.562ZM358.926 18H351.191V16.6172L354.152 13.6172C354.725 13.0339 355.196 12.5312 355.566 12.1094C355.936 11.6823 356.209 11.2786 356.387 10.8984C356.569 10.5182 356.66 10.1042 356.66 9.65625C356.66 9.10417 356.501 8.6875 356.183 8.40625C355.866 8.11979 355.446 7.97656 354.926 7.97656C354.431 7.97656 353.972 8.07552 353.551 8.27344C353.134 8.46615 352.702 8.74219 352.254 9.10156L351.246 7.89062C351.564 7.61979 351.902 7.3724 352.262 7.14844C352.626 6.92448 353.032 6.7474 353.48 6.61719C353.928 6.48177 354.439 6.41406 355.012 6.41406C355.736 6.41406 356.361 6.54427 356.887 6.80469C357.413 7.0599 357.816 7.41667 358.097 7.875C358.384 8.33333 358.527 8.86719 358.527 9.47656C358.527 10.0911 358.405 10.6589 358.16 11.1797C357.915 11.7005 357.566 12.2161 357.113 12.7266C356.66 13.2318 356.121 13.7812 355.496 14.375L353.519 16.3047V16.3906H358.926V18ZM360.756 17.0312C360.756 16.6042 360.865 16.3047 361.084 16.1328C361.308 15.9557 361.579 15.8672 361.896 15.8672C362.214 15.8672 362.485 15.9557 362.709 16.1328C362.938 16.3047 363.052 16.6042 363.052 17.0312C363.052 17.4479 362.938 17.75 362.709 17.9375C362.485 18.1198 362.214 18.2109 361.896 18.2109C361.579 18.2109 361.308 18.1198 361.084 17.9375C360.865 17.75 360.756 17.4479 360.756 17.0312ZM373.047 15.4922H371.5V18H369.687V15.4922H364.492V14.1016L369.711 6.54688H371.5V13.9688H373.047V15.4922ZM369.687 13.9688V11.1328C369.687 10.8984 369.69 10.6615 369.695 10.4219C369.705 10.1771 369.716 9.94271 369.726 9.71875C369.737 9.49479 369.747 9.28906 369.757 9.10156C369.768 8.90885 369.776 8.75 369.781 8.625H369.718C369.619 8.83333 369.51 9.04688 369.39 9.26562C369.271 9.47917 369.143 9.6875 369.007 9.89062L366.195 13.9688H369.687ZM376.572 6.41406C377.41 6.41406 378.046 6.72656 378.478 7.35156C378.91 7.97135 379.127 8.84896 379.127 9.98438C379.127 11.1146 378.918 11.9974 378.502 12.6328C378.09 13.2682 377.447 13.5859 376.572 13.5859C375.754 13.5859 375.132 13.2682 374.705 12.6328C374.278 11.9974 374.064 11.1146 374.064 9.98438C374.064 8.84896 374.265 7.97135 374.666 7.35156C375.072 6.72656 375.707 6.41406 376.572 6.41406ZM376.58 7.69531C376.241 7.69531 375.991 7.88542 375.83 8.26562C375.673 8.64583 375.595 9.22135 375.595 9.99219C375.595 10.7578 375.673 11.3359 375.83 11.7266C375.991 12.112 376.241 12.3047 376.58 12.3047C376.923 12.3047 377.179 12.112 377.345 11.7266C377.517 11.3411 377.603 10.763 377.603 9.99219C377.603 9.22656 377.52 8.65365 377.353 8.27344C377.186 7.88802 376.929 7.69531 376.58 7.69531ZM384.244 6.57812L377.908 18H376.4L382.736 6.57812H384.244ZM384.033 10.9844C384.871 10.9844 385.507 11.2969 385.939 11.9219C386.377 12.5417 386.595 13.4193 386.595 14.5547C386.595 15.6797 386.387 16.5599 385.97 17.1953C385.559 17.8307 384.913 18.1484 384.033 18.1484C383.215 18.1484 382.593 17.8307 382.166 17.1953C381.739 16.5599 381.525 15.6797 381.525 14.5547C381.525 13.4193 381.726 12.5417 382.127 11.9219C382.533 11.2969 383.168 10.9844 384.033 10.9844ZM384.041 12.2656C383.702 12.2656 383.452 12.4557 383.291 12.8359C383.134 13.2161 383.056 13.7917 383.056 14.5625C383.056 15.3281 383.134 15.9062 383.291 16.2969C383.452 16.6823 383.702 16.875 384.041 16.875C384.39 16.875 384.647 16.6849 384.814 16.3047C384.981 15.9193 385.064 15.3385 385.064 14.5625C385.064 13.7969 384.981 13.224 384.814 12.8438C384.647 12.4583 384.39 12.2656 384.041 12.2656Z" fill="#E98F8F"/>
<path d="M415.641 12.2734C415.641 13.1536 415.529 13.9557 415.305 14.6797C415.086 15.3984 414.755 16.0182 414.312 16.5391C413.87 17.0547 413.315 17.4531 412.648 17.7344C411.982 18.0156 411.201 18.1562 410.305 18.1562C409.393 18.1562 408.602 18.0156 407.93 17.7344C407.263 17.4531 406.708 17.0521 406.266 16.5312C405.828 16.0104 405.5 15.388 405.281 14.6641C405.062 13.9401 404.953 13.138 404.953 12.2578C404.953 11.0807 405.146 10.0547 405.531 9.17969C405.922 8.29948 406.513 7.61719 407.305 7.13281C408.102 6.64323 409.107 6.39844 410.32 6.39844C411.508 6.39844 412.495 6.64062 413.281 7.125C414.068 7.60938 414.656 8.29167 415.047 9.17188C415.443 10.0469 415.641 11.0807 415.641 12.2734ZM406.922 12.2734C406.922 13.1536 407.042 13.9167 407.281 14.5625C407.521 15.2031 407.888 15.6979 408.383 16.0469C408.883 16.3906 409.523 16.5625 410.305 16.5625C411.091 16.5625 411.732 16.3906 412.227 16.0469C412.721 15.6979 413.086 15.2031 413.32 14.5625C413.555 13.9167 413.672 13.1536 413.672 12.2734C413.672 10.9349 413.404 9.88802 412.867 9.13281C412.336 8.3724 411.487 7.99219 410.32 7.99219C409.539 7.99219 408.896 8.16406 408.391 8.50781C407.891 8.85156 407.521 9.34375 407.281 9.98438C407.042 10.6198 406.922 11.3828 406.922 12.2734ZM421.385 6.57812C422.369 6.57812 423.182 6.69792 423.822 6.9375C424.468 7.17708 424.947 7.54167 425.26 8.03125C425.577 8.52083 425.736 9.14323 425.736 9.89844C425.736 10.4609 425.632 10.9401 425.424 11.3359C425.215 11.7318 424.942 12.0599 424.603 12.3203C424.265 12.5807 423.903 12.7891 423.517 12.9453L426.76 18H424.642L421.885 13.4219H420.049V18H418.174V6.57812H421.385ZM421.26 8.14062H420.049V11.875H421.346C422.215 11.875 422.846 11.7135 423.236 11.3906C423.632 11.0677 423.83 10.5911 423.83 9.96094C423.83 9.29948 423.619 8.83073 423.197 8.55469C422.781 8.27865 422.135 8.14062 421.26 8.14062ZM433.34 8.00781C432.793 8.00781 432.303 8.10677 431.871 8.30469C431.444 8.5026 431.082 8.78906 430.785 9.16406C430.488 9.53385 430.262 9.98438 430.105 10.5156C429.949 11.0417 429.871 11.6354 429.871 12.2969C429.871 13.1823 429.996 13.9453 430.246 14.5859C430.496 15.2214 430.876 15.7109 431.387 16.0547C431.897 16.3932 432.543 16.5625 433.324 16.5625C433.808 16.5625 434.28 16.5156 434.738 16.4219C435.196 16.3281 435.67 16.2005 436.16 16.0391V17.6328C435.696 17.8151 435.228 17.9479 434.754 18.0312C434.28 18.1146 433.733 18.1562 433.113 18.1562C431.946 18.1562 430.978 17.9141 430.207 17.4297C429.441 16.9453 428.868 16.263 428.488 15.3828C428.113 14.5026 427.926 13.4714 427.926 12.2891C427.926 11.4245 428.045 10.6328 428.285 9.91406C428.525 9.19531 428.874 8.57552 429.332 8.05469C429.79 7.52865 430.355 7.125 431.027 6.84375C431.704 6.55729 432.478 6.41406 433.347 6.41406C433.92 6.41406 434.483 6.47917 435.035 6.60938C435.592 6.73438 436.108 6.91406 436.582 7.14844L435.926 8.69531C435.53 8.50781 435.116 8.34635 434.683 8.21094C434.251 8.07552 433.803 8.00781 433.34 8.00781Z" fill="white"/>
<path d="M447.258 11.6641H450.383V13.0547H447.258V16.2109H445.867V13.0547H442.75V11.6641H445.867V8.47656H447.258V11.6641ZM460.074 10.8594C460.808 10.8594 461.454 10.9922 462.012 11.2578C462.574 11.5182 463.012 11.9036 463.324 12.4141C463.637 12.9193 463.793 13.5391 463.793 14.2734C463.793 15.0755 463.624 15.7682 463.285 16.3516C462.946 16.9297 462.449 17.375 461.793 17.6875C461.137 18 460.337 18.1562 459.394 18.1562C458.795 18.1562 458.236 18.1042 457.715 18C457.199 17.8958 456.754 17.7396 456.379 17.5312V15.875C456.769 16.0938 457.238 16.2734 457.785 16.4141C458.332 16.5495 458.855 16.6172 459.355 16.6172C459.887 16.6172 460.342 16.5391 460.722 16.3828C461.103 16.2266 461.394 15.987 461.597 15.6641C461.806 15.3411 461.91 14.9323 461.91 14.4375C461.91 13.7812 461.699 13.276 461.277 12.9219C460.861 12.5625 460.207 12.3828 459.316 12.3828C459.004 12.3828 458.67 12.4115 458.316 12.4688C457.967 12.5208 457.676 12.5781 457.441 12.6406L456.637 12.1641L457.066 6.57812H463.004V8.19531H458.683L458.433 11.0391C458.621 10.9974 458.845 10.9583 459.105 10.9219C459.366 10.8802 459.689 10.8594 460.074 10.8594ZM465.756 17.0312C465.756 16.6042 465.865 16.3047 466.084 16.1328C466.308 15.9557 466.579 15.8672 466.896 15.8672C467.214 15.8672 467.485 15.9557 467.709 16.1328C467.938 16.3047 468.052 16.6042 468.052 17.0312C468.052 17.4479 467.938 17.75 467.709 17.9375C467.485 18.1198 467.214 18.2109 466.896 18.2109C466.579 18.2109 466.308 18.1198 466.084 17.9375C465.865 17.75 465.756 17.4479 465.756 17.0312ZM469.914 13.1328C469.914 12.4609 469.961 11.7995 470.054 11.1484C470.153 10.4974 470.32 9.88802 470.554 9.32031C470.789 8.7526 471.112 8.2526 471.523 7.82031C471.94 7.38802 472.463 7.04948 473.093 6.80469C473.724 6.55469 474.481 6.42969 475.367 6.42969C475.596 6.42969 475.854 6.4401 476.14 6.46094C476.427 6.48177 476.664 6.51562 476.851 6.5625V8.08594C476.648 8.02865 476.424 7.98438 476.179 7.95312C475.94 7.92188 475.7 7.90625 475.461 7.90625C474.502 7.90625 473.755 8.08854 473.218 8.45312C472.682 8.8125 472.299 9.30729 472.07 9.9375C471.841 10.5625 471.708 11.2786 471.672 12.0859H471.765C471.922 11.8255 472.117 11.5938 472.351 11.3906C472.586 11.1875 472.872 11.026 473.211 10.9062C473.549 10.7812 473.942 10.7188 474.39 10.7188C475.057 10.7188 475.638 10.8594 476.132 11.1406C476.627 11.4167 477.007 11.8177 477.273 12.3438C477.544 12.8698 477.679 13.5078 477.679 14.2578C477.679 15.0651 477.526 15.7604 477.218 16.3438C476.916 16.9271 476.484 17.375 475.922 17.6875C475.364 18 474.7 18.1562 473.929 18.1562C473.362 18.1562 472.833 18.0521 472.343 17.8438C471.859 17.6354 471.435 17.3229 471.07 16.9062C470.705 16.4896 470.422 15.9688 470.218 15.3438C470.015 14.7135 469.914 13.9766 469.914 13.1328ZM473.898 16.6406C474.492 16.6406 474.968 16.4479 475.328 16.0625C475.692 15.6719 475.875 15.0755 475.875 14.2734C475.875 13.6224 475.713 13.1068 475.39 12.7266C475.073 12.3464 474.593 12.1562 473.953 12.1562C473.515 12.1562 473.132 12.25 472.804 12.4375C472.476 12.625 472.221 12.862 472.039 13.1484C471.862 13.4349 471.773 13.7266 471.773 14.0234C471.773 14.3255 471.817 14.6302 471.906 14.9375C471.994 15.2448 472.127 15.5286 472.304 15.7891C472.481 16.0443 472.703 16.25 472.968 16.4062C473.234 16.5625 473.544 16.6406 473.898 16.6406ZM481.572 6.41406C482.41 6.41406 483.046 6.72656 483.478 7.35156C483.91 7.97135 484.127 8.84896 484.127 9.98438C484.127 11.1146 483.918 11.9974 483.502 12.6328C483.09 13.2682 482.447 13.5859 481.572 13.5859C480.754 13.5859 480.132 13.2682 479.705 12.6328C479.278 11.9974 479.064 11.1146 479.064 9.98438C479.064 8.84896 479.265 7.97135 479.666 7.35156C480.072 6.72656 480.707 6.41406 481.572 6.41406ZM481.58 7.69531C481.241 7.69531 480.991 7.88542 480.83 8.26562C480.673 8.64583 480.595 9.22135 480.595 9.99219C480.595 10.7578 480.673 11.3359 480.83 11.7266C480.991 12.112 481.241 12.3047 481.58 12.3047C481.923 12.3047 482.179 12.112 482.345 11.7266C482.517 11.3411 482.603 10.763 482.603 9.99219C482.603 9.22656 482.52 8.65365 482.353 8.27344C482.186 7.88802 481.929 7.69531 481.58 7.69531ZM489.244 6.57812L482.908 18H481.4L487.736 6.57812H489.244ZM489.033 10.9844C489.871 10.9844 490.507 11.2969 490.939 11.9219C491.377 12.5417 491.595 13.4193 491.595 14.5547C491.595 15.6797 491.387 16.5599 490.97 17.1953C490.559 17.8307 489.913 18.1484 489.033 18.1484C488.215 18.1484 487.593 17.8307 487.166 17.1953C486.739 16.5599 486.525 15.6797 486.525 14.5547C486.525 13.4193 486.726 12.5417 487.127 11.9219C487.533 11.2969 488.168 10.9844 489.033 10.9844ZM489.041 12.2656C488.702 12.2656 488.452 12.4557 488.291 12.8359C488.134 13.2161 488.056 13.7917 488.056 14.5625C488.056 15.3281 488.134 15.9062 488.291 16.2969C488.452 16.6823 488.702 16.875 489.041 16.875C489.39 16.875 489.647 16.6849 489.814 16.3047C489.981 15.9193 490.064 15.3385 490.064 14.5625C490.064 13.7969 489.981 13.224 489.814 12.8438C489.647 12.4583 489.39 12.2656 489.041 12.2656Z" fill="#A3DE74"/>
<path d="M519.508 18H517.641V12.8438H512.375V18H510.5V6.57812H512.375V11.25H517.641V6.57812H519.508V18ZM521.189 21.1797C520.903 21.1797 520.653 21.1615 520.439 21.125C520.221 21.0938 520.033 21.0495 519.877 20.9922V19.4219C520.044 19.4635 520.223 19.5 520.416 19.5312C520.609 19.5625 520.814 19.5781 521.033 19.5781C521.32 19.5781 521.58 19.5234 521.814 19.4141C522.049 19.3047 522.234 19.1068 522.369 18.8203C522.51 18.5339 522.58 18.1302 522.58 17.6094V6.57812H524.455V17.5469C524.455 18.3958 524.32 19.0859 524.049 19.6172C523.778 20.1536 523.398 20.5469 522.908 20.7969C522.419 21.0521 521.846 21.1797 521.189 21.1797ZM532.418 18L529.129 8.46094H529.058C529.074 8.67448 529.092 8.96615 529.113 9.33594C529.134 9.70573 529.152 10.1016 529.168 10.5234C529.183 10.9453 529.191 11.349 529.191 11.7344V18H527.488V6.57812H530.121L533.285 15.6953H533.332L536.605 6.57812H539.23V18H537.441V11.6406C537.441 11.2917 537.446 10.9141 537.457 10.5078C537.472 10.1016 537.488 9.71615 537.504 9.35156C537.525 8.98698 537.54 8.69531 537.551 8.47656H537.488L534.074 18H532.418Z" fill="white"/>
<path d="M545.562 14.4844V12.9297H549.594V14.4844H545.562ZM562.926 18H555.191V16.6172L558.152 13.6172C558.725 13.0339 559.196 12.5312 559.566 12.1094C559.936 11.6823 560.209 11.2786 560.387 10.8984C560.569 10.5182 560.66 10.1042 560.66 9.65625C560.66 9.10417 560.501 8.6875 560.183 8.40625C559.866 8.11979 559.446 7.97656 558.926 7.97656C558.431 7.97656 557.972 8.07552 557.551 8.27344C557.134 8.46615 556.702 8.74219 556.254 9.10156L555.246 7.89062C555.564 7.61979 555.902 7.3724 556.262 7.14844C556.626 6.92448 557.032 6.7474 557.48 6.61719C557.928 6.48177 558.439 6.41406 559.012 6.41406C559.736 6.41406 560.361 6.54427 560.887 6.80469C561.413 7.0599 561.816 7.41667 562.097 7.875C562.384 8.33333 562.527 8.86719 562.527 9.47656C562.527 10.0911 562.405 10.6589 562.16 11.1797C561.915 11.7005 561.566 12.2161 561.113 12.7266C560.66 13.2318 560.121 13.7812 559.496 14.375L557.519 16.3047V16.3906H562.926V18ZM564.756 17.0312C564.756 16.6042 564.865 16.3047 565.084 16.1328C565.308 15.9557 565.579 15.8672 565.896 15.8672C566.214 15.8672 566.485 15.9557 566.709 16.1328C566.938 16.3047 567.052 16.6042 567.052 17.0312C567.052 17.4479 566.938 17.75 566.709 17.9375C566.485 18.1198 566.214 18.2109 565.896 18.2109C565.579 18.2109 565.308 18.1198 565.084 17.9375C564.865 17.75 564.756 17.4479 564.756 17.0312ZM577.047 15.4922H575.5V18H573.687V15.4922H568.492V14.1016L573.711 6.54688H575.5V13.9688H577.047V15.4922ZM573.687 13.9688V11.1328C573.687 10.8984 573.69 10.6615 573.695 10.4219C573.705 10.1771 573.716 9.94271 573.726 9.71875C573.737 9.49479 573.747 9.28906 573.757 9.10156C573.768 8.90885 573.776 8.75 573.781 8.625H573.718C573.619 8.83333 573.51 9.04688 573.39 9.26562C573.271 9.47917 573.143 9.6875 573.007 9.89062L570.195 13.9688H573.687ZM580.572 6.41406C581.41 6.41406 582.046 6.72656 582.478 7.35156C582.91 7.97135 583.127 8.84896 583.127 9.98438C583.127 11.1146 582.918 11.9974 582.502 12.6328C582.09 13.2682 581.447 13.5859 580.572 13.5859C579.754 13.5859 579.132 13.2682 578.705 12.6328C578.278 11.9974 578.064 11.1146 578.064 9.98438C578.064 8.84896 578.265 7.97135 578.666 7.35156C579.072 6.72656 579.707 6.41406 580.572 6.41406ZM580.58 7.69531C580.241 7.69531 579.991 7.88542 579.83 8.26562C579.673 8.64583 579.595 9.22135 579.595 9.99219C579.595 10.7578 579.673 11.3359 579.83 11.7266C579.991 12.112 580.241 12.3047 580.58 12.3047C580.923 12.3047 581.179 12.112 581.345 11.7266C581.517 11.3411 581.603 10.763 581.603 9.99219C581.603 9.22656 581.52 8.65365 581.353 8.27344C581.186 7.88802 580.929 7.69531 580.58 7.69531ZM588.244 6.57812L581.908 18H580.4L586.736 6.57812H588.244ZM588.033 10.9844C588.871 10.9844 589.507 11.2969 589.939 11.9219C590.377 12.5417 590.595 13.4193 590.595 14.5547C590.595 15.6797 590.387 16.5599 589.97 17.1953C589.559 17.8307 588.913 18.1484 588.033 18.1484C587.215 18.1484 586.593 17.8307 586.166 17.1953C585.739 16.5599 585.525 15.6797 585.525 14.5547C585.525 13.4193 585.726 12.5417 586.127 11.9219C586.533 11.2969 587.168 10.9844 588.033 10.9844ZM588.041 12.2656C587.702 12.2656 587.452 12.4557 587.291 12.8359C587.134 13.2161 587.056 13.7917 587.056 14.5625C587.056 15.3281 587.134 15.9062 587.291 16.2969C587.452 16.6823 587.702 16.875 588.041 16.875C588.39 16.875 588.647 16.6849 588.814 16.3047C588.981 15.9193 589.064 15.3385 589.064 14.5625C589.064 13.7969 588.981 13.224 588.814 12.8438C588.647 12.4583 588.39 12.2656 588.041 12.2656Z" fill="#E98F8F"/>
<path d="M616.578 18L615.461 14.8281H611.094L609.977 18H608L612.25 6.53125H614.328L618.57 18H616.578ZM614.977 13.2188L613.891 10.0938C613.849 9.95833 613.789 9.76823 613.711 9.52344C613.633 9.27344 613.555 9.02083 613.477 8.76562C613.398 8.50521 613.333 8.28646 613.281 8.10938C613.229 8.32292 613.164 8.5625 613.086 8.82812C613.013 9.08854 612.94 9.33333 612.867 9.5625C612.799 9.79167 612.747 9.96875 612.711 10.0938L611.617 13.2188H614.977ZM626.752 14.8906C626.752 15.5677 626.585 16.151 626.252 16.6406C625.924 17.1302 625.45 17.5052 624.83 17.7656C624.215 18.026 623.481 18.1562 622.627 18.1562C622.21 18.1562 621.812 18.1328 621.432 18.0859C621.051 18.0391 620.692 17.9714 620.353 17.8828C620.02 17.7891 619.715 17.6771 619.439 17.5469V15.7812C619.903 15.9844 620.421 16.1693 620.994 16.3359C621.567 16.4974 622.15 16.5781 622.744 16.5781C623.228 16.5781 623.629 16.5156 623.947 16.3906C624.27 16.2604 624.51 16.0781 624.666 15.8438C624.822 15.6042 624.9 15.3255 624.9 15.0078C624.9 14.6693 624.809 14.3828 624.627 14.1484C624.445 13.9141 624.169 13.7005 623.799 13.5078C623.434 13.3099 622.976 13.099 622.424 12.875C622.049 12.724 621.689 12.5521 621.346 12.3594C621.007 12.1667 620.705 11.9401 620.439 11.6797C620.174 11.4193 619.963 11.112 619.807 10.7578C619.656 10.3984 619.58 9.97656 619.58 9.49219C619.58 8.84635 619.734 8.29427 620.041 7.83594C620.353 7.3776 620.791 7.02604 621.353 6.78125C621.921 6.53646 622.583 6.41406 623.338 6.41406C623.937 6.41406 624.499 6.47656 625.025 6.60156C625.557 6.72656 626.077 6.90365 626.588 7.13281L625.994 8.64062C625.525 8.44792 625.07 8.29427 624.627 8.17969C624.189 8.0651 623.741 8.00781 623.283 8.00781C622.887 8.00781 622.551 8.06771 622.275 8.1875C621.999 8.30729 621.788 8.47656 621.642 8.69531C621.502 8.90885 621.432 9.16406 621.432 9.46094C621.432 9.79427 621.512 10.0755 621.674 10.3047C621.84 10.5286 622.096 10.7344 622.439 10.9219C622.788 11.1094 623.236 11.3177 623.783 11.5469C624.413 11.8073 624.947 12.0807 625.385 12.3672C625.827 12.6536 626.166 12.9974 626.4 13.3984C626.635 13.7943 626.752 14.2917 626.752 14.8906ZM633.902 8.00781C633.355 8.00781 632.866 8.10677 632.433 8.30469C632.006 8.5026 631.644 8.78906 631.347 9.16406C631.051 9.53385 630.824 9.98438 630.668 10.5156C630.512 11.0417 630.433 11.6354 630.433 12.2969C630.433 13.1823 630.558 13.9453 630.808 14.5859C631.058 15.2214 631.439 15.7109 631.949 16.0547C632.459 16.3932 633.105 16.5625 633.887 16.5625C634.371 16.5625 634.842 16.5156 635.301 16.4219C635.759 16.3281 636.233 16.2005 636.722 16.0391V17.6328C636.259 17.8151 635.79 17.9479 635.316 18.0312C634.842 18.1146 634.295 18.1562 633.676 18.1562C632.509 18.1562 631.54 17.9141 630.769 17.4297C630.004 16.9453 629.431 16.263 629.051 15.3828C628.676 14.5026 628.488 13.4714 628.488 12.2891C628.488 11.4245 628.608 10.6328 628.847 9.91406C629.087 9.19531 629.436 8.57552 629.894 8.05469C630.353 7.52865 630.918 7.125 631.59 6.84375C632.267 6.55729 633.04 6.41406 633.91 6.41406C634.483 6.41406 635.045 6.47917 635.597 6.60938C636.155 6.73438 636.67 6.91406 637.144 7.14844L636.488 8.69531C636.092 8.50781 635.678 8.34635 635.246 8.21094C634.814 8.07552 634.366 8.00781 633.902 8.00781Z" fill="white"/>
<path d="M647.258 11.6641H650.383V13.0547H647.258V16.2109H645.867V13.0547H642.75V11.6641H645.867V8.47656H647.258V11.6641ZM661.59 18H659.746V10.6484C659.746 10.4036 659.749 10.1589 659.754 9.91406C659.759 9.66927 659.764 9.42969 659.769 9.19531C659.78 8.96094 659.793 8.73698 659.808 8.52344C659.699 8.64323 659.564 8.77344 659.402 8.91406C659.246 9.05469 659.079 9.20052 658.902 9.35156L657.59 10.3984L656.668 9.23438L660.058 6.57812H661.59V18ZM665.756 17.0312C665.756 16.6042 665.865 16.3047 666.084 16.1328C666.308 15.9557 666.579 15.8672 666.896 15.8672C667.214 15.8672 667.485 15.9557 667.709 16.1328C667.938 16.3047 668.052 16.6042 668.052 17.0312C668.052 17.4479 667.938 17.75 667.709 17.9375C667.485 18.1198 667.214 18.2109 666.896 18.2109C666.579 18.2109 666.308 18.1198 666.084 17.9375C665.865 17.75 665.756 17.4479 665.756 17.0312ZM677.632 18H669.898V16.6172L672.859 13.6172C673.432 13.0339 673.903 12.5312 674.273 12.1094C674.643 11.6823 674.916 11.2786 675.093 10.8984C675.276 10.5182 675.367 10.1042 675.367 9.65625C675.367 9.10417 675.208 8.6875 674.89 8.40625C674.573 8.11979 674.153 7.97656 673.632 7.97656C673.138 7.97656 672.679 8.07552 672.257 8.27344C671.841 8.46615 671.409 8.74219 670.961 9.10156L669.953 7.89062C670.271 7.61979 670.609 7.3724 670.968 7.14844C671.333 6.92448 671.739 6.7474 672.187 6.61719C672.635 6.48177 673.146 6.41406 673.718 6.41406C674.442 6.41406 675.067 6.54427 675.593 6.80469C676.119 7.0599 676.523 7.41667 676.804 7.875C677.091 8.33333 677.234 8.86719 677.234 9.47656C677.234 10.0911 677.112 10.6589 676.867 11.1797C676.622 11.7005 676.273 12.2161 675.82 12.7266C675.367 13.2318 674.828 13.7812 674.203 14.375L672.226 16.3047V16.3906H677.632V18ZM681.572 6.41406C682.41 6.41406 683.046 6.72656 683.478 7.35156C683.91 7.97135 684.127 8.84896 684.127 9.98438C684.127 11.1146 683.918 11.9974 683.502 12.6328C683.09 13.2682 682.447 13.5859 681.572 13.5859C680.754 13.5859 680.132 13.2682 679.705 12.6328C679.278 11.9974 679.064 11.1146 679.064 9.98438C679.064 8.84896 679.265 7.97135 679.666 7.35156C680.072 6.72656 680.707 6.41406 681.572 6.41406ZM681.58 7.69531C681.241 7.69531 680.991 7.88542 680.83 8.26562C680.673 8.64583 680.595 9.22135 680.595 9.99219C680.595 10.7578 680.673 11.3359 680.83 11.7266C680.991 12.112 681.241 12.3047 681.58 12.3047C681.923 12.3047 682.179 12.112 682.345 11.7266C682.517 11.3411 682.603 10.763 682.603 9.99219C682.603 9.22656 682.52 8.65365 682.353 8.27344C682.186 7.88802 681.929 7.69531 681.58 7.69531ZM689.244 6.57812L682.908 18H681.4L687.736 6.57812H689.244ZM689.033 10.9844C689.871 10.9844 690.507 11.2969 690.939 11.9219C691.377 12.5417 691.595 13.4193 691.595 14.5547C691.595 15.6797 691.387 16.5599 690.97 17.1953C690.559 17.8307 689.913 18.1484 689.033 18.1484C688.215 18.1484 687.593 17.8307 687.166 17.1953C686.739 16.5599 686.525 15.6797 686.525 14.5547C686.525 13.4193 686.726 12.5417 687.127 11.9219C687.533 11.2969 688.168 10.9844 689.033 10.9844ZM689.041 12.2656C688.702 12.2656 688.452 12.4557 688.291 12.8359C688.134 13.2161 688.056 13.7917 688.056 14.5625C688.056 15.3281 688.134 15.9062 688.291 16.2969C688.452 16.6823 688.702 16.875 689.041 16.875C689.39 16.875 689.647 16.6849 689.814 16.3047C689.981 15.9193 690.064 15.3385 690.064 14.5625C690.064 13.7969 689.981 13.224 689.814 12.8438C689.647 12.4583 689.39 12.2656 689.041 12.2656Z" fill="#A3DE74"/>
<path d="M720.641 12.2734C720.641 13.1536 720.529 13.9557 720.305 14.6797C720.086 15.3984 719.755 16.0182 719.312 16.5391C718.87 17.0547 718.315 17.4531 717.648 17.7344C716.982 18.0156 716.201 18.1562 715.305 18.1562C714.393 18.1562 713.602 18.0156 712.93 17.7344C712.263 17.4531 711.708 17.0521 711.266 16.5312C710.828 16.0104 710.5 15.388 710.281 14.6641C710.062 13.9401 709.953 13.138 709.953 12.2578C709.953 11.0807 710.146 10.0547 710.531 9.17969C710.922 8.29948 711.513 7.61719 712.305 7.13281C713.102 6.64323 714.107 6.39844 715.32 6.39844C716.508 6.39844 717.495 6.64062 718.281 7.125C719.068 7.60938 719.656 8.29167 720.047 9.17188C720.443 10.0469 720.641 11.0807 720.641 12.2734ZM711.922 12.2734C711.922 13.1536 712.042 13.9167 712.281 14.5625C712.521 15.2031 712.888 15.6979 713.383 16.0469C713.883 16.3906 714.523 16.5625 715.305 16.5625C716.091 16.5625 716.732 16.3906 717.227 16.0469C717.721 15.6979 718.086 15.2031 718.32 14.5625C718.555 13.9167 718.672 13.1536 718.672 12.2734C718.672 10.9349 718.404 9.88802 717.867 9.13281C717.336 8.3724 716.487 7.99219 715.32 7.99219C714.539 7.99219 713.896 8.16406 713.391 8.50781C712.891 8.85156 712.521 9.34375 712.281 9.98438C712.042 10.6198 711.922 11.3828 711.922 12.2734ZM726.385 6.57812C727.369 6.57812 728.182 6.69792 728.822 6.9375C729.468 7.17708 729.947 7.54167 730.26 8.03125C730.577 8.52083 730.736 9.14323 730.736 9.89844C730.736 10.4609 730.632 10.9401 730.424 11.3359C730.215 11.7318 729.942 12.0599 729.603 12.3203C729.265 12.5807 728.903 12.7891 728.517 12.9453L731.76 18H729.642L726.885 13.4219H725.049V18H723.174V6.57812H726.385ZM726.26 8.14062H725.049V11.875H726.346C727.215 11.875 727.846 11.7135 728.236 11.3906C728.632 11.0677 728.83 10.5911 728.83 9.96094C728.83 9.29948 728.619 8.83073 728.197 8.55469C727.781 8.27865 727.135 8.14062 726.26 8.14062ZM738.34 8.00781C737.793 8.00781 737.303 8.10677 736.871 8.30469C736.444 8.5026 736.082 8.78906 735.785 9.16406C735.488 9.53385 735.262 9.98438 735.105 10.5156C734.949 11.0417 734.871 11.6354 734.871 12.2969C734.871 13.1823 734.996 13.9453 735.246 14.5859C735.496 15.2214 735.876 15.7109 736.387 16.0547C736.897 16.3932 737.543 16.5625 738.324 16.5625C738.808 16.5625 739.28 16.5156 739.738 16.4219C740.196 16.3281 740.67 16.2005 741.16 16.0391V17.6328C740.696 17.8151 740.228 17.9479 739.754 18.0312C739.28 18.1146 738.733 18.1562 738.113 18.1562C736.946 18.1562 735.978 17.9141 735.207 17.4297C734.441 16.9453 733.868 16.263 733.488 15.3828C733.113 14.5026 732.926 13.4714 732.926 12.2891C732.926 11.4245 733.045 10.6328 733.285 9.91406C733.525 9.19531 733.874 8.57552 734.332 8.05469C734.79 7.52865 735.355 7.125 736.027 6.84375C736.704 6.55729 737.478 6.41406 738.347 6.41406C738.92 6.41406 739.483 6.47917 740.035 6.60938C740.592 6.73438 741.108 6.91406 741.582 7.14844L740.926 8.69531C740.53 8.50781 740.116 8.34635 739.683 8.21094C739.251 8.07552 738.803 8.00781 738.34 8.00781Z" fill="white"/>
<path d="M752.258 11.6641H755.383V13.0547H752.258V16.2109H750.867V13.0547H747.75V11.6641H750.867V8.47656H752.258V11.6641ZM765.074 10.8594C765.808 10.8594 766.454 10.9922 767.012 11.2578C767.574 11.5182 768.012 11.9036 768.324 12.4141C768.637 12.9193 768.793 13.5391 768.793 14.2734C768.793 15.0755 768.624 15.7682 768.285 16.3516C767.946 16.9297 767.449 17.375 766.793 17.6875C766.137 18 765.337 18.1562 764.394 18.1562C763.795 18.1562 763.236 18.1042 762.715 18C762.199 17.8958 761.754 17.7396 761.379 17.5312V15.875C761.769 16.0938 762.238 16.2734 762.785 16.4141C763.332 16.5495 763.855 16.6172 764.355 16.6172C764.887 16.6172 765.342 16.5391 765.722 16.3828C766.103 16.2266 766.394 15.987 766.597 15.6641C766.806 15.3411 766.91 14.9323 766.91 14.4375C766.91 13.7812 766.699 13.276 766.277 12.9219C765.861 12.5625 765.207 12.3828 764.316 12.3828C764.004 12.3828 763.67 12.4115 763.316 12.4688C762.967 12.5208 762.676 12.5781 762.441 12.6406L761.637 12.1641L762.066 6.57812H768.004V8.19531H763.683L763.433 11.0391C763.621 10.9974 763.845 10.9583 764.105 10.9219C764.366 10.8802 764.689 10.8594 765.074 10.8594ZM770.756 17.0312C770.756 16.6042 770.865 16.3047 771.084 16.1328C771.308 15.9557 771.579 15.8672 771.896 15.8672C772.214 15.8672 772.485 15.9557 772.709 16.1328C772.938 16.3047 773.052 16.6042 773.052 17.0312C773.052 17.4479 772.938 17.75 772.709 17.9375C772.485 18.1198 772.214 18.2109 771.896 18.2109C771.579 18.2109 771.308 18.1198 771.084 17.9375C770.865 17.75 770.756 17.4479 770.756 17.0312ZM774.914 13.1328C774.914 12.4609 774.961 11.7995 775.054 11.1484C775.153 10.4974 775.32 9.88802 775.554 9.32031C775.789 8.7526 776.112 8.2526 776.523 7.82031C776.94 7.38802 777.463 7.04948 778.093 6.80469C778.724 6.55469 779.481 6.42969 780.367 6.42969C780.596 6.42969 780.854 6.4401 781.14 6.46094C781.427 6.48177 781.664 6.51562 781.851 6.5625V8.08594C781.648 8.02865 781.424 7.98438 781.179 7.95312C780.94 7.92188 780.7 7.90625 780.461 7.90625C779.502 7.90625 778.755 8.08854 778.218 8.45312C777.682 8.8125 777.299 9.30729 777.07 9.9375C776.841 10.5625 776.708 11.2786 776.672 12.0859H776.765C776.922 11.8255 777.117 11.5938 777.351 11.3906C777.586 11.1875 777.872 11.026 778.211 10.9062C778.549 10.7812 778.942 10.7188 779.39 10.7188C780.057 10.7188 780.638 10.8594 781.132 11.1406C781.627 11.4167 782.007 11.8177 782.273 12.3438C782.544 12.8698 782.679 13.5078 782.679 14.2578C782.679 15.0651 782.526 15.7604 782.218 16.3438C781.916 16.9271 781.484 17.375 780.922 17.6875C780.364 18 779.7 18.1562 778.929 18.1562C778.362 18.1562 777.833 18.0521 777.343 17.8438C776.859 17.6354 776.435 17.3229 776.07 16.9062C775.705 16.4896 775.422 15.9688 775.218 15.3438C775.015 14.7135 774.914 13.9766 774.914 13.1328ZM778.898 16.6406C779.492 16.6406 779.968 16.4479 780.328 16.0625C780.692 15.6719 780.875 15.0755 780.875 14.2734C780.875 13.6224 780.713 13.1068 780.39 12.7266C780.073 12.3464 779.593 12.1562 778.953 12.1562C778.515 12.1562 778.132 12.25 777.804 12.4375C777.476 12.625 777.221 12.862 777.039 13.1484C776.862 13.4349 776.773 13.7266 776.773 14.0234C776.773 14.3255 776.817 14.6302 776.906 14.9375C776.994 15.2448 777.127 15.5286 777.304 15.7891C777.481 16.0443 777.703 16.25 777.968 16.4062C778.234 16.5625 778.544 16.6406 778.898 16.6406ZM786.572 6.41406C787.41 6.41406 788.046 6.72656 788.478 7.35156C788.91 7.97135 789.127 8.84896 789.127 9.98438C789.127 11.1146 788.918 11.9974 788.502 12.6328C788.09 13.2682 787.447 13.5859 786.572 13.5859C785.754 13.5859 785.132 13.2682 784.705 12.6328C784.278 11.9974 784.064 11.1146 784.064 9.98438C784.064 8.84896 784.265 7.97135 784.666 7.35156C785.072 6.72656 785.707 6.41406 786.572 6.41406ZM786.58 7.69531C786.241 7.69531 785.991 7.88542 785.83 8.26562C785.673 8.64583 785.595 9.22135 785.595 9.99219C785.595 10.7578 785.673 11.3359 785.83 11.7266C785.991 12.112 786.241 12.3047 786.58 12.3047C786.923 12.3047 787.179 12.112 787.345 11.7266C787.517 11.3411 787.603 10.763 787.603 9.99219C787.603 9.22656 787.52 8.65365 787.353 8.27344C787.186 7.88802 786.929 7.69531 786.58 7.69531ZM794.244 6.57812L787.908 18H786.4L792.736 6.57812H794.244ZM794.033 10.9844C794.871 10.9844 795.507 11.2969 795.939 11.9219C796.377 12.5417 796.595 13.4193 796.595 14.5547C796.595 15.6797 796.387 16.5599 795.97 17.1953C795.559 17.8307 794.913 18.1484 794.033 18.1484C793.215 18.1484 792.593 17.8307 792.166 17.1953C791.739 16.5599 791.525 15.6797 791.525 14.5547C791.525 13.4193 791.726 12.5417 792.127 11.9219C792.533 11.2969 793.168 10.9844 794.033 10.9844ZM794.041 12.2656C793.702 12.2656 793.452 12.4557 793.291 12.8359C793.134 13.2161 793.056 13.7917 793.056 14.5625C793.056 15.3281 793.134 15.9062 793.291 16.2969C793.452 16.6823 793.702 16.875 794.041 16.875C794.39 16.875 794.647 16.6849 794.814 16.3047C794.981 15.9193 795.064 15.3385 795.064 14.5625C795.064 13.7969 794.981 13.224 794.814 12.8438C794.647 12.4583 794.39 12.2656 794.041 12.2656Z" fill="#A3DE74"/>
<path d="M824.508 18H822.641V12.8438H817.375V18H815.5V6.57812H817.375V11.25H822.641V6.57812H824.508V18ZM826.189 21.1797C825.903 21.1797 825.653 21.1615 825.439 21.125C825.221 21.0938 825.033 21.0495 824.877 20.9922V19.4219C825.044 19.4635 825.223 19.5 825.416 19.5312C825.609 19.5625 825.814 19.5781 826.033 19.5781C826.32 19.5781 826.58 19.5234 826.814 19.4141C827.049 19.3047 827.234 19.1068 827.369 18.8203C827.51 18.5339 827.58 18.1302 827.58 17.6094V6.57812H829.455V17.5469C829.455 18.3958 829.32 19.0859 829.049 19.6172C828.778 20.1536 828.398 20.5469 827.908 20.7969C827.419 21.0521 826.846 21.1797 826.189 21.1797ZM837.418 18L834.129 8.46094H834.058C834.074 8.67448 834.092 8.96615 834.113 9.33594C834.134 9.70573 834.152 10.1016 834.168 10.5234C834.183 10.9453 834.191 11.349 834.191 11.7344V18H832.488V6.57812H835.121L838.285 15.6953H838.332L841.605 6.57812H844.23V18H842.441V11.6406C842.441 11.2917 842.446 10.9141 842.457 10.5078C842.472 10.1016 842.488 9.71615 842.504 9.35156C842.525 8.98698 842.54 8.69531 842.551 8.47656H842.488L839.074 18H837.418Z" fill="white"/>
<path d="M850.562 14.4844V12.9297H854.594V14.4844H850.562ZM867.926 18H860.191V16.6172L863.152 13.6172C863.725 13.0339 864.196 12.5312 864.566 12.1094C864.936 11.6823 865.209 11.2786 865.387 10.8984C865.569 10.5182 865.66 10.1042 865.66 9.65625C865.66 9.10417 865.501 8.6875 865.183 8.40625C864.866 8.11979 864.446 7.97656 863.926 7.97656C863.431 7.97656 862.972 8.07552 862.551 8.27344C862.134 8.46615 861.702 8.74219 861.254 9.10156L860.246 7.89062C860.564 7.61979 860.902 7.3724 861.262 7.14844C861.626 6.92448 862.032 6.7474 862.48 6.61719C862.928 6.48177 863.439 6.41406 864.012 6.41406C864.736 6.41406 865.361 6.54427 865.887 6.80469C866.413 7.0599 866.816 7.41667 867.097 7.875C867.384 8.33333 867.527 8.86719 867.527 9.47656C867.527 10.0911 867.405 10.6589 867.16 11.1797C866.915 11.7005 866.566 12.2161 866.113 12.7266C865.66 13.2318 865.121 13.7812 864.496 14.375L862.519 16.3047V16.3906H867.926V18ZM869.756 17.0312C869.756 16.6042 869.865 16.3047 870.084 16.1328C870.308 15.9557 870.579 15.8672 870.896 15.8672C871.214 15.8672 871.485 15.9557 871.709 16.1328C871.938 16.3047 872.052 16.6042 872.052 17.0312C872.052 17.4479 871.938 17.75 871.709 17.9375C871.485 18.1198 871.214 18.2109 870.896 18.2109C870.579 18.2109 870.308 18.1198 870.084 17.9375C869.865 17.75 869.756 17.4479 869.756 17.0312ZM882.047 15.4922H880.5V18H878.687V15.4922H873.492V14.1016L878.711 6.54688H880.5V13.9688H882.047V15.4922ZM878.687 13.9688V11.1328C878.687 10.8984 878.69 10.6615 878.695 10.4219C878.705 10.1771 878.716 9.94271 878.726 9.71875C878.737 9.49479 878.747 9.28906 878.757 9.10156C878.768 8.90885 878.776 8.75 878.781 8.625H878.718C878.619 8.83333 878.51 9.04688 878.39 9.26562C878.271 9.47917 878.143 9.6875 878.007 9.89062L875.195 13.9688H878.687ZM885.572 6.41406C886.41 6.41406 887.046 6.72656 887.478 7.35156C887.91 7.97135 888.127 8.84896 888.127 9.98438C888.127 11.1146 887.918 11.9974 887.502 12.6328C887.09 13.2682 886.447 13.5859 885.572 13.5859C884.754 13.5859 884.132 13.2682 883.705 12.6328C883.278 11.9974 883.064 11.1146 883.064 9.98438C883.064 8.84896 883.265 7.97135 883.666 7.35156C884.072 6.72656 884.707 6.41406 885.572 6.41406ZM885.58 7.69531C885.241 7.69531 884.991 7.88542 884.83 8.26562C884.673 8.64583 884.595 9.22135 884.595 9.99219C884.595 10.7578 884.673 11.3359 884.83 11.7266C884.991 12.112 885.241 12.3047 885.58 12.3047C885.923 12.3047 886.179 12.112 886.345 11.7266C886.517 11.3411 886.603 10.763 886.603 9.99219C886.603 9.22656 886.52 8.65365 886.353 8.27344C886.186 7.88802 885.929 7.69531 885.58 7.69531ZM893.244 6.57812L886.908 18H885.4L891.736 6.57812H893.244ZM893.033 10.9844C893.871 10.9844 894.507 11.2969 894.939 11.9219C895.377 12.5417 895.595 13.4193 895.595 14.5547C895.595 15.6797 895.387 16.5599 894.97 17.1953C894.559 17.8307 893.913 18.1484 893.033 18.1484C892.215 18.1484 891.593 17.8307 891.166 17.1953C890.739 16.5599 890.525 15.6797 890.525 14.5547C890.525 13.4193 890.726 12.5417 891.127 11.9219C891.533 11.2969 892.168 10.9844 893.033 10.9844ZM893.041 12.2656C892.702 12.2656 892.452 12.4557 892.291 12.8359C892.134 13.2161 892.056 13.7917 892.056 14.5625C892.056 15.3281 892.134 15.9062 892.291 16.2969C892.452 16.6823 892.702 16.875 893.041 16.875C893.39 16.875 893.647 16.6849 893.814 16.3047C893.981 15.9193 894.064 15.3385 894.064 14.5625C894.064 13.7969 893.981 13.224 893.814 12.8438C893.647 12.4583 893.39 12.2656 893.041 12.2656Z" fill="#E98F8F"/>
<path d="M921.578 18L920.461 14.8281H916.094L914.977 18H913L917.25 6.53125H919.328L923.57 18H921.578ZM919.977 13.2188L918.891 10.0938C918.849 9.95833 918.789 9.76823 918.711 9.52344C918.633 9.27344 918.555 9.02083 918.477 8.76562C918.398 8.50521 918.333 8.28646 918.281 8.10938C918.229 8.32292 918.164 8.5625 918.086 8.82812C918.013 9.08854 917.94 9.33333 917.867 9.5625C917.799 9.79167 917.747 9.96875 917.711 10.0938L916.617 13.2188H919.977ZM931.752 14.8906C931.752 15.5677 931.585 16.151 931.252 16.6406C930.924 17.1302 930.45 17.5052 929.83 17.7656C929.215 18.026 928.481 18.1562 927.627 18.1562C927.21 18.1562 926.812 18.1328 926.432 18.0859C926.051 18.0391 925.692 17.9714 925.353 17.8828C925.02 17.7891 924.715 17.6771 924.439 17.5469V15.7812C924.903 15.9844 925.421 16.1693 925.994 16.3359C926.567 16.4974 927.15 16.5781 927.744 16.5781C928.228 16.5781 928.629 16.5156 928.947 16.3906C929.27 16.2604 929.51 16.0781 929.666 15.8438C929.822 15.6042 929.9 15.3255 929.9 15.0078C929.9 14.6693 929.809 14.3828 929.627 14.1484C929.445 13.9141 929.169 13.7005 928.799 13.5078C928.434 13.3099 927.976 13.099 927.424 12.875C927.049 12.724 926.689 12.5521 926.346 12.3594C926.007 12.1667 925.705 11.9401 925.439 11.6797C925.174 11.4193 924.963 11.112 924.807 10.7578C924.656 10.3984 924.58 9.97656 924.58 9.49219C924.58 8.84635 924.734 8.29427 925.041 7.83594C925.353 7.3776 925.791 7.02604 926.353 6.78125C926.921 6.53646 927.583 6.41406 928.338 6.41406C928.937 6.41406 929.499 6.47656 930.025 6.60156C930.557 6.72656 931.077 6.90365 931.588 7.13281L930.994 8.64062C930.525 8.44792 930.07 8.29427 929.627 8.17969C929.189 8.0651 928.741 8.00781 928.283 8.00781C927.887 8.00781 927.551 8.06771 927.275 8.1875C926.999 8.30729 926.788 8.47656 926.642 8.69531C926.502 8.90885 926.432 9.16406 926.432 9.46094C926.432 9.79427 926.512 10.0755 926.674 10.3047C926.84 10.5286 927.096 10.7344 927.439 10.9219C927.788 11.1094 928.236 11.3177 928.783 11.5469C929.413 11.8073 929.947 12.0807 930.385 12.3672C930.827 12.6536 931.166 12.9974 931.4 13.3984C931.635 13.7943 931.752 14.2917 931.752 14.8906ZM938.902 8.00781C938.355 8.00781 937.866 8.10677 937.433 8.30469C937.006 8.5026 936.644 8.78906 936.347 9.16406C936.051 9.53385 935.824 9.98438 935.668 10.5156C935.512 11.0417 935.433 11.6354 935.433 12.2969C935.433 13.1823 935.558 13.9453 935.808 14.5859C936.058 15.2214 936.439 15.7109 936.949 16.0547C937.459 16.3932 938.105 16.5625 938.887 16.5625C939.371 16.5625 939.842 16.5156 940.301 16.4219C940.759 16.3281 941.233 16.2005 941.722 16.0391V17.6328C941.259 17.8151 940.79 17.9479 940.316 18.0312C939.842 18.1146 939.295 18.1562 938.676 18.1562C937.509 18.1562 936.54 17.9141 935.769 17.4297C935.004 16.9453 934.431 16.263 934.051 15.3828C933.676 14.5026 933.488 13.4714 933.488 12.2891C933.488 11.4245 933.608 10.6328 933.847 9.91406C934.087 9.19531 934.436 8.57552 934.894 8.05469C935.353 7.52865 935.918 7.125 936.59 6.84375C937.267 6.55729 938.04 6.41406 938.91 6.41406C939.483 6.41406 940.045 6.47917 940.597 6.60938C941.155 6.73438 941.67 6.91406 942.144 7.14844L941.488 8.69531C941.092 8.50781 940.678 8.34635 940.246 8.21094C939.814 8.07552 939.366 8.00781 938.902 8.00781Z" fill="white"/>
<path d="M952.258 11.6641H955.383V13.0547H952.258V16.2109H950.867V13.0547H947.75V11.6641H950.867V8.47656H952.258V11.6641ZM966.59 18H964.746V10.6484C964.746 10.4036 964.749 10.1589 964.754 9.91406C964.759 9.66927 964.764 9.42969 964.769 9.19531C964.78 8.96094 964.793 8.73698 964.808 8.52344C964.699 8.64323 964.564 8.77344 964.402 8.91406C964.246 9.05469 964.079 9.20052 963.902 9.35156L962.59 10.3984L961.668 9.23438L965.058 6.57812H966.59V18ZM970.756 17.0312C970.756 16.6042 970.865 16.3047 971.084 16.1328C971.308 15.9557 971.579 15.8672 971.896 15.8672C972.214 15.8672 972.485 15.9557 972.709 16.1328C972.938 16.3047 973.052 16.6042 973.052 17.0312C973.052 17.4479 972.938 17.75 972.709 17.9375C972.485 18.1198 972.214 18.2109 971.896 18.2109C971.579 18.2109 971.308 18.1198 971.084 17.9375C970.865 17.75 970.756 17.4479 970.756 17.0312ZM982.632 18H974.898V16.6172L977.859 13.6172C978.432 13.0339 978.903 12.5312 979.273 12.1094C979.643 11.6823 979.916 11.2786 980.093 10.8984C980.276 10.5182 980.367 10.1042 980.367 9.65625C980.367 9.10417 980.208 8.6875 979.89 8.40625C979.573 8.11979 979.153 7.97656 978.632 7.97656C978.138 7.97656 977.679 8.07552 977.257 8.27344C976.841 8.46615 976.409 8.74219 975.961 9.10156L974.953 7.89062C975.271 7.61979 975.609 7.3724 975.968 7.14844C976.333 6.92448 976.739 6.7474 977.187 6.61719C977.635 6.48177 978.146 6.41406 978.718 6.41406C979.442 6.41406 980.067 6.54427 980.593 6.80469C981.119 7.0599 981.523 7.41667 981.804 7.875C982.091 8.33333 982.234 8.86719 982.234 9.47656C982.234 10.0911 982.112 10.6589 981.867 11.1797C981.622 11.7005 981.273 12.2161 980.82 12.7266C980.367 13.2318 979.828 13.7812 979.203 14.375L977.226 16.3047V16.3906H982.632V18ZM986.572 6.41406C987.41 6.41406 988.046 6.72656 988.478 7.35156C988.91 7.97135 989.127 8.84896 989.127 9.98438C989.127 11.1146 988.918 11.9974 988.502 12.6328C988.09 13.2682 987.447 13.5859 986.572 13.5859C985.754 13.5859 985.132 13.2682 984.705 12.6328C984.278 11.9974 984.064 11.1146 984.064 9.98438C984.064 8.84896 984.265 7.97135 984.666 7.35156C985.072 6.72656 985.707 6.41406 986.572 6.41406ZM986.58 7.69531C986.241 7.69531 985.991 7.88542 985.83 8.26562C985.673 8.64583 985.595 9.22135 985.595 9.99219C985.595 10.7578 985.673 11.3359 985.83 11.7266C985.991 12.112 986.241 12.3047 986.58 12.3047C986.923 12.3047 987.179 12.112 987.345 11.7266C987.517 11.3411 987.603 10.763 987.603 9.99219C987.603 9.22656 987.52 8.65365 987.353 8.27344C987.186 7.88802 986.929 7.69531 986.58 7.69531ZM994.244 6.57812L987.908 18H986.4L992.736 6.57812H994.244ZM994.033 10.9844C994.871 10.9844 995.507 11.2969 995.939 11.9219C996.377 12.5417 996.595 13.4193 996.595 14.5547C996.595 15.6797 996.387 16.5599 995.97 17.1953C995.559 17.8307 994.913 18.1484 994.033 18.1484C993.215 18.1484 992.593 17.8307 992.166 17.1953C991.739 16.5599 991.525 15.6797 991.525 14.5547C991.525 13.4193 991.726 12.5417 992.127 11.9219C992.533 11.2969 993.168 10.9844 994.033 10.9844ZM994.041 12.2656C993.702 12.2656 993.452 12.4557 993.291 12.8359C993.134 13.2161 993.056 13.7917 993.056 14.5625C993.056 15.3281 993.134 15.9062 993.291 16.2969C993.452 16.6823 993.702 16.875 994.041 16.875C994.39 16.875 994.647 16.6849 994.814 16.3047C994.981 15.9193 995.064 15.3385 995.064 14.5625C995.064 13.7969 994.981 13.224 994.814 12.8438C994.647 12.4583 994.39 12.2656 994.041 12.2656Z" fill="#A3DE74"/>
<path d="M1024.51 18H1022.64V12.8438H1017.38V18H1015.5V6.57812H1017.38V11.25H1022.64V6.57812H1024.51V18ZM1026.19 21.1797C1025.9 21.1797 1025.65 21.1615 1025.44 21.125C1025.22 21.0938 1025.03 21.0495 1024.88 20.9922V19.4219C1025.04 19.4635 1025.22 19.5 1025.42 19.5312C1025.61 19.5625 1025.81 19.5781 1026.03 19.5781C1026.32 19.5781 1026.58 19.5234 1026.81 19.4141C1027.05 19.3047 1027.23 19.1068 1027.37 18.8203C1027.51 18.5339 1027.58 18.1302 1027.58 17.6094V6.57812H1029.45V17.5469C1029.45 18.3958 1029.32 19.0859 1029.05 19.6172C1028.78 20.1536 1028.4 20.5469 1027.91 20.7969C1027.42 21.0521 1026.85 21.1797 1026.19 21.1797ZM1037.42 18L1034.13 8.46094H1034.06C1034.07 8.67448 1034.09 8.96615 1034.11 9.33594C1034.13 9.70573 1034.15 10.1016 1034.17 10.5234C1034.18 10.9453 1034.19 11.349 1034.19 11.7344V18H1032.49V6.57812H1035.12L1038.28 15.6953H1038.33L1041.61 6.57812H1044.23V18H1042.44V11.6406C1042.44 11.2917 1042.45 10.9141 1042.46 10.5078C1042.47 10.1016 1042.49 9.71615 1042.5 9.35156C1042.52 8.98698 1042.54 8.69531 1042.55 8.47656H1042.49L1039.07 18H1037.42Z" fill="white"/>
<path d="M1050.56 14.4844V12.9297H1054.59V14.4844H1050.56ZM1067.93 18H1060.19V16.6172L1063.15 13.6172C1063.73 13.0339 1064.2 12.5312 1064.57 12.1094C1064.94 11.6823 1065.21 11.2786 1065.39 10.8984C1065.57 10.5182 1065.66 10.1042 1065.66 9.65625C1065.66 9.10417 1065.5 8.6875 1065.18 8.40625C1064.87 8.11979 1064.45 7.97656 1063.93 7.97656C1063.43 7.97656 1062.97 8.07552 1062.55 8.27344C1062.13 8.46615 1061.7 8.74219 1061.25 9.10156L1060.25 7.89062C1060.56 7.61979 1060.9 7.3724 1061.26 7.14844C1061.63 6.92448 1062.03 6.7474 1062.48 6.61719C1062.93 6.48177 1063.44 6.41406 1064.01 6.41406C1064.74 6.41406 1065.36 6.54427 1065.89 6.80469C1066.41 7.0599 1066.82 7.41667 1067.1 7.875C1067.38 8.33333 1067.53 8.86719 1067.53 9.47656C1067.53 10.0911 1067.4 10.6589 1067.16 11.1797C1066.92 11.7005 1066.57 12.2161 1066.11 12.7266C1065.66 13.2318 1065.12 13.7812 1064.5 14.375L1062.52 16.3047V16.3906H1067.93V18ZM1069.76 17.0312C1069.76 16.6042 1069.86 16.3047 1070.08 16.1328C1070.31 15.9557 1070.58 15.8672 1070.9 15.8672C1071.21 15.8672 1071.48 15.9557 1071.71 16.1328C1071.94 16.3047 1072.05 16.6042 1072.05 17.0312C1072.05 17.4479 1071.94 17.75 1071.71 17.9375C1071.48 18.1198 1071.21 18.2109 1070.9 18.2109C1070.58 18.2109 1070.31 18.1198 1070.08 17.9375C1069.86 17.75 1069.76 17.4479 1069.76 17.0312ZM1082.05 15.4922H1080.5V18H1078.69V15.4922H1073.49V14.1016L1078.71 6.54688H1080.5V13.9688H1082.05V15.4922ZM1078.69 13.9688V11.1328C1078.69 10.8984 1078.69 10.6615 1078.69 10.4219C1078.71 10.1771 1078.72 9.94271 1078.73 9.71875C1078.74 9.49479 1078.75 9.28906 1078.76 9.10156C1078.77 8.90885 1078.78 8.75 1078.78 8.625H1078.72C1078.62 8.83333 1078.51 9.04688 1078.39 9.26562C1078.27 9.47917 1078.14 9.6875 1078.01 9.89062L1075.19 13.9688H1078.69ZM1085.57 6.41406C1086.41 6.41406 1087.05 6.72656 1087.48 7.35156C1087.91 7.97135 1088.13 8.84896 1088.13 9.98438C1088.13 11.1146 1087.92 11.9974 1087.5 12.6328C1087.09 13.2682 1086.45 13.5859 1085.57 13.5859C1084.75 13.5859 1084.13 13.2682 1083.7 12.6328C1083.28 11.9974 1083.06 11.1146 1083.06 9.98438C1083.06 8.84896 1083.26 7.97135 1083.67 7.35156C1084.07 6.72656 1084.71 6.41406 1085.57 6.41406ZM1085.58 7.69531C1085.24 7.69531 1084.99 7.88542 1084.83 8.26562C1084.67 8.64583 1084.6 9.22135 1084.6 9.99219C1084.6 10.7578 1084.67 11.3359 1084.83 11.7266C1084.99 12.112 1085.24 12.3047 1085.58 12.3047C1085.92 12.3047 1086.18 12.112 1086.35 11.7266C1086.52 11.3411 1086.6 10.763 1086.6 9.99219C1086.6 9.22656 1086.52 8.65365 1086.35 8.27344C1086.19 7.88802 1085.93 7.69531 1085.58 7.69531ZM1093.24 6.57812L1086.91 18H1085.4L1091.74 6.57812H1093.24ZM1093.03 10.9844C1093.87 10.9844 1094.51 11.2969 1094.94 11.9219C1095.38 12.5417 1095.6 13.4193 1095.6 14.5547C1095.6 15.6797 1095.39 16.5599 1094.97 17.1953C1094.56 17.8307 1093.91 18.1484 1093.03 18.1484C1092.22 18.1484 1091.59 17.8307 1091.17 17.1953C1090.74 16.5599 1090.53 15.6797 1090.53 14.5547C1090.53 13.4193 1090.73 12.5417 1091.13 11.9219C1091.53 11.2969 1092.17 10.9844 1093.03 10.9844ZM1093.04 12.2656C1092.7 12.2656 1092.45 12.4557 1092.29 12.8359C1092.13 13.2161 1092.06 13.7917 1092.06 14.5625C1092.06 15.3281 1092.13 15.9062 1092.29 16.2969C1092.45 16.6823 1092.7 16.875 1093.04 16.875C1093.39 16.875 1093.65 16.6849 1093.81 16.3047C1093.98 15.9193 1094.06 15.3385 1094.06 14.5625C1094.06 13.7969 1093.98 13.224 1093.81 12.8438C1093.65 12.4583 1093.39 12.2656 1093.04 12.2656Z" fill="#E98F8F"/>
<path d="M1121.58 18L1120.46 14.8281H1116.09L1114.98 18H1113L1117.25 6.53125H1119.33L1123.57 18H1121.58ZM1119.98 13.2188L1118.89 10.0938C1118.85 9.95833 1118.79 9.76823 1118.71 9.52344C1118.63 9.27344 1118.55 9.02083 1118.48 8.76562C1118.4 8.50521 1118.33 8.28646 1118.28 8.10938C1118.23 8.32292 1118.16 8.5625 1118.09 8.82812C1118.01 9.08854 1117.94 9.33333 1117.87 9.5625C1117.8 9.79167 1117.75 9.96875 1117.71 10.0938L1116.62 13.2188H1119.98ZM1131.75 14.8906C1131.75 15.5677 1131.59 16.151 1131.25 16.6406C1130.92 17.1302 1130.45 17.5052 1129.83 17.7656C1129.22 18.026 1128.48 18.1562 1127.63 18.1562C1127.21 18.1562 1126.81 18.1328 1126.43 18.0859C1126.05 18.0391 1125.69 17.9714 1125.35 17.8828C1125.02 17.7891 1124.72 17.6771 1124.44 17.5469V15.7812C1124.9 15.9844 1125.42 16.1693 1125.99 16.3359C1126.57 16.4974 1127.15 16.5781 1127.74 16.5781C1128.23 16.5781 1128.63 16.5156 1128.95 16.3906C1129.27 16.2604 1129.51 16.0781 1129.67 15.8438C1129.82 15.6042 1129.9 15.3255 1129.9 15.0078C1129.9 14.6693 1129.81 14.3828 1129.63 14.1484C1129.44 13.9141 1129.17 13.7005 1128.8 13.5078C1128.43 13.3099 1127.98 13.099 1127.42 12.875C1127.05 12.724 1126.69 12.5521 1126.35 12.3594C1126.01 12.1667 1125.7 11.9401 1125.44 11.6797C1125.17 11.4193 1124.96 11.112 1124.81 10.7578C1124.66 10.3984 1124.58 9.97656 1124.58 9.49219C1124.58 8.84635 1124.73 8.29427 1125.04 7.83594C1125.35 7.3776 1125.79 7.02604 1126.35 6.78125C1126.92 6.53646 1127.58 6.41406 1128.34 6.41406C1128.94 6.41406 1129.5 6.47656 1130.03 6.60156C1130.56 6.72656 1131.08 6.90365 1131.59 7.13281L1130.99 8.64062C1130.53 8.44792 1130.07 8.29427 1129.63 8.17969C1129.19 8.0651 1128.74 8.00781 1128.28 8.00781C1127.89 8.00781 1127.55 8.06771 1127.28 8.1875C1127 8.30729 1126.79 8.47656 1126.64 8.69531C1126.5 8.90885 1126.43 9.16406 1126.43 9.46094C1126.43 9.79427 1126.51 10.0755 1126.67 10.3047C1126.84 10.5286 1127.1 10.7344 1127.44 10.9219C1127.79 11.1094 1128.24 11.3177 1128.78 11.5469C1129.41 11.8073 1129.95 12.0807 1130.38 12.3672C1130.83 12.6536 1131.17 12.9974 1131.4 13.3984C1131.63 13.7943 1131.75 14.2917 1131.75 14.8906ZM1138.9 8.00781C1138.36 8.00781 1137.87 8.10677 1137.43 8.30469C1137.01 8.5026 1136.64 8.78906 1136.35 9.16406C1136.05 9.53385 1135.82 9.98438 1135.67 10.5156C1135.51 11.0417 1135.43 11.6354 1135.43 12.2969C1135.43 13.1823 1135.56 13.9453 1135.81 14.5859C1136.06 15.2214 1136.44 15.7109 1136.95 16.0547C1137.46 16.3932 1138.11 16.5625 1138.89 16.5625C1139.37 16.5625 1139.84 16.5156 1140.3 16.4219C1140.76 16.3281 1141.23 16.2005 1141.72 16.0391V17.6328C1141.26 17.8151 1140.79 17.9479 1140.32 18.0312C1139.84 18.1146 1139.3 18.1562 1138.68 18.1562C1137.51 18.1562 1136.54 17.9141 1135.77 17.4297C1135 16.9453 1134.43 16.263 1134.05 15.3828C1133.68 14.5026 1133.49 13.4714 1133.49 12.2891C1133.49 11.4245 1133.61 10.6328 1133.85 9.91406C1134.09 9.19531 1134.44 8.57552 1134.89 8.05469C1135.35 7.52865 1135.92 7.125 1136.59 6.84375C1137.27 6.55729 1138.04 6.41406 1138.91 6.41406C1139.48 6.41406 1140.05 6.47917 1140.6 6.60938C1141.15 6.73438 1141.67 6.91406 1142.14 7.14844L1141.49 8.69531C1141.09 8.50781 1140.68 8.34635 1140.25 8.21094C1139.81 8.07552 1139.37 8.00781 1138.9 8.00781Z" fill="white"/>
<path d="M1152.26 11.6641H1155.38V13.0547H1152.26V16.2109H1150.87V13.0547H1147.75V11.6641H1150.87V8.47656H1152.26V11.6641ZM1166.59 18H1164.75V10.6484C1164.75 10.4036 1164.75 10.1589 1164.75 9.91406C1164.76 9.66927 1164.76 9.42969 1164.77 9.19531C1164.78 8.96094 1164.79 8.73698 1164.81 8.52344C1164.7 8.64323 1164.56 8.77344 1164.4 8.91406C1164.25 9.05469 1164.08 9.20052 1163.9 9.35156L1162.59 10.3984L1161.67 9.23438L1165.06 6.57812H1166.59V18ZM1170.76 17.0312C1170.76 16.6042 1170.86 16.3047 1171.08 16.1328C1171.31 15.9557 1171.58 15.8672 1171.9 15.8672C1172.21 15.8672 1172.48 15.9557 1172.71 16.1328C1172.94 16.3047 1173.05 16.6042 1173.05 17.0312C1173.05 17.4479 1172.94 17.75 1172.71 17.9375C1172.48 18.1198 1172.21 18.2109 1171.9 18.2109C1171.58 18.2109 1171.31 18.1198 1171.08 17.9375C1170.86 17.75 1170.76 17.4479 1170.76 17.0312ZM1182.63 18H1174.9V16.6172L1177.86 13.6172C1178.43 13.0339 1178.9 12.5312 1179.27 12.1094C1179.64 11.6823 1179.92 11.2786 1180.09 10.8984C1180.28 10.5182 1180.37 10.1042 1180.37 9.65625C1180.37 9.10417 1180.21 8.6875 1179.89 8.40625C1179.57 8.11979 1179.15 7.97656 1178.63 7.97656C1178.14 7.97656 1177.68 8.07552 1177.26 8.27344C1176.84 8.46615 1176.41 8.74219 1175.96 9.10156L1174.95 7.89062C1175.27 7.61979 1175.61 7.3724 1175.97 7.14844C1176.33 6.92448 1176.74 6.7474 1177.19 6.61719C1177.64 6.48177 1178.15 6.41406 1178.72 6.41406C1179.44 6.41406 1180.07 6.54427 1180.59 6.80469C1181.12 7.0599 1181.52 7.41667 1181.8 7.875C1182.09 8.33333 1182.23 8.86719 1182.23 9.47656C1182.23 10.0911 1182.11 10.6589 1181.87 11.1797C1181.62 11.7005 1181.27 12.2161 1180.82 12.7266C1180.37 13.2318 1179.83 13.7812 1179.2 14.375L1177.23 16.3047V16.3906H1182.63V18ZM1186.57 6.41406C1187.41 6.41406 1188.05 6.72656 1188.48 7.35156C1188.91 7.97135 1189.13 8.84896 1189.13 9.98438C1189.13 11.1146 1188.92 11.9974 1188.5 12.6328C1188.09 13.2682 1187.45 13.5859 1186.57 13.5859C1185.75 13.5859 1185.13 13.2682 1184.7 12.6328C1184.28 11.9974 1184.06 11.1146 1184.06 9.98438C1184.06 8.84896 1184.26 7.97135 1184.67 7.35156C1185.07 6.72656 1185.71 6.41406 1186.57 6.41406ZM1186.58 7.69531C1186.24 7.69531 1185.99 7.88542 1185.83 8.26562C1185.67 8.64583 1185.6 9.22135 1185.6 9.99219C1185.6 10.7578 1185.67 11.3359 1185.83 11.7266C1185.99 12.112 1186.24 12.3047 1186.58 12.3047C1186.92 12.3047 1187.18 12.112 1187.35 11.7266C1187.52 11.3411 1187.6 10.763 1187.6 9.99219C1187.6 9.22656 1187.52 8.65365 1187.35 8.27344C1187.19 7.88802 1186.93 7.69531 1186.58 7.69531ZM1194.24 6.57812L1187.91 18H1186.4L1192.74 6.57812H1194.24ZM1194.03 10.9844C1194.87 10.9844 1195.51 11.2969 1195.94 11.9219C1196.38 12.5417 1196.6 13.4193 1196.6 14.5547C1196.6 15.6797 1196.39 16.5599 1195.97 17.1953C1195.56 17.8307 1194.91 18.1484 1194.03 18.1484C1193.22 18.1484 1192.59 17.8307 1192.17 17.1953C1191.74 16.5599 1191.53 15.6797 1191.53 14.5547C1191.53 13.4193 1191.73 12.5417 1192.13 11.9219C1192.53 11.2969 1193.17 10.9844 1194.03 10.9844ZM1194.04 12.2656C1193.7 12.2656 1193.45 12.4557 1193.29 12.8359C1193.13 13.2161 1193.06 13.7917 1193.06 14.5625C1193.06 15.3281 1193.13 15.9062 1193.29 16.2969C1193.45 16.6823 1193.7 16.875 1194.04 16.875C1194.39 16.875 1194.65 16.6849 1194.81 16.3047C1194.98 15.9193 1195.06 15.3385 1195.06 14.5625C1195.06 13.7969 1194.98 13.224 1194.81 12.8438C1194.65 12.4583 1194.39 12.2656 1194.04 12.2656Z" fill="#A3DE74"/>
<path d="M1225.64 12.2734C1225.64 13.1536 1225.53 13.9557 1225.3 14.6797C1225.09 15.3984 1224.76 16.0182 1224.31 16.5391C1223.87 17.0547 1223.32 17.4531 1222.65 17.7344C1221.98 18.0156 1221.2 18.1562 1220.3 18.1562C1219.39 18.1562 1218.6 18.0156 1217.93 17.7344C1217.26 17.4531 1216.71 17.0521 1216.27 16.5312C1215.83 16.0104 1215.5 15.388 1215.28 14.6641C1215.06 13.9401 1214.95 13.138 1214.95 12.2578C1214.95 11.0807 1215.15 10.0547 1215.53 9.17969C1215.92 8.29948 1216.51 7.61719 1217.3 7.13281C1218.1 6.64323 1219.11 6.39844 1220.32 6.39844C1221.51 6.39844 1222.49 6.64062 1223.28 7.125C1224.07 7.60938 1224.66 8.29167 1225.05 9.17188C1225.44 10.0469 1225.64 11.0807 1225.64 12.2734ZM1216.92 12.2734C1216.92 13.1536 1217.04 13.9167 1217.28 14.5625C1217.52 15.2031 1217.89 15.6979 1218.38 16.0469C1218.88 16.3906 1219.52 16.5625 1220.3 16.5625C1221.09 16.5625 1221.73 16.3906 1222.23 16.0469C1222.72 15.6979 1223.09 15.2031 1223.32 14.5625C1223.55 13.9167 1223.67 13.1536 1223.67 12.2734C1223.67 10.9349 1223.4 9.88802 1222.87 9.13281C1222.34 8.3724 1221.49 7.99219 1220.32 7.99219C1219.54 7.99219 1218.9 8.16406 1218.39 8.50781C1217.89 8.85156 1217.52 9.34375 1217.28 9.98438C1217.04 10.6198 1216.92 11.3828 1216.92 12.2734ZM1231.38 6.57812C1232.37 6.57812 1233.18 6.69792 1233.82 6.9375C1234.47 7.17708 1234.95 7.54167 1235.26 8.03125C1235.58 8.52083 1235.74 9.14323 1235.74 9.89844C1235.74 10.4609 1235.63 10.9401 1235.42 11.3359C1235.22 11.7318 1234.94 12.0599 1234.6 12.3203C1234.26 12.5807 1233.9 12.7891 1233.52 12.9453L1236.76 18H1234.64L1231.88 13.4219H1230.05V18H1228.17V6.57812H1231.38ZM1231.26 8.14062H1230.05V11.875H1231.35C1232.22 11.875 1232.85 11.7135 1233.24 11.3906C1233.63 11.0677 1233.83 10.5911 1233.83 9.96094C1233.83 9.29948 1233.62 8.83073 1233.2 8.55469C1232.78 8.27865 1232.13 8.14062 1231.26 8.14062ZM1243.34 8.00781C1242.79 8.00781 1242.3 8.10677 1241.87 8.30469C1241.44 8.5026 1241.08 8.78906 1240.78 9.16406C1240.49 9.53385 1240.26 9.98438 1240.11 10.5156C1239.95 11.0417 1239.87 11.6354 1239.87 12.2969C1239.87 13.1823 1240 13.9453 1240.25 14.5859C1240.5 15.2214 1240.88 15.7109 1241.39 16.0547C1241.9 16.3932 1242.54 16.5625 1243.32 16.5625C1243.81 16.5625 1244.28 16.5156 1244.74 16.4219C1245.2 16.3281 1245.67 16.2005 1246.16 16.0391V17.6328C1245.7 17.8151 1245.23 17.9479 1244.75 18.0312C1244.28 18.1146 1243.73 18.1562 1243.11 18.1562C1241.95 18.1562 1240.98 17.9141 1240.21 17.4297C1239.44 16.9453 1238.87 16.263 1238.49 15.3828C1238.11 14.5026 1237.93 13.4714 1237.93 12.2891C1237.93 11.4245 1238.05 10.6328 1238.28 9.91406C1238.52 9.19531 1238.87 8.57552 1239.33 8.05469C1239.79 7.52865 1240.36 7.125 1241.03 6.84375C1241.7 6.55729 1242.48 6.41406 1243.35 6.41406C1243.92 6.41406 1244.48 6.47917 1245.03 6.60938C1245.59 6.73438 1246.11 6.91406 1246.58 7.14844L1245.93 8.69531C1245.53 8.50781 1245.12 8.34635 1244.68 8.21094C1244.25 8.07552 1243.8 8.00781 1243.34 8.00781Z" fill="white"/>
<path d="M1257.26 11.6641H1260.38V13.0547H1257.26V16.2109H1255.87V13.0547H1252.75V11.6641H1255.87V8.47656H1257.26V11.6641ZM1270.07 10.8594C1270.81 10.8594 1271.45 10.9922 1272.01 11.2578C1272.57 11.5182 1273.01 11.9036 1273.32 12.4141C1273.64 12.9193 1273.79 13.5391 1273.79 14.2734C1273.79 15.0755 1273.62 15.7682 1273.28 16.3516C1272.95 16.9297 1272.45 17.375 1271.79 17.6875C1271.14 18 1270.34 18.1562 1269.39 18.1562C1268.8 18.1562 1268.24 18.1042 1267.71 18C1267.2 17.8958 1266.75 17.7396 1266.38 17.5312V15.875C1266.77 16.0938 1267.24 16.2734 1267.78 16.4141C1268.33 16.5495 1268.86 16.6172 1269.36 16.6172C1269.89 16.6172 1270.34 16.5391 1270.72 16.3828C1271.1 16.2266 1271.39 15.987 1271.6 15.6641C1271.81 15.3411 1271.91 14.9323 1271.91 14.4375C1271.91 13.7812 1271.7 13.276 1271.28 12.9219C1270.86 12.5625 1270.21 12.3828 1269.32 12.3828C1269 12.3828 1268.67 12.4115 1268.32 12.4688C1267.97 12.5208 1267.68 12.5781 1267.44 12.6406L1266.64 12.1641L1267.07 6.57812H1273V8.19531H1268.68L1268.43 11.0391C1268.62 10.9974 1268.84 10.9583 1269.11 10.9219C1269.37 10.8802 1269.69 10.8594 1270.07 10.8594ZM1275.76 17.0312C1275.76 16.6042 1275.86 16.3047 1276.08 16.1328C1276.31 15.9557 1276.58 15.8672 1276.9 15.8672C1277.21 15.8672 1277.48 15.9557 1277.71 16.1328C1277.94 16.3047 1278.05 16.6042 1278.05 17.0312C1278.05 17.4479 1277.94 17.75 1277.71 17.9375C1277.48 18.1198 1277.21 18.2109 1276.9 18.2109C1276.58 18.2109 1276.31 18.1198 1276.08 17.9375C1275.86 17.75 1275.76 17.4479 1275.76 17.0312ZM1279.91 13.1328C1279.91 12.4609 1279.96 11.7995 1280.05 11.1484C1280.15 10.4974 1280.32 9.88802 1280.55 9.32031C1280.79 8.7526 1281.11 8.2526 1281.52 7.82031C1281.94 7.38802 1282.46 7.04948 1283.09 6.80469C1283.72 6.55469 1284.48 6.42969 1285.37 6.42969C1285.6 6.42969 1285.85 6.4401 1286.14 6.46094C1286.43 6.48177 1286.66 6.51562 1286.85 6.5625V8.08594C1286.65 8.02865 1286.42 7.98438 1286.18 7.95312C1285.94 7.92188 1285.7 7.90625 1285.46 7.90625C1284.5 7.90625 1283.75 8.08854 1283.22 8.45312C1282.68 8.8125 1282.3 9.30729 1282.07 9.9375C1281.84 10.5625 1281.71 11.2786 1281.67 12.0859H1281.77C1281.92 11.8255 1282.12 11.5938 1282.35 11.3906C1282.59 11.1875 1282.87 11.026 1283.21 10.9062C1283.55 10.7812 1283.94 10.7188 1284.39 10.7188C1285.06 10.7188 1285.64 10.8594 1286.13 11.1406C1286.63 11.4167 1287.01 11.8177 1287.27 12.3438C1287.54 12.8698 1287.68 13.5078 1287.68 14.2578C1287.68 15.0651 1287.53 15.7604 1287.22 16.3438C1286.92 16.9271 1286.48 17.375 1285.92 17.6875C1285.36 18 1284.7 18.1562 1283.93 18.1562C1283.36 18.1562 1282.83 18.0521 1282.34 17.8438C1281.86 17.6354 1281.43 17.3229 1281.07 16.9062C1280.71 16.4896 1280.42 15.9688 1280.22 15.3438C1280.02 14.7135 1279.91 13.9766 1279.91 13.1328ZM1283.9 16.6406C1284.49 16.6406 1284.97 16.4479 1285.33 16.0625C1285.69 15.6719 1285.87 15.0755 1285.87 14.2734C1285.87 13.6224 1285.71 13.1068 1285.39 12.7266C1285.07 12.3464 1284.59 12.1562 1283.95 12.1562C1283.52 12.1562 1283.13 12.25 1282.8 12.4375C1282.48 12.625 1282.22 12.862 1282.04 13.1484C1281.86 13.4349 1281.77 13.7266 1281.77 14.0234C1281.77 14.3255 1281.82 14.6302 1281.91 14.9375C1281.99 15.2448 1282.13 15.5286 1282.3 15.7891C1282.48 16.0443 1282.7 16.25 1282.97 16.4062C1283.23 16.5625 1283.54 16.6406 1283.9 16.6406ZM1291.57 6.41406C1292.41 6.41406 1293.05 6.72656 1293.48 7.35156C1293.91 7.97135 1294.13 8.84896 1294.13 9.98438C1294.13 11.1146 1293.92 11.9974 1293.5 12.6328C1293.09 13.2682 1292.45 13.5859 1291.57 13.5859C1290.75 13.5859 1290.13 13.2682 1289.7 12.6328C1289.28 11.9974 1289.06 11.1146 1289.06 9.98438C1289.06 8.84896 1289.26 7.97135 1289.67 7.35156C1290.07 6.72656 1290.71 6.41406 1291.57 6.41406ZM1291.58 7.69531C1291.24 7.69531 1290.99 7.88542 1290.83 8.26562C1290.67 8.64583 1290.6 9.22135 1290.6 9.99219C1290.6 10.7578 1290.67 11.3359 1290.83 11.7266C1290.99 12.112 1291.24 12.3047 1291.58 12.3047C1291.92 12.3047 1292.18 12.112 1292.35 11.7266C1292.52 11.3411 1292.6 10.763 1292.6 9.99219C1292.6 9.22656 1292.52 8.65365 1292.35 8.27344C1292.19 7.88802 1291.93 7.69531 1291.58 7.69531ZM1299.24 6.57812L1292.91 18H1291.4L1297.74 6.57812H1299.24ZM1299.03 10.9844C1299.87 10.9844 1300.51 11.2969 1300.94 11.9219C1301.38 12.5417 1301.6 13.4193 1301.6 14.5547C1301.6 15.6797 1301.39 16.5599 1300.97 17.1953C1300.56 17.8307 1299.91 18.1484 1299.03 18.1484C1298.22 18.1484 1297.59 17.8307 1297.17 17.1953C1296.74 16.5599 1296.53 15.6797 1296.53 14.5547C1296.53 13.4193 1296.73 12.5417 1297.13 11.9219C1297.53 11.2969 1298.17 10.9844 1299.03 10.9844ZM1299.04 12.2656C1298.7 12.2656 1298.45 12.4557 1298.29 12.8359C1298.13 13.2161 1298.06 13.7917 1298.06 14.5625C1298.06 15.3281 1298.13 15.9062 1298.29 16.2969C1298.45 16.6823 1298.7 16.875 1299.04 16.875C1299.39 16.875 1299.65 16.6849 1299.81 16.3047C1299.98 15.9193 1300.06 15.3385 1300.06 14.5625C1300.06 13.7969 1299.98 13.224 1299.81 12.8438C1299.65 12.4583 1299.39 12.2656 1299.04 12.2656Z" fill="#A3DE74"/>
<path d="M1329.51 18H1327.64V12.8438H1322.38V18H1320.5V6.57812H1322.38V11.25H1327.64V6.57812H1329.51V18ZM1331.19 21.1797C1330.9 21.1797 1330.65 21.1615 1330.44 21.125C1330.22 21.0938 1330.03 21.0495 1329.88 20.9922V19.4219C1330.04 19.4635 1330.22 19.5 1330.42 19.5312C1330.61 19.5625 1330.81 19.5781 1331.03 19.5781C1331.32 19.5781 1331.58 19.5234 1331.81 19.4141C1332.05 19.3047 1332.23 19.1068 1332.37 18.8203C1332.51 18.5339 1332.58 18.1302 1332.58 17.6094V6.57812H1334.45V17.5469C1334.45 18.3958 1334.32 19.0859 1334.05 19.6172C1333.78 20.1536 1333.4 20.5469 1332.91 20.7969C1332.42 21.0521 1331.85 21.1797 1331.19 21.1797ZM1342.42 18L1339.13 8.46094H1339.06C1339.07 8.67448 1339.09 8.96615 1339.11 9.33594C1339.13 9.70573 1339.15 10.1016 1339.17 10.5234C1339.18 10.9453 1339.19 11.349 1339.19 11.7344V18H1337.49V6.57812H1340.12L1343.28 15.6953H1343.33L1346.61 6.57812H1349.23V18H1347.44V11.6406C1347.44 11.2917 1347.45 10.9141 1347.46 10.5078C1347.47 10.1016 1347.49 9.71615 1347.5 9.35156C1347.52 8.98698 1347.54 8.69531 1347.55 8.47656H1347.49L1344.07 18H1342.42Z" fill="white"/>
<path d="M1355.56 14.4844V12.9297H1359.59V14.4844H1355.56ZM1372.93 18H1365.19V16.6172L1368.15 13.6172C1368.73 13.0339 1369.2 12.5312 1369.57 12.1094C1369.94 11.6823 1370.21 11.2786 1370.39 10.8984C1370.57 10.5182 1370.66 10.1042 1370.66 9.65625C1370.66 9.10417 1370.5 8.6875 1370.18 8.40625C1369.87 8.11979 1369.45 7.97656 1368.93 7.97656C1368.43 7.97656 1367.97 8.07552 1367.55 8.27344C1367.13 8.46615 1366.7 8.74219 1366.25 9.10156L1365.25 7.89062C1365.56 7.61979 1365.9 7.3724 1366.26 7.14844C1366.63 6.92448 1367.03 6.7474 1367.48 6.61719C1367.93 6.48177 1368.44 6.41406 1369.01 6.41406C1369.74 6.41406 1370.36 6.54427 1370.89 6.80469C1371.41 7.0599 1371.82 7.41667 1372.1 7.875C1372.38 8.33333 1372.53 8.86719 1372.53 9.47656C1372.53 10.0911 1372.4 10.6589 1372.16 11.1797C1371.92 11.7005 1371.57 12.2161 1371.11 12.7266C1370.66 13.2318 1370.12 13.7812 1369.5 14.375L1367.52 16.3047V16.3906H1372.93V18ZM1374.76 17.0312C1374.76 16.6042 1374.86 16.3047 1375.08 16.1328C1375.31 15.9557 1375.58 15.8672 1375.9 15.8672C1376.21 15.8672 1376.48 15.9557 1376.71 16.1328C1376.94 16.3047 1377.05 16.6042 1377.05 17.0312C1377.05 17.4479 1376.94 17.75 1376.71 17.9375C1376.48 18.1198 1376.21 18.2109 1375.9 18.2109C1375.58 18.2109 1375.31 18.1198 1375.08 17.9375C1374.86 17.75 1374.76 17.4479 1374.76 17.0312ZM1387.05 15.4922H1385.5V18H1383.69V15.4922H1378.49V14.1016L1383.71 6.54688H1385.5V13.9688H1387.05V15.4922ZM1383.69 13.9688V11.1328C1383.69 10.8984 1383.69 10.6615 1383.69 10.4219C1383.71 10.1771 1383.72 9.94271 1383.73 9.71875C1383.74 9.49479 1383.75 9.28906 1383.76 9.10156C1383.77 8.90885 1383.78 8.75 1383.78 8.625H1383.72C1383.62 8.83333 1383.51 9.04688 1383.39 9.26562C1383.27 9.47917 1383.14 9.6875 1383.01 9.89062L1380.19 13.9688H1383.69ZM1390.57 6.41406C1391.41 6.41406 1392.05 6.72656 1392.48 7.35156C1392.91 7.97135 1393.13 8.84896 1393.13 9.98438C1393.13 11.1146 1392.92 11.9974 1392.5 12.6328C1392.09 13.2682 1391.45 13.5859 1390.57 13.5859C1389.75 13.5859 1389.13 13.2682 1388.7 12.6328C1388.28 11.9974 1388.06 11.1146 1388.06 9.98438C1388.06 8.84896 1388.26 7.97135 1388.67 7.35156C1389.07 6.72656 1389.71 6.41406 1390.57 6.41406ZM1390.58 7.69531C1390.24 7.69531 1389.99 7.88542 1389.83 8.26562C1389.67 8.64583 1389.6 9.22135 1389.6 9.99219C1389.6 10.7578 1389.67 11.3359 1389.83 11.7266C1389.99 12.112 1390.24 12.3047 1390.58 12.3047C1390.92 12.3047 1391.18 12.112 1391.35 11.7266C1391.52 11.3411 1391.6 10.763 1391.6 9.99219C1391.6 9.22656 1391.52 8.65365 1391.35 8.27344C1391.19 7.88802 1390.93 7.69531 1390.58 7.69531ZM1398.24 6.57812L1391.91 18H1390.4L1396.74 6.57812H1398.24ZM1398.03 10.9844C1398.87 10.9844 1399.51 11.2969 1399.94 11.9219C1400.38 12.5417 1400.6 13.4193 1400.6 14.5547C1400.6 15.6797 1400.39 16.5599 1399.97 17.1953C1399.56 17.8307 1398.91 18.1484 1398.03 18.1484C1397.22 18.1484 1396.59 17.8307 1396.17 17.1953C1395.74 16.5599 1395.53 15.6797 1395.53 14.5547C1395.53 13.4193 1395.73 12.5417 1396.13 11.9219C1396.53 11.2969 1397.17 10.9844 1398.03 10.9844ZM1398.04 12.2656C1397.7 12.2656 1397.45 12.4557 1397.29 12.8359C1397.13 13.2161 1397.06 13.7917 1397.06 14.5625C1397.06 15.3281 1397.13 15.9062 1397.29 16.2969C1397.45 16.6823 1397.7 16.875 1398.04 16.875C1398.39 16.875 1398.65 16.6849 1398.81 16.3047C1398.98 15.9193 1399.06 15.3385 1399.06 14.5625C1399.06 13.7969 1398.98 13.224 1398.81 12.8438C1398.65 12.4583 1398.39 12.2656 1398.04 12.2656Z" fill="#E98F8F"/>
<path d="M1426.58 18L1425.46 14.8281H1421.09L1419.98 18H1418L1422.25 6.53125H1424.33L1428.57 18H1426.58ZM1424.98 13.2188L1423.89 10.0938C1423.85 9.95833 1423.79 9.76823 1423.71 9.52344C1423.63 9.27344 1423.55 9.02083 1423.48 8.76562C1423.4 8.50521 1423.33 8.28646 1423.28 8.10938C1423.23 8.32292 1423.16 8.5625 1423.09 8.82812C1423.01 9.08854 1422.94 9.33333 1422.87 9.5625C1422.8 9.79167 1422.75 9.96875 1422.71 10.0938L1421.62 13.2188H1424.98ZM1436.75 14.8906C1436.75 15.5677 1436.59 16.151 1436.25 16.6406C1435.92 17.1302 1435.45 17.5052 1434.83 17.7656C1434.22 18.026 1433.48 18.1562 1432.63 18.1562C1432.21 18.1562 1431.81 18.1328 1431.43 18.0859C1431.05 18.0391 1430.69 17.9714 1430.35 17.8828C1430.02 17.7891 1429.72 17.6771 1429.44 17.5469V15.7812C1429.9 15.9844 1430.42 16.1693 1430.99 16.3359C1431.57 16.4974 1432.15 16.5781 1432.74 16.5781C1433.23 16.5781 1433.63 16.5156 1433.95 16.3906C1434.27 16.2604 1434.51 16.0781 1434.67 15.8438C1434.82 15.6042 1434.9 15.3255 1434.9 15.0078C1434.9 14.6693 1434.81 14.3828 1434.63 14.1484C1434.44 13.9141 1434.17 13.7005 1433.8 13.5078C1433.43 13.3099 1432.98 13.099 1432.42 12.875C1432.05 12.724 1431.69 12.5521 1431.35 12.3594C1431.01 12.1667 1430.7 11.9401 1430.44 11.6797C1430.17 11.4193 1429.96 11.112 1429.81 10.7578C1429.66 10.3984 1429.58 9.97656 1429.58 9.49219C1429.58 8.84635 1429.73 8.29427 1430.04 7.83594C1430.35 7.3776 1430.79 7.02604 1431.35 6.78125C1431.92 6.53646 1432.58 6.41406 1433.34 6.41406C1433.94 6.41406 1434.5 6.47656 1435.03 6.60156C1435.56 6.72656 1436.08 6.90365 1436.59 7.13281L1435.99 8.64062C1435.53 8.44792 1435.07 8.29427 1434.63 8.17969C1434.19 8.0651 1433.74 8.00781 1433.28 8.00781C1432.89 8.00781 1432.55 8.06771 1432.28 8.1875C1432 8.30729 1431.79 8.47656 1431.64 8.69531C1431.5 8.90885 1431.43 9.16406 1431.43 9.46094C1431.43 9.79427 1431.51 10.0755 1431.67 10.3047C1431.84 10.5286 1432.1 10.7344 1432.44 10.9219C1432.79 11.1094 1433.24 11.3177 1433.78 11.5469C1434.41 11.8073 1434.95 12.0807 1435.38 12.3672C1435.83 12.6536 1436.17 12.9974 1436.4 13.3984C1436.63 13.7943 1436.75 14.2917 1436.75 14.8906ZM1443.9 8.00781C1443.36 8.00781 1442.87 8.10677 1442.43 8.30469C1442.01 8.5026 1441.64 8.78906 1441.35 9.16406C1441.05 9.53385 1440.82 9.98438 1440.67 10.5156C1440.51 11.0417 1440.43 11.6354 1440.43 12.2969C1440.43 13.1823 1440.56 13.9453 1440.81 14.5859C1441.06 15.2214 1441.44 15.7109 1441.95 16.0547C1442.46 16.3932 1443.11 16.5625 1443.89 16.5625C1444.37 16.5625 1444.84 16.5156 1445.3 16.4219C1445.76 16.3281 1446.23 16.2005 1446.72 16.0391V17.6328C1446.26 17.8151 1445.79 17.9479 1445.32 18.0312C1444.84 18.1146 1444.3 18.1562 1443.68 18.1562C1442.51 18.1562 1441.54 17.9141 1440.77 17.4297C1440 16.9453 1439.43 16.263 1439.05 15.3828C1438.68 14.5026 1438.49 13.4714 1438.49 12.2891C1438.49 11.4245 1438.61 10.6328 1438.85 9.91406C1439.09 9.19531 1439.44 8.57552 1439.89 8.05469C1440.35 7.52865 1440.92 7.125 1441.59 6.84375C1442.27 6.55729 1443.04 6.41406 1443.91 6.41406C1444.48 6.41406 1445.05 6.47917 1445.6 6.60938C1446.15 6.73438 1446.67 6.91406 1447.14 7.14844L1446.49 8.69531C1446.09 8.50781 1445.68 8.34635 1445.25 8.21094C1444.81 8.07552 1444.37 8.00781 1443.9 8.00781Z" fill="white"/>
<path d="M1457.26 11.6641H1460.38V13.0547H1457.26V16.2109H1455.87V13.0547H1452.75V11.6641H1455.87V8.47656H1457.26V11.6641ZM1471.59 18H1469.75V10.6484C1469.75 10.4036 1469.75 10.1589 1469.75 9.91406C1469.76 9.66927 1469.76 9.42969 1469.77 9.19531C1469.78 8.96094 1469.79 8.73698 1469.81 8.52344C1469.7 8.64323 1469.56 8.77344 1469.4 8.91406C1469.25 9.05469 1469.08 9.20052 1468.9 9.35156L1467.59 10.3984L1466.67 9.23438L1470.06 6.57812H1471.59V18ZM1475.76 17.0312C1475.76 16.6042 1475.86 16.3047 1476.08 16.1328C1476.31 15.9557 1476.58 15.8672 1476.9 15.8672C1477.21 15.8672 1477.48 15.9557 1477.71 16.1328C1477.94 16.3047 1478.05 16.6042 1478.05 17.0312C1478.05 17.4479 1477.94 17.75 1477.71 17.9375C1477.48 18.1198 1477.21 18.2109 1476.9 18.2109C1476.58 18.2109 1476.31 18.1198 1476.08 17.9375C1475.86 17.75 1475.76 17.4479 1475.76 17.0312ZM1487.63 18H1479.9V16.6172L1482.86 13.6172C1483.43 13.0339 1483.9 12.5312 1484.27 12.1094C1484.64 11.6823 1484.92 11.2786 1485.09 10.8984C1485.28 10.5182 1485.37 10.1042 1485.37 9.65625C1485.37 9.10417 1485.21 8.6875 1484.89 8.40625C1484.57 8.11979 1484.15 7.97656 1483.63 7.97656C1483.14 7.97656 1482.68 8.07552 1482.26 8.27344C1481.84 8.46615 1481.41 8.74219 1480.96 9.10156L1479.95 7.89062C1480.27 7.61979 1480.61 7.3724 1480.97 7.14844C1481.33 6.92448 1481.74 6.7474 1482.19 6.61719C1482.64 6.48177 1483.15 6.41406 1483.72 6.41406C1484.44 6.41406 1485.07 6.54427 1485.59 6.80469C1486.12 7.0599 1486.52 7.41667 1486.8 7.875C1487.09 8.33333 1487.23 8.86719 1487.23 9.47656C1487.23 10.0911 1487.11 10.6589 1486.87 11.1797C1486.62 11.7005 1486.27 12.2161 1485.82 12.7266C1485.37 13.2318 1484.83 13.7812 1484.2 14.375L1482.23 16.3047V16.3906H1487.63V18ZM1491.57 6.41406C1492.41 6.41406 1493.05 6.72656 1493.48 7.35156C1493.91 7.97135 1494.13 8.84896 1494.13 9.98438C1494.13 11.1146 1493.92 11.9974 1493.5 12.6328C1493.09 13.2682 1492.45 13.5859 1491.57 13.5859C1490.75 13.5859 1490.13 13.2682 1489.7 12.6328C1489.28 11.9974 1489.06 11.1146 1489.06 9.98438C1489.06 8.84896 1489.26 7.97135 1489.67 7.35156C1490.07 6.72656 1490.71 6.41406 1491.57 6.41406ZM1491.58 7.69531C1491.24 7.69531 1490.99 7.88542 1490.83 8.26562C1490.67 8.64583 1490.6 9.22135 1490.6 9.99219C1490.6 10.7578 1490.67 11.3359 1490.83 11.7266C1490.99 12.112 1491.24 12.3047 1491.58 12.3047C1491.92 12.3047 1492.18 12.112 1492.35 11.7266C1492.52 11.3411 1492.6 10.763 1492.6 9.99219C1492.6 9.22656 1492.52 8.65365 1492.35 8.27344C1492.19 7.88802 1491.93 7.69531 1491.58 7.69531ZM1499.24 6.57812L1492.91 18H1491.4L1497.74 6.57812H1499.24ZM1499.03 10.9844C1499.87 10.9844 1500.51 11.2969 1500.94 11.9219C1501.38 12.5417 1501.6 13.4193 1501.6 14.5547C1501.6 15.6797 1501.39 16.5599 1500.97 17.1953C1500.56 17.8307 1499.91 18.1484 1499.03 18.1484C1498.22 18.1484 1497.59 17.8307 1497.17 17.1953C1496.74 16.5599 1496.53 15.6797 1496.53 14.5547C1496.53 13.4193 1496.73 12.5417 1497.13 11.9219C1497.53 11.2969 1498.17 10.9844 1499.03 10.9844ZM1499.04 12.2656C1498.7 12.2656 1498.45 12.4557 1498.29 12.8359C1498.13 13.2161 1498.06 13.7917 1498.06 14.5625C1498.06 15.3281 1498.13 15.9062 1498.29 16.2969C1498.45 16.6823 1498.7 16.875 1499.04 16.875C1499.39 16.875 1499.65 16.6849 1499.81 16.3047C1499.98 15.9193 1500.06 15.3385 1500.06 14.5625C1500.06 13.7969 1499.98 13.224 1499.81 12.8438C1499.65 12.4583 1499.39 12.2656 1499.04 12.2656Z" fill="#A3DE74"/>
</g>
<defs>
<clipPath id="clip0_1150_14901">
<rect width="1503" height="24" fill="white"/>
</clipPath>
</defs>
</svg>
